<svg width="334" height="358" viewBox="0 0 334 358" fill="none" xmlns="http://www.w3.org/2000/svg">
<path d="M12.8859 30.337C12.8859 33.9252 13.542 37.2457 14.8541 40.2984C16.1662 43.3243 17.9737 45.8815 20.2766 47.9702C25.1502 52.3886 31.4028 54.5977 39.0345 54.5977C46.6662 54.5977 53.3874 51.6923 59.1982 45.8815C59.8409 45.2389 60.4032 44.9175 60.8852 44.9175C61.394 44.9175 61.8626 45.105 62.2911 45.4799C62.7463 45.8548 62.9739 46.31 62.9739 46.8455C62.9739 47.3811 62.8266 47.9836 62.5321 48.653H62.5722C60.5639 52.1877 57.2033 55.1333 52.4904 57.4897C47.8042 59.8194 42.9976 60.9842 38.0705 60.9842C33.1434 60.9842 28.6581 60.355 24.6146 59.0964C20.5712 57.8379 16.9829 56.0437 13.8499 53.7141C10.7437 51.3844 8.26674 48.412 6.41907 44.797C4.5714 41.1552 3.64756 37.0716 3.64756 32.5462C3.64756 27.9939 4.51784 23.8434 6.2584 20.0945C7.99896 16.3188 10.3956 13.1992 13.4483 10.7356C19.7143 5.6478 27.7075 3.10391 37.4278 3.10391C42.596 3.10391 47.4829 3.90724 52.0887 5.51391C54.4452 6.34403 56.3598 7.53564 57.8326 9.08876C59.3321 10.6151 60.0819 12.369 60.0819 14.3506C60.0819 16.3322 59.466 17.805 58.2342 18.769C57.0024 19.733 55.5564 20.215 53.8962 20.215C52.236 20.215 51.0176 20.0811 50.241 19.8133C49.9465 15.6359 48.7415 12.5297 46.626 10.4946C44.5106 8.45948 41.324 7.44192 37.0663 7.44192C29.8095 7.44192 23.9586 9.55737 19.5134 13.7883C15.0951 17.9924 12.8859 23.5086 12.8859 30.337Z" fill="#202020"/>
<path d="M84.2221 60.8638C78.1703 60.8638 73.2968 58.9625 69.6014 55.1601C65.9061 51.3308 64.0584 46.484 64.0584 40.6197C64.0584 36.7101 65.0358 33.229 66.9906 30.1763C68.9454 27.1236 71.583 24.794 74.9034 23.1873C78.2507 21.5539 81.9728 20.7371 86.0698 20.7371C91.9609 20.7371 96.8211 22.5714 100.65 26.24C104.48 29.9085 106.394 34.6482 106.394 40.459C106.394 44.4757 105.403 48.0505 103.422 51.1836C101.467 54.2898 98.8161 56.6864 95.4688 58.3734C92.1216 60.0336 88.3727 60.8638 84.2221 60.8638ZM85.869 56.4052C89.8589 56.4052 92.9651 55.053 95.1877 52.3484C97.437 49.6438 98.5617 46.0422 98.5617 41.5435C98.5617 37.0448 97.2763 33.1621 94.7057 29.8952C92.135 26.6283 88.8279 24.9948 84.7845 24.9948C80.7678 24.9948 77.675 26.3739 75.5059 29.132C73.3369 31.8901 72.2524 35.5051 72.2524 39.977C72.2524 44.4489 73.5244 48.3049 76.0683 51.5451C78.6122 54.7852 81.8791 56.4052 85.869 56.4052Z" fill="#202020"/>
<path d="M121.818 59.8596L118.364 59.8997C114.856 59.8997 112.687 59.3642 111.857 58.2931C111.482 57.8111 111.295 57.2354 111.295 56.5659C111.295 55.8697 111.562 55.3877 112.098 55.1199C112.633 54.8521 113.223 54.7048 113.865 54.6781C114.535 54.6513 115.137 54.4505 115.673 54.0756C116.208 53.6739 116.476 53.0446 116.476 52.1877V32.3453C116.476 29.9621 116.182 28.4893 115.592 27.927C115.03 27.3646 114.548 27.0031 114.146 26.8425C113.772 26.6818 113.169 26.481 112.339 26.24C111.509 25.999 110.826 25.758 110.29 25.517C109.782 25.276 109.527 24.9145 109.527 24.4325C109.527 22.2902 112.406 21.2191 118.163 21.2191C120.6 21.2191 122.14 21.6476 122.782 22.5045C123.452 23.3346 123.786 25.276 123.786 28.3286C124.697 26.0258 126.196 24.2182 128.285 22.9061C130.401 21.594 132.556 20.938 134.752 20.938C136.975 20.938 138.795 21.42 140.215 22.384C141.661 23.3212 142.384 24.5262 142.384 25.999C142.384 27.445 141.915 28.6098 140.978 29.4935C140.041 30.3504 138.889 30.7788 137.523 30.7788C136.158 30.7788 134.98 30.4173 133.989 29.6943C133.025 28.9713 132.396 28.0341 132.101 26.8826C131.405 26.7755 130.829 26.722 130.374 26.722C126.196 26.722 124.108 31.5286 124.108 41.1419V52.1877C124.108 53.7408 124.965 54.571 126.678 54.6781C128.419 54.7584 129.289 55.4412 129.289 56.7266C129.289 58.1994 128.486 59.1098 126.879 59.4579C125.647 59.7257 123.96 59.8596 121.818 59.8596Z" fill="#202020"/>
<path d="M179.377 42.4674C179.377 39.736 178.868 37.1118 177.851 34.5947C176.833 32.0508 175.334 29.9353 173.352 28.2483C171.397 26.5613 169.202 25.7178 166.765 25.7178C163.418 25.7178 160.325 27.0299 157.486 29.6542V51.7861C160.673 54.3032 164.1 55.5617 167.769 55.5617C171.438 55.5617 174.289 54.3567 176.325 51.9467C178.36 49.5367 179.377 46.3769 179.377 42.4674ZM151.421 60.1809C150.377 60.1809 149.855 58.9625 149.855 56.5257V9.77159C149.855 7.33481 148.891 6.02269 146.963 5.83525C146.775 5.80847 146.534 5.78169 146.24 5.75491C145.945 5.72814 145.731 5.71475 145.597 5.71475C145.463 5.68797 145.289 5.66119 145.075 5.63441C144.887 5.58086 144.74 5.5273 144.633 5.47375C144.553 5.42019 144.472 5.35325 144.392 5.27291C144.205 5.11225 144.111 4.72397 144.111 4.10808C144.111 3.49218 144.526 2.84952 145.356 2.18007C146.856 0.948288 148.877 0.332397 151.421 0.332397C154.126 0.332397 155.706 0.493065 156.161 0.814399C157.071 1.45707 157.527 2.30057 157.527 3.34491V25.5571C161.516 22.1564 166.055 20.456 171.143 20.456C176.231 20.456 180.314 22.2367 183.394 25.7981C186.5 29.3328 188.053 33.9654 188.053 39.6959C188.053 43.2841 187.263 46.6715 185.683 49.8581C184.13 53.0446 181.935 55.6287 179.096 57.6102C176.284 59.5918 173.192 60.5826 169.818 60.5826C164.998 60.5826 160.325 59.0696 155.799 56.0437C155.746 56.0973 155.384 56.5793 154.715 57.4897C153.403 59.2839 152.305 60.1809 151.421 60.1809Z" fill="#202020"/>
<path d="M197.894 55.4814C194.199 51.8396 192.351 47.0062 192.351 40.9812C192.351 34.9562 194.212 30.0692 197.934 26.3203C201.683 22.5446 206.45 20.6568 212.234 20.6568C216.813 20.6568 220.669 22.143 223.802 25.1153C226.962 28.0609 228.541 31.7696 228.541 36.2415C228.541 38.4105 226.828 39.495 223.4 39.495H200.143C200.197 43.833 201.603 47.4882 204.361 50.4606C207.119 53.4329 210.6 54.9191 214.804 54.9191C217.589 54.9191 220.294 54.1023 222.918 52.4689C224.311 51.612 225.194 51.1836 225.569 51.1836C225.971 51.1836 226.413 51.3844 226.895 51.7861C227.403 52.1609 227.658 52.6296 227.658 53.1919C227.658 54.6647 226.707 56.0303 224.806 57.2889C222.931 58.5207 220.856 59.4311 218.58 60.0202C216.304 60.6361 214.309 60.9441 212.595 60.9441C206.517 60.9441 201.616 59.1232 197.894 55.4814ZM221.151 35.2775C221.097 32.1981 220.294 29.6943 218.741 27.7663C217.188 25.8383 214.911 24.8743 211.912 24.8743C208.94 24.8743 206.329 25.9454 204.08 28.0877C201.857 30.2299 200.679 32.6801 200.545 35.4382H209.944C214.122 35.4382 217.857 35.3846 221.151 35.2775Z" fill="#202020"/>
<path d="M244.929 59.8596L241.475 59.8997C237.967 59.8997 235.798 59.3642 234.968 58.2931C234.593 57.8111 234.406 57.2354 234.406 56.5659C234.406 55.8697 234.674 55.3877 235.209 55.1199C235.745 54.8521 236.334 54.7048 236.976 54.6781C237.646 54.6513 238.248 54.4505 238.784 54.0756C239.32 53.6739 239.587 53.0446 239.587 52.1877V29.2525C239.587 27.6994 238.623 26.7621 236.695 26.4408C235.356 26.2266 234.54 25.999 234.245 25.758C233.977 25.4902 233.843 25.035 233.843 24.3923C233.843 23.7229 234.312 23.1204 235.249 22.5848C236.829 21.6208 238.811 21.1388 241.194 21.1388C243.604 21.1388 245.144 21.4869 245.813 22.1831C246.509 22.8526 246.857 24.3655 246.857 26.722C250.526 22.5714 255.574 20.4961 262 20.4961C267.222 20.4961 270.917 21.9287 273.086 24.794C275.282 27.6324 276.38 31.9437 276.38 37.7277V52.1877C276.38 53.7408 277.237 54.571 278.951 54.6781C280.691 54.7584 281.562 55.4412 281.562 56.7266C281.562 58.1726 280.731 59.083 279.071 59.4579C277.839 59.7257 276.139 59.8596 273.97 59.8596L270.516 59.8997C267.008 59.8997 264.839 59.3642 264.009 58.2931C263.634 57.8111 263.446 57.2354 263.446 56.5659C263.446 55.8697 263.714 55.3877 264.25 55.1199C264.785 54.8521 265.374 54.7048 266.017 54.6781C266.686 54.6513 267.289 54.4505 267.825 54.0756C268.36 53.6739 268.628 53.0446 268.628 52.1877V40.4992C268.628 35.5185 268.052 31.8767 266.901 29.5738C265.615 26.9764 263.031 25.6776 259.148 25.6776C254.462 25.6776 251.276 26.9228 249.589 29.4132C248.009 31.7696 247.219 35.5319 247.219 40.7V52.1877C247.219 53.7408 248.076 54.571 249.79 54.6781C251.53 54.7584 252.4 55.4412 252.4 56.7266C252.4 58.1994 251.584 59.1098 249.95 59.4579C248.772 59.7257 247.098 59.8596 244.929 59.8596Z" fill="#202020"/>
<path d="M61.3271 146.772C61.3271 148.004 60.5639 148.915 59.0376 149.504C57.5112 150.066 55.8376 150.347 54.0167 150.347H53.5347C50.0536 150.347 47.8444 150.213 46.9072 149.946C45.9967 149.678 45.247 149.41 44.6579 149.142C43.4796 148.553 42.8905 147.603 42.8905 146.29C42.8905 145.701 43.6001 145.367 45.0194 145.286C46.4654 145.206 47.1884 144.751 47.1884 143.921C47.1884 143.626 46.934 142.983 46.4252 141.993H46.4654L42.047 131.469H18.3888C15.5235 139.02 14.0909 143.131 14.0909 143.8C14.0909 144.47 14.265 144.858 14.6131 144.965L14.5729 144.925C14.7604 145.032 15.2156 145.179 15.9386 145.367C17.7327 145.795 18.6298 146.264 18.6298 146.772C18.6298 149.156 15.6173 150.347 9.59224 150.347C4.58478 150.347 2.08105 149.156 2.08105 146.772C2.08105 146.264 2.97811 145.755 4.77223 145.246C6.59312 144.737 7.87846 143.479 8.62824 141.47L24.8958 98.9338C24.628 98.2108 24.4941 97.5816 24.4941 97.046C24.4941 94.9841 26.5962 93.9532 30.8003 93.9532C34.1743 93.9532 36.3567 95.2385 37.3475 97.8092L54.2979 141.189C55.2619 143.492 56.7347 144.804 58.7162 145.126C59.9748 145.313 60.7246 145.527 60.9656 145.768C61.2066 145.983 61.3271 146.317 61.3271 146.772ZM19.9553 127.613H40.4403L29.997 98.9338L19.9553 127.613Z" fill="#202020"/>
<path d="M71.5696 124.882C70.5788 124.882 69.4541 124.493 68.1956 123.717C66.9638 122.913 66.3479 121.882 66.3479 120.624C66.3479 119.339 66.7094 118.134 67.4324 117.009C68.1554 115.884 69.0927 114.974 70.2441 114.278C71.3955 113.555 72.7344 112.952 74.2608 112.47C77.0457 111.586 80.0448 111.145 83.2581 111.145C88.6673 111.145 92.5902 112.35 95.027 114.76C97.4906 117.143 98.7224 121.093 98.7224 126.609L98.6822 138.458C98.6822 141.323 99.0437 143.117 99.7667 143.84C99.9541 144.028 100.543 144.269 101.534 144.563C104.265 145.42 105.631 146.076 105.631 146.531C105.631 149.343 102.752 150.749 96.9952 150.749C94.8262 150.749 93.4069 150.267 92.7375 149.303C92.0948 148.339 91.7467 146.585 91.6932 144.041C90.4882 146.21 88.6539 147.964 86.1903 149.303C83.7268 150.642 81.0891 151.311 78.2775 151.311C75.4658 151.311 73.0826 150.95 71.1278 150.227C69.173 149.504 67.5797 148.339 66.3479 146.732C65.1429 145.099 64.5404 143.345 64.5404 141.47C64.5404 139.596 64.7546 138.096 65.1831 136.972C65.6115 135.82 66.1471 134.856 66.7898 134.08C67.4324 133.303 68.3027 132.607 69.4006 131.991C70.5253 131.375 71.5696 130.893 72.5336 130.545C73.4976 130.17 74.7428 129.835 76.2691 129.541C78.5185 129.112 80.4063 128.818 81.9326 128.657C83.459 128.47 84.2489 128.363 84.3025 128.336C84.4631 128.309 85.3736 128.215 87.0338 128.055C88.7208 127.867 90.0463 127.506 91.0103 126.97C91.0103 121.882 90.3275 118.562 88.9618 117.009C87.7568 115.67 85.7753 115.001 83.0171 115.001C80.259 115.001 78.1837 115.71 76.7913 117.129C75.4256 118.522 74.7428 120.744 74.7428 123.797L74.7829 124.681C73.6583 124.815 72.5872 124.882 71.5696 124.882ZM91.0103 130.585C89.1894 131.255 87.1275 131.723 84.8246 131.991C82.5485 132.232 80.7544 132.527 79.4423 132.875C78.1302 133.223 77.0323 133.651 76.1486 134.16C74.1135 135.338 73.0959 137.36 73.0959 140.225C73.0959 144.831 75.7737 147.134 81.1293 147.134C85.7619 147.134 88.694 144.925 89.9258 140.506C90.6488 137.989 91.0103 134.682 91.0103 130.585Z" fill="#202020"/>
<path d="M131.94 92.9892C133.895 92.6143 135.475 92.4268 136.68 92.4268C137.885 92.4268 138.662 92.6946 139.01 93.2301C139.385 93.7657 139.572 94.8234 139.572 96.4033V143.238C139.572 144.014 140.549 144.603 142.504 145.005C142.611 145.032 142.692 145.059 142.745 145.085C142.825 145.085 142.986 145.112 143.227 145.166C143.495 145.219 143.682 145.26 143.789 145.286C143.923 145.286 144.097 145.326 144.312 145.407C144.553 145.46 144.727 145.514 144.834 145.567C144.941 145.621 145.075 145.701 145.235 145.808C145.423 145.916 145.543 146.023 145.597 146.13C145.811 146.451 145.918 146.746 145.918 147.013C145.918 148.433 144.954 149.383 143.026 149.865C141.795 150.187 139.184 150.347 135.194 150.347C131.231 150.347 128.714 150.213 127.642 149.946C125.5 149.41 124.429 148.339 124.429 146.732C124.429 146.09 124.965 145.634 126.036 145.367C127.134 145.099 128.218 144.844 129.289 144.603C130.36 144.336 130.896 143.88 130.896 143.238V100.822C130.896 100.099 129.798 99.5765 127.602 99.2552C125.433 98.9338 124.349 98.5188 124.349 98.01C124.349 95.6803 126.879 94.0067 131.94 92.9892Z" fill="#202020"/>
<path d="M176.807 105.843C176.807 100.112 173.968 97.2468 168.291 97.2468C166.042 97.2468 163.578 97.7556 160.901 98.7732C158.25 99.7639 156 100.969 154.153 102.388C153.563 102.736 152.907 102.91 152.184 102.91C151.488 102.91 150.886 102.736 150.377 102.388C149.868 102.04 149.614 101.518 149.614 100.822C149.614 100.099 150.136 99.3489 151.18 98.5723C154.849 94.6628 159.521 92.1323 165.198 90.9808C166.912 90.6327 168.72 90.4586 170.621 90.4586C175.12 90.4586 178.681 91.7172 181.305 94.2343C183.956 96.7514 185.282 100.192 185.282 104.557C185.282 110.716 182.015 117.585 175.481 125.163C170.5 130.947 163.685 137.373 155.036 144.443H166.403C170.634 144.443 173.339 144.429 174.517 144.403L175.401 144.362C177.704 144.362 179.578 142.501 181.024 138.779C181.453 137.681 181.667 136.918 181.667 136.49V136.45C183.3 136.45 184.599 137.012 185.563 138.137C186.554 139.235 187.049 140.761 187.049 142.716C187.049 144.67 186.554 146.424 185.563 147.977C184.572 149.531 183.273 150.307 181.667 150.307H153.108C151.582 150.307 150.31 149.905 149.292 149.102C148.302 148.272 147.806 147.107 147.806 145.608C147.806 144.885 148.248 144.055 149.132 143.117C150.015 142.153 151.408 140.814 153.309 139.101C162.36 131.067 169.068 123.275 173.433 115.724C175.682 111.841 176.807 108.547 176.807 105.843Z" fill="#202020"/>
<path d="M228.541 102.669C228.541 107.677 224.632 111.801 216.813 115.041C221.606 115.603 225.582 117.344 228.742 120.262C231.902 123.181 233.482 126.957 233.482 131.589C233.482 137.775 231.286 142.609 226.895 146.09C222.53 149.571 217.188 151.311 210.868 151.311C207.574 151.311 203.892 150.562 199.822 149.062C193.395 146.679 190.182 144.108 190.182 141.35C190.182 140.306 190.878 139.783 192.271 139.783C193.021 139.783 193.877 140.158 194.841 140.908C195.805 141.631 196.475 142.127 196.85 142.394C200.304 144.858 204.401 146.09 209.141 146.09C211.819 146.09 214.001 145.782 215.688 145.166C217.375 144.55 218.928 143.546 220.347 142.153C223.106 139.502 224.485 136.222 224.485 132.312C224.485 128.376 223.239 125.216 220.749 122.833C218.259 120.45 214.898 119.258 210.667 119.258C208.338 119.258 205.981 119.794 203.598 120.865C203.41 120.945 203.143 120.985 202.795 120.985C202.473 120.985 202.138 120.744 201.79 120.262C201.442 119.754 201.268 119.231 201.268 118.696C201.268 118.16 201.549 117.732 202.112 117.411C202.701 117.062 203.759 116.567 205.285 115.924C206.838 115.282 208.083 114.746 209.02 114.318C209.958 113.862 210.975 113.3 212.073 112.631C213.171 111.961 214.336 111.118 215.568 110.1C218.138 107.931 219.424 105.387 219.424 102.469C219.424 100.567 218.593 98.9606 216.933 97.6485C215.3 96.3364 213.452 95.6803 211.39 95.6803C207.748 95.6803 203.906 96.8452 199.862 99.1748C198.39 100.005 196.877 101.156 195.323 102.629C195.056 102.897 194.708 103.031 194.279 103.031C193.877 103.031 193.449 102.817 192.994 102.388C192.565 101.933 192.351 101.518 192.351 101.143C192.351 100.741 192.431 100.42 192.592 100.179C195.698 95.5197 200.679 92.467 207.534 91.021C209.489 90.5925 211.444 90.3783 213.399 90.3783C217.817 90.3783 221.445 91.4628 224.284 93.6318C227.122 95.774 228.541 98.7866 228.541 102.669Z" fill="#202020"/>
<path d="M4.43046 265.561V206.332H9.98312L33.2631 256.142L56.4198 206.332H62.0547V265.52H56.2964V219.823L35.1963 265.561H31.2889L10.2299 219.823V265.561H4.43046Z" fill="#202020"/>
<path d="M86.3071 266.795C82.9618 266.795 80.1512 266.191 77.8753 264.985C75.6268 263.778 73.9404 262.174 72.8162 260.173C71.6919 258.171 71.1298 255.991 71.1298 253.633C71.1298 251.22 71.6097 249.163 72.5694 247.463C73.5565 245.736 74.8864 244.324 76.5591 243.227C78.2592 242.13 80.2197 241.294 82.4408 240.718C84.6893 240.169 87.1708 239.689 89.8855 239.278C92.6275 238.839 95.301 238.469 97.906 238.168C100.538 237.839 102.842 237.523 104.816 237.222L102.677 238.538C102.759 234.151 101.909 230.901 100.127 228.79C98.3447 226.678 95.2462 225.623 90.8315 225.623C87.7878 225.623 85.2103 226.308 83.0989 227.679C81.0149 229.05 79.5479 231.217 78.6979 234.178L72.8162 232.45C73.8307 228.474 75.8736 225.39 78.9447 223.196C82.0158 221.002 86.0055 219.906 90.9137 219.906C94.972 219.906 98.4132 220.673 101.238 222.209C104.089 223.717 106.105 225.911 107.284 228.79C107.832 230.079 108.189 231.518 108.353 233.109C108.518 234.699 108.6 236.317 108.6 237.962V265.561H103.212V254.414L104.775 255.072C103.267 258.884 100.922 261.79 97.7414 263.792C94.5607 265.794 90.7492 266.795 86.3071 266.795ZM87.0063 261.571C89.8306 261.571 92.2985 261.064 94.4099 260.049C96.5212 259.035 98.2213 257.65 99.5101 255.895C100.799 254.113 101.635 252.111 102.019 249.89C102.348 248.464 102.526 246.901 102.554 245.201C102.581 243.474 102.595 242.185 102.595 241.335L104.898 242.528C102.842 242.802 100.607 243.076 98.1939 243.35C95.8083 243.624 93.4501 243.94 91.1194 244.296C88.8161 244.653 86.7321 245.078 84.8675 245.571C83.6062 245.928 82.3859 246.435 81.2069 247.093C80.0278 247.724 79.0544 248.574 78.2866 249.643C77.5462 250.713 77.176 252.042 77.176 253.633C77.176 254.922 77.4914 256.169 78.1221 257.376C78.7802 258.582 79.8221 259.583 81.248 260.378C82.7013 261.173 84.6207 261.571 87.0063 261.571Z" fill="#202020"/>
<path d="M151.389 265.561V242.898C151.389 240.43 151.156 238.168 150.69 236.111C150.224 234.027 149.47 232.217 148.428 230.682C147.414 229.119 146.084 227.912 144.438 227.062C142.821 226.212 140.846 225.787 138.516 225.787C136.377 225.787 134.485 226.157 132.84 226.898C131.222 227.638 129.851 228.708 128.726 230.106C127.63 231.477 126.793 233.15 126.217 235.124C125.642 237.098 125.354 239.347 125.354 241.869L121.076 240.923C121.076 236.372 121.871 232.546 123.462 229.448C125.052 226.349 127.246 224.005 130.043 222.415C132.84 220.824 136.048 220.029 139.667 220.029C142.327 220.029 144.644 220.44 146.618 221.263C148.62 222.085 150.306 223.196 151.677 224.594C153.076 225.993 154.2 227.597 155.05 229.407C155.9 231.189 156.517 233.095 156.901 235.124C157.285 237.126 157.477 239.127 157.477 241.129V265.561H151.389ZM119.266 265.561V221.139H124.737V232.08H125.354V265.561H119.266Z" fill="#202020"/>
<path d="M168.15 265.561V221.139H173.58V231.833L172.51 230.435C173.004 229.119 173.648 227.912 174.443 226.816C175.238 225.691 176.102 224.773 177.035 224.06C178.186 223.045 179.53 222.277 181.065 221.756C182.601 221.208 184.15 220.893 185.713 220.81C187.276 220.701 188.702 220.81 189.991 221.139V226.816C188.373 226.404 186.604 226.308 184.685 226.528C182.765 226.747 180.997 227.515 179.379 228.831C177.898 229.983 176.788 231.367 176.047 232.985C175.307 234.576 174.813 236.276 174.567 238.085C174.32 239.868 174.197 241.636 174.197 243.391V265.561H168.15Z" fill="#202020"/>
<path d="M215.54 266.795C211.125 266.795 207.355 265.794 204.229 263.792C201.103 261.79 198.704 259.021 197.031 255.484C195.359 251.946 194.522 247.888 194.522 243.309C194.522 238.647 195.372 234.562 197.072 231.052C198.772 227.542 201.185 224.814 204.311 222.867C207.465 220.893 211.208 219.906 215.54 219.906C219.982 219.906 223.766 220.906 226.892 222.908C230.046 224.882 232.445 227.638 234.09 231.175C235.763 234.685 236.599 238.73 236.599 243.309C236.599 247.97 235.763 252.07 234.09 255.607C232.417 259.117 230.004 261.859 226.851 263.833C223.698 265.808 219.927 266.795 215.54 266.795ZM215.54 260.995C220.476 260.995 224.15 259.364 226.563 256.101C228.976 252.81 230.183 248.546 230.183 243.309C230.183 237.935 228.962 233.657 226.522 230.476C224.109 227.295 220.448 225.705 215.54 225.705C212.222 225.705 209.48 226.459 207.314 227.967C205.175 229.448 203.571 231.518 202.502 234.178C201.46 236.81 200.939 239.854 200.939 243.309C200.939 248.656 202.173 252.947 204.64 256.183C207.108 259.391 210.741 260.995 215.54 260.995Z" fill="#202020"/>
<path d="M265.621 266.795C261.535 266.795 258.08 265.766 255.256 263.71C252.431 261.626 250.293 258.815 248.839 255.278C247.386 251.713 246.659 247.724 246.659 243.309C246.659 238.812 247.386 234.809 248.839 231.299C250.32 227.762 252.486 224.978 255.338 222.949C258.19 220.92 261.699 219.906 265.867 219.906C269.926 219.906 273.408 220.934 276.315 222.99C279.221 225.047 281.442 227.844 282.978 231.381C284.541 234.918 285.322 238.894 285.322 243.309C285.322 247.751 284.541 251.741 282.978 255.278C281.415 258.815 279.166 261.626 276.232 263.71C273.298 265.766 269.761 266.795 265.621 266.795ZM245.631 285.304V221.139H251.06V254.579H251.718V285.304H245.631ZM265.004 261.16C268.102 261.16 270.68 260.378 272.736 258.815C274.793 257.252 276.328 255.127 277.343 252.44C278.385 249.725 278.906 246.682 278.906 243.309C278.906 239.964 278.399 236.947 277.384 234.26C276.369 231.573 274.82 229.448 272.736 227.885C270.68 226.322 268.061 225.54 264.88 225.54C261.782 225.54 259.204 226.295 257.148 227.803C255.119 229.311 253.597 231.408 252.582 234.096C251.568 236.755 251.06 239.827 251.06 243.309C251.06 246.737 251.568 249.808 252.582 252.522C253.597 255.209 255.132 257.321 257.189 258.856C259.245 260.392 261.85 261.16 265.004 261.16Z" fill="#202020"/>
<path d="M313.151 266.795C308.819 266.795 305.062 265.835 301.881 263.916C298.728 261.996 296.274 259.295 294.519 255.813C292.764 252.33 291.886 248.245 291.886 243.556C291.886 238.702 292.75 234.507 294.478 230.97C296.205 227.432 298.632 224.704 301.758 222.785C304.911 220.865 308.627 219.906 312.904 219.906C317.292 219.906 321.035 220.92 324.133 222.949C327.232 224.951 329.576 227.83 331.166 231.587C332.757 235.343 333.483 239.827 333.346 245.036H327.177V242.898C327.067 237.139 325.819 232.793 323.434 229.859C321.076 226.925 317.621 225.458 313.069 225.458C308.298 225.458 304.637 227.007 302.087 230.106C299.564 233.205 298.303 237.619 298.303 243.35C298.303 248.944 299.564 253.29 302.087 256.389C304.637 259.46 308.243 260.995 312.904 260.995C316.085 260.995 318.855 260.269 321.213 258.815C323.598 257.335 325.477 255.209 326.848 252.44L332.483 254.62C330.728 258.486 328.136 261.489 324.709 263.628C321.309 265.739 317.456 266.795 313.151 266.795ZM296.164 245.036V239.977H330.097V245.036H296.164Z" fill="#202020"/>
<path d="M0.317383 356.048L20.7183 296.82H28.7388L49.1396 356.048H42.8466L23.474 300.193H25.8596L6.61039 356.048H0.317383ZM9.40729 341.694V336.018H40.0086V341.694H9.40729Z" fill="#202020"/>
<path d="M69.2764 357.282C65.9311 357.282 63.1205 356.679 60.8446 355.473C58.5961 354.266 56.9097 352.662 55.7855 350.66C54.6612 348.659 54.0991 346.479 54.0991 344.121C54.0991 341.708 54.579 339.651 55.5387 337.951C56.5258 336.223 57.8557 334.811 59.5284 333.714C61.2284 332.618 63.189 331.781 65.4101 331.205C67.6586 330.657 70.1401 330.177 72.8547 329.766C75.5968 329.327 78.2703 328.957 80.8753 328.655C83.5076 328.326 85.8109 328.011 87.7852 327.709L85.6464 329.026C85.7287 324.638 84.8786 321.389 83.0963 319.278C81.314 317.166 78.2155 316.11 73.8008 316.11C70.7571 316.11 68.1796 316.796 66.0682 318.167C63.9842 319.538 62.5172 321.704 61.6672 324.666L55.7855 322.938C56.8 318.962 58.8429 315.877 61.914 313.684C64.9851 311.49 68.9747 310.393 73.883 310.393C77.9413 310.393 81.3825 311.161 84.2068 312.697C87.0586 314.205 89.074 316.398 90.2531 319.278C90.8015 320.566 91.1579 322.006 91.3225 323.596C91.487 325.187 91.5693 326.804 91.5693 328.45V356.048H86.1811V344.902L87.7441 345.56C86.236 349.372 83.8915 352.278 80.7107 354.28C77.5299 356.282 73.7185 357.282 69.2764 357.282ZM69.9756 352.059C72.7999 352.059 75.2678 351.552 77.3791 350.537C79.4905 349.522 81.1906 348.138 82.4793 346.383C83.7681 344.6 84.6044 342.599 84.9883 340.378C85.3174 338.952 85.4956 337.389 85.523 335.689C85.5505 333.961 85.5642 332.672 85.5642 331.822L87.8675 333.015C85.8109 333.289 83.5762 333.564 81.1632 333.838C78.7776 334.112 76.4194 334.427 74.0887 334.784C71.7853 335.14 69.7014 335.565 67.8368 336.059C66.5754 336.415 65.3552 336.923 64.1761 337.581C62.9971 338.211 62.0236 339.061 61.2559 340.131C60.5155 341.2 60.1453 342.53 60.1453 344.121C60.1453 345.409 60.4607 346.657 61.0913 347.863C61.7494 349.07 62.7914 350.071 64.2173 350.866C65.6706 351.661 67.59 352.059 69.9756 352.059Z" fill="#202020"/>
<path d="M129.069 356.048V303.566L117.923 310.27V303.483L129.069 296.82H135.197V356.048H129.069Z" fill="#202020"/>
<path d="M149.153 356.007L149.194 350.496L175.97 326.311C178.274 324.227 179.795 322.253 180.536 320.388C181.304 318.496 181.687 316.522 181.687 314.465C181.687 312.025 181.112 309.817 179.96 307.843C178.808 305.869 177.259 304.306 175.312 303.154C173.365 301.975 171.185 301.386 168.772 301.386C166.25 301.386 164.001 301.989 162.027 303.195C160.053 304.402 158.49 305.992 157.338 307.967C156.214 309.941 155.665 312.093 155.693 314.424H149.523C149.523 310.832 150.373 307.61 152.073 304.758C153.773 301.907 156.077 299.672 158.983 298.054C161.89 296.409 165.18 295.586 168.855 295.586C172.447 295.586 175.669 296.436 178.52 298.136C181.4 299.809 183.662 302.085 185.307 304.964C186.98 307.816 187.816 310.997 187.816 314.506C187.816 316.974 187.514 319.154 186.911 321.046C186.335 322.911 185.417 324.652 184.155 326.27C182.921 327.86 181.345 329.505 179.425 331.205L155.652 352.676L154.706 350.208H187.816V356.007H149.153Z" fill="#202020"/>
<path d="M213.631 357.241C210.697 357.241 207.996 356.72 205.528 355.678C203.06 354.636 200.935 353.156 199.153 351.236C197.37 349.289 196.068 346.972 195.245 344.285L201.004 342.558C201.991 345.492 203.608 347.713 205.857 349.221C208.133 350.729 210.697 351.456 213.548 351.401C216.181 351.346 218.443 350.756 220.335 349.632C222.254 348.508 223.721 346.945 224.736 344.943C225.751 342.941 226.258 340.624 226.258 337.992C226.258 333.961 225.079 330.726 222.721 328.285C220.39 325.817 217.305 324.583 213.466 324.583C212.397 324.583 211.272 324.734 210.093 325.036C208.914 325.31 207.818 325.708 206.803 326.229L203.759 321.416L226.793 300.152L227.78 302.62H197.59V296.82H231.81V302.702L211.739 321.869L211.656 319.483C215.769 318.962 219.389 319.428 222.515 320.882C225.641 322.335 228.081 324.556 229.836 327.545C231.619 330.506 232.51 333.989 232.51 337.992C232.51 341.776 231.687 345.121 230.042 348.028C228.424 350.907 226.189 353.169 223.338 354.815C220.486 356.432 217.25 357.241 213.631 357.241Z" fill="#202020"/>
</svg>
