<svg width="212" height="208" viewBox="0 0 212 208" fill="none" xmlns="http://www.w3.org/2000/svg">
<path d="M6.31857 148.192H3.39857C2.52496 148.239 1.65023 148.124 0.81857 147.852C0.55148 147.736 0.32864 147.538 0.18283 147.286C0.0370202 147.034 -0.0240616 146.742 0.00856986 146.452C0.01217 146.072 0.0970064 145.697 0.257397 145.352C0.417788 145.007 0.65003 144.7 0.93857 144.452C1.55465 143.867 2.27783 143.405 3.06857 143.092C5.26857 142.206 6.5819 141.449 7.00857 140.822C7.77256 139.518 8.42167 138.149 8.94857 136.732C11.0886 131.472 12.8752 128.842 14.3086 128.842C15.0352 128.842 15.4552 129.632 15.5686 131.212C15.6786 132.792 15.7486 133.992 15.7586 134.822C15.7686 135.652 15.7586 136.882 15.7586 138.522C15.7586 140.162 15.7086 141.302 15.7086 141.942L27.0886 141.992C28.095 141.958 29.0852 142.253 29.9086 142.832C30.274 143.089 30.5672 143.435 30.7598 143.838C30.9525 144.241 31.0382 144.687 31.0086 145.132C31.0244 145.557 30.9295 145.979 30.7331 146.356C30.5368 146.733 30.2457 147.052 29.8886 147.282C29.0555 147.818 28.0786 148.087 27.0886 148.052H15.6886V172.482C15.6886 179.402 17.4286 182.862 20.9086 182.862C22.3594 182.763 23.7896 182.463 25.1586 181.972C26.3472 181.538 27.5821 181.243 28.8386 181.092C30.1486 181.092 30.8386 181.842 30.8386 183.332C30.8386 184.512 29.3086 185.692 26.2286 186.872C23.2082 188.042 19.9974 188.642 16.7586 188.642C15.2769 188.697 13.8052 188.38 12.4777 187.719C11.1502 187.059 10.0091 186.077 9.15857 184.862C7.3319 182.356 6.41524 179.042 6.40857 174.922L6.31857 148.192Z" fill="#124787"/>
<path d="M53.6988 187.782H49.5888C45.4188 187.782 42.8288 187.142 41.8488 185.872C41.3943 185.276 41.1578 184.542 41.1788 183.792C41.1496 183.447 41.2244 183.1 41.3937 182.797C41.563 182.494 41.819 182.249 42.1288 182.092C42.7925 181.765 43.519 181.584 44.2588 181.562C45.027 181.535 45.7691 181.277 46.3888 180.822C46.7189 180.56 46.9786 180.22 47.1445 179.833C47.3103 179.445 47.3771 179.022 47.3388 178.602V152.922C47.3388 150.022 46.2088 148.462 43.9488 148.242C43.7288 148.242 43.4388 148.172 43.0888 148.142L42.3188 148.072L41.7288 147.972C41.5448 147.947 41.366 147.893 41.1988 147.812L40.8388 147.572C40.6188 147.412 40.5088 146.962 40.5088 146.212C40.5637 145.745 40.7201 145.295 40.9671 144.894C41.2141 144.493 41.5458 144.152 41.9388 143.892C44.0327 142.336 46.6034 141.558 49.2088 141.692C50.8661 141.591 52.5296 141.702 54.1588 142.022C54.6035 142.223 55.0287 142.464 55.4288 142.742C55.7931 143.047 56.0755 143.439 56.2501 143.88C56.4248 144.322 56.4862 144.801 56.4288 145.272V178.652C56.4288 180.506 57.4555 181.486 59.5088 181.592C61.5621 181.699 62.5921 182.519 62.5988 184.052C62.5988 185.802 61.5988 186.892 59.7288 187.302C57.7404 187.667 55.7199 187.828 53.6988 187.782ZM43.6988 127.782C43.731 127.021 43.9263 126.275 44.2713 125.595C44.6163 124.916 45.1031 124.318 45.6988 123.842C46.8919 122.682 48.4846 122.023 50.1488 122.002C51.8345 122.005 53.4813 122.51 54.8788 123.452C55.5686 123.848 56.1417 124.419 56.5403 125.108C56.9389 125.796 57.1488 126.577 57.1488 127.372C57.157 128.153 56.9885 128.926 56.656 129.632C56.3236 130.339 55.8356 130.961 55.2288 131.452C53.9274 132.564 52.2594 133.152 50.5488 133.102C48.82 133.141 47.1275 132.603 45.7388 131.572C45.1184 131.15 44.6096 130.584 44.256 129.922C43.9025 129.26 43.7147 128.523 43.7088 127.772L43.6988 127.782Z" fill="#124787"/>
<path d="M81.5783 207.382H77.4683C73.2883 207.382 70.7049 206.746 69.7183 205.472C69.2609 204.898 69.0108 204.187 69.0083 203.452C68.9819 203.101 69.0636 202.75 69.2423 202.446C69.421 202.142 69.6883 201.9 70.0083 201.752C70.6732 201.428 71.3989 201.248 72.1383 201.222C72.9045 201.201 73.6453 200.943 74.2583 200.482C74.5969 200.225 74.8657 199.887 75.0404 199.5C75.215 199.112 75.2899 198.687 75.2583 198.262V155.122C75.3413 153.523 75.1726 151.92 74.7583 150.372C74.5477 149.894 74.2356 149.468 73.8436 149.122C73.4516 148.777 72.9891 148.521 72.4883 148.372C72.3616 148.312 71.7216 148.152 70.5683 147.892C68.1783 147.322 66.9883 146.522 66.9883 145.502C66.9883 143.022 70.1916 141.779 76.5983 141.772C79.3116 141.772 81.2083 142.106 82.2883 142.772C83.3683 143.439 83.9083 144.809 83.9083 146.882C83.9083 147.522 83.9083 148.002 83.9083 148.322C86.0784 146.13 88.5788 144.291 91.3183 142.872C94.3006 141.521 97.5562 140.881 100.828 141.002C104.679 140.998 108.446 142.128 111.658 144.252C114.952 146.344 117.595 149.317 119.288 152.832C121.042 156.548 121.924 160.614 121.868 164.722C121.868 171.636 119.605 177.339 115.078 181.832C110.552 186.326 104.798 188.572 97.8183 188.572C93.8983 188.572 89.4183 187.282 84.3783 184.702V198.252C84.3783 200.099 85.4083 201.079 87.4683 201.192C89.5183 201.302 90.5483 202.122 90.5483 203.652C90.5483 205.412 89.5783 206.496 87.6383 206.902C85.6411 207.278 83.6096 207.438 81.5783 207.382ZM112.418 165.742C112.418 158.369 110.282 153.012 106.008 149.672C103.713 147.928 100.891 147.018 98.0083 147.092C88.8616 147.092 84.2849 152.242 84.2783 162.542V178.272C86.8649 181.606 91.3116 183.272 97.6183 183.272C99.6905 183.357 101.753 182.947 103.636 182.078C105.519 181.208 107.168 179.904 108.448 178.272C111.095 175.019 112.418 170.842 112.418 165.742Z" fill="#124787"/>
<path d="M138.009 207.382H133.899C129.719 207.382 127.136 206.746 126.149 205.472C125.693 204.877 125.456 204.142 125.479 203.392C125.453 203.041 125.534 202.69 125.713 202.386C125.892 202.082 126.159 201.84 126.479 201.692C127.144 201.368 127.87 201.188 128.609 201.162C129.375 201.141 130.116 200.883 130.729 200.422C131.068 200.165 131.336 199.827 131.511 199.44C131.686 199.052 131.761 198.627 131.729 198.202V155.122C131.812 153.523 131.643 151.92 131.229 150.372C131.018 149.894 130.706 149.468 130.314 149.122C129.922 148.777 129.46 148.521 128.959 148.372C128.826 148.312 128.186 148.152 127.039 147.892C124.649 147.322 123.459 146.522 123.459 145.502C123.459 143.022 126.662 141.779 133.069 141.772C135.782 141.772 137.679 142.106 138.759 142.772C139.839 143.439 140.379 144.809 140.379 146.882C140.379 147.522 140.379 148.002 140.379 148.322C142.549 146.13 145.049 144.291 147.789 142.872C150.771 141.521 154.027 140.881 157.299 141.002C161.106 141.012 164.828 142.131 168.009 144.222C171.303 146.314 173.946 149.287 175.639 152.802C177.392 156.518 178.275 160.584 178.219 164.692C178.219 171.606 175.956 177.309 171.429 181.802C166.902 186.296 161.149 188.542 154.169 188.542C150.249 188.542 145.769 187.252 140.729 184.672V198.252C140.729 200.099 141.759 201.079 143.819 201.192C145.819 201.302 146.899 202.122 146.899 203.652C146.899 205.412 145.929 206.496 143.989 206.902C142.018 207.272 140.014 207.433 138.009 207.382ZM168.849 165.742C168.849 158.369 166.712 153.012 162.439 149.672C160.143 147.928 157.321 147.018 154.439 147.092C145.286 147.092 140.709 152.242 140.709 162.542V178.272C143.302 181.606 147.749 183.272 154.049 183.272C156.121 183.357 158.184 182.947 160.067 182.078C161.95 181.208 163.599 179.904 164.879 178.272C167.519 175.019 168.839 170.842 168.839 165.742H168.849Z" fill="#124787"/>
<path d="M186.529 148.192H183.609C182.735 148.239 181.86 148.124 181.029 147.852C180.76 147.736 180.536 147.536 180.39 147.282C180.244 147.028 180.184 146.733 180.219 146.442C180.222 146.062 180.307 145.687 180.467 145.342C180.628 144.997 180.86 144.69 181.149 144.442C181.765 143.856 182.488 143.395 183.279 143.082C185.479 142.196 186.792 141.439 187.219 140.812C187.983 139.508 188.632 138.139 189.159 136.722C191.285 131.462 193.069 128.832 194.509 128.832C195.249 128.832 195.669 129.622 195.779 131.202C195.889 132.782 195.959 133.982 195.969 134.812C195.979 135.642 195.969 136.872 195.969 138.512C195.969 140.152 195.919 141.292 195.919 141.932L207.299 141.982C208.305 141.948 209.295 142.243 210.119 142.822C210.481 143.066 210.777 143.397 210.978 143.785C211.179 144.173 211.279 144.606 211.269 145.042C211.283 145.467 211.187 145.888 210.991 146.264C210.794 146.641 210.504 146.961 210.149 147.192C209.315 147.727 208.338 147.996 207.349 147.962H195.899V172.392C195.899 179.312 197.635 182.772 201.109 182.772C202.563 182.674 203.997 182.374 205.369 181.882C206.557 181.448 207.792 181.153 209.049 181.002C210.359 181.002 211.049 181.752 211.049 183.242C211.049 184.422 209.512 185.602 206.439 186.782C203.418 187.952 200.208 188.552 196.969 188.552C195.487 188.608 194.015 188.291 192.687 187.63C191.359 186.97 190.219 185.988 189.369 184.772C187.529 182.266 186.612 178.952 186.619 174.832L186.529 148.192Z" fill="#124787"/>
<path d="M56.9851 91.8124C55.453 90.7244 54.4154 89.0726 54.1004 87.2201C53.7853 85.3675 54.2187 83.4656 55.3051 81.9324C56.8151 79.8224 82.1851 50.3924 86.8251 44.7324C85.6212 43.3276 84.8855 41.5823 84.7206 39.7396C84.5557 37.8968 84.9698 36.0486 85.9051 34.4524L99.0451 15.9424C100.275 14.2024 101.775 12.5824 103.525 13.7824C103.924 14.1082 104.227 14.5358 104.403 15.0198C104.579 15.5038 104.622 16.0264 104.525 16.5324C104.488 16.7705 104.396 16.9965 104.255 17.1924L93.7951 32.2824C92.9551 33.4724 93.3951 33.9324 93.8751 34.2824C94.1451 34.4724 94.5951 34.7924 95.5051 33.5124L106.055 18.4524C106.465 17.9628 107.044 17.6455 107.678 17.5637C108.311 17.482 108.952 17.6417 109.472 18.0112C109.993 18.3807 110.356 18.9327 110.488 19.5575C110.62 20.1822 110.512 20.8337 110.185 21.3824L99.6351 36.4524C98.8351 37.5924 99.2051 38.0024 99.7351 38.3724C100.055 38.6024 100.395 38.8424 101.245 37.6424L111.895 22.6424C112.078 22.3819 112.312 22.1618 112.584 21.9957C112.855 21.8297 113.158 21.7212 113.473 21.6771C113.788 21.6331 114.109 21.6543 114.416 21.7395C114.722 21.8247 115.008 21.972 115.255 22.1724C116.585 23.1124 116.415 24.7924 114.745 27.1724L101.595 45.6324C100.392 47.033 98.783 48.0243 96.991 48.4687C95.199 48.9131 93.3131 48.7886 91.5951 48.1124C87.7751 54.3624 68.3651 88.0224 66.8551 90.1124C65.7704 91.6449 64.122 92.6845 62.2717 93.0032C60.4213 93.3219 58.5201 92.8937 56.9851 91.8124ZM102.545 15.2124C102.365 15.0824 101.925 14.7824 100.395 16.9324L87.2951 35.4524C86.5441 36.7779 86.2361 38.3086 86.416 39.8214C86.5959 41.3342 87.2542 42.75 88.2951 43.8624L89.1051 44.6324L88.6051 45.2424C88.2151 45.7124 58.2151 80.7624 56.6751 82.9324C56.2667 83.5076 55.9756 84.1576 55.8184 84.8453C55.6612 85.533 55.641 86.2449 55.7589 86.9404C55.8768 87.6359 56.1306 88.3014 56.5057 88.8988C56.8808 89.4963 57.37 90.014 57.9451 90.4224C58.5203 90.8308 59.1703 91.1219 59.858 91.2791C60.5457 91.4363 61.2577 91.4565 61.9532 91.3386C62.6487 91.2207 63.3142 90.9669 63.9116 90.5918C64.509 90.2167 65.0267 89.7276 65.4351 89.1524C66.9851 86.9824 90.1751 47.1524 90.4951 46.5824L90.9051 45.9024L91.9051 46.4124C93.2893 47.0404 94.8382 47.2084 96.3248 46.8917C97.8113 46.5749 99.1573 45.7901 100.165 44.6524L113.345 26.1324C114.345 24.7924 114.645 23.8024 114.265 23.5324C114.197 23.4661 114.117 23.4149 114.028 23.3821C113.939 23.3494 113.844 23.3359 113.749 23.3425C113.655 23.3491 113.563 23.3757 113.479 23.4205C113.396 23.4653 113.323 23.5273 113.265 23.6024L102.625 38.6024C101.095 40.7424 99.6251 40.4024 98.7251 39.7424C97.8251 39.0824 96.6051 37.7424 98.2251 35.4424L108.785 20.3824C108.995 20.0824 108.865 19.6724 108.475 19.3824C108.341 19.2528 108.162 19.1805 107.975 19.1805C107.789 19.1805 107.609 19.2528 107.475 19.3824L96.9051 34.4524C95.1851 36.8824 93.5251 36.0924 92.9051 35.6424C91.3851 34.5624 91.2151 32.9724 92.4251 31.2624L102.945 16.2624C102.974 16.0678 102.952 15.869 102.882 15.6852C102.812 15.5014 102.696 15.3386 102.545 15.2124Z" fill="#124787" stroke="#124787" stroke-width="0.25" stroke-miterlimit="10"/>
<path d="M104.446 92.6724C103.574 92.3495 102.774 91.8579 102.092 91.2258C101.41 90.5937 100.859 89.8334 100.47 88.9883C100.082 88.1433 99.8644 87.23 99.8293 86.3008C99.7941 85.3715 99.9424 84.4444 100.266 83.5724C101.166 81.1524 118.156 45.7324 121.036 39.3424C115.716 35.3424 114.436 29.3424 117.146 21.2424C118.719 17.257 121.225 13.7075 124.456 10.8924C128.336 7.56243 132.336 6.42243 135.716 7.67243C139.096 8.92243 141.346 12.3424 142.236 17.3724C142.978 21.6343 142.676 26.0128 141.356 30.1324C138.356 38.3224 133.356 42.1324 126.586 41.4524C124.586 48.2824 114.446 86.0724 113.586 88.4524C113.266 89.332 112.775 90.1395 112.141 90.8283C111.508 91.5172 110.744 92.0739 109.895 92.4662C109.045 92.8585 108.126 93.0787 107.191 93.1141C106.255 93.1495 105.322 92.9994 104.446 92.6724ZM135.116 9.27243C132.346 8.27243 128.956 9.27243 125.576 12.1924C122.564 14.8042 120.228 18.1043 118.766 21.8124C116.286 29.2624 117.446 34.6224 122.336 38.1824L123.146 38.8224L122.866 39.4324C122.626 39.9824 102.786 81.6824 101.866 84.1724C101.371 85.5091 101.428 86.9876 102.023 88.2825C102.618 89.5774 103.704 90.5828 105.041 91.0774C106.377 91.5721 107.856 91.5154 109.151 90.92C110.446 90.3246 111.451 89.2391 111.946 87.9024C112.866 85.4124 124.946 40.9024 125.136 40.2924L125.336 39.6324L126.466 39.7224C132.466 40.4424 136.976 37.0224 139.746 29.5524C142.056 22.9424 141.136 11.5024 135.116 9.27243Z" fill="#124787" stroke="#124787" stroke-width="0.25" stroke-miterlimit="10"/>
<path d="M149.235 93.1224C147.356 93.1198 145.555 92.3716 144.228 91.0423C142.9 89.7129 142.155 87.9111 142.155 86.0324C142.155 83.5224 147.085 56.6724 148.005 50.2224H143.065C142.862 50.2296 142.661 50.1962 142.472 50.124C142.283 50.0519 142.11 49.9425 141.965 49.8024C141.811 49.6587 141.689 49.4853 141.605 49.2928C141.52 49.1002 141.476 48.8926 141.475 48.6824C141.475 47.4824 141.475 36.4224 143.265 15.5924C144.485 1.46241 148.915 0.592407 151.015 0.592407C151.996 0.651277 152.918 1.08442 153.589 1.80257C154.261 2.52072 154.632 3.46915 154.625 4.45241C154.705 8.33241 156.315 83.5524 156.315 85.9924C156.319 86.9256 156.138 87.8505 155.785 88.7141C155.431 89.5776 154.91 90.363 154.253 91.0252C153.595 91.6874 152.814 92.2135 151.952 92.5734C151.091 92.9332 150.168 93.1198 149.235 93.1224ZM143.185 48.5124H149.975L149.835 49.5124C147.775 63.8924 143.835 83.9824 143.835 86.0524C143.835 87.4766 144.4 88.8425 145.407 89.8496C146.415 90.8566 147.78 91.4224 149.205 91.4224C150.629 91.4224 151.995 90.8566 153.002 89.8496C154.009 88.8425 154.575 87.4766 154.575 86.0524C154.575 83.6224 152.905 5.46241 152.885 4.53241C152.885 3.96241 152.415 2.32241 150.985 2.32241C147.115 2.32241 145.435 10.0124 144.985 15.7624C143.305 35.7424 143.195 46.6824 143.185 48.5124Z" fill="#124787" stroke="#124787" stroke-width="0.25" stroke-miterlimit="10"/>
</svg>
