<svg width="691" height="615" viewBox="0 0 691 615" fill="none" xmlns="http://www.w3.org/2000/svg">
<path d="M19.427 114.194L6.14629 120.004V121H46.9846V120.004L33.7038 114.194V15.7501L46.9846 9.93973V8.94367H6.14629V9.93973L19.427 15.7501V114.194ZM124.613 60.5726C124.613 39.4894 113.325 32.517 99.712 32.517C96.3918 32.517 87.9254 38.1613 78.6288 49.45C76.3047 33.5131 73.1505 32.351 69.8303 32.351C63.688 32.351 55.3875 44.4697 47.7511 51.7741L48.2491 52.6041L66.3441 42.6436V115.522L52.7314 120.004V121H92.9056V120.004L79.2929 115.522V53.4342C83.4431 47.7899 89.0874 42.3116 95.2298 42.3116C103.696 42.3116 111.665 47.7899 111.665 60.9046V115.522L98.0519 120.004V121H138.226V120.004L124.613 115.522V60.5726ZM182.905 107.221C176.762 112.7 173.608 113.53 170.122 113.53C163.482 113.53 160.327 109.877 160.327 102.739V37.4973C169.79 38.4933 178.589 39.8214 182.407 39.8214V34.0111H160.327L160.66 14.256H159.829L148.043 34.0111H134.264V35.0071L147.379 37.8293L147.545 104.067C147.545 116.518 153.189 122.826 162.32 122.826C165.972 122.826 175.6 116.684 183.569 108.051L182.905 107.221ZM246.292 106.723C240.98 109.877 236.663 112.7 229.857 112.7C208.774 112.7 195.327 95.2685 194.663 70.2011H231.019C234.007 70.2011 245.794 63.0627 245.794 59.9085C245.628 43.4736 238.987 32.019 220.56 32.019C213.09 32.019 184.038 43.3076 184.038 80.1617C184.038 108.383 201.303 122.826 222.386 122.826C227.367 122.826 236.497 116.684 246.956 107.885L246.292 106.723ZM215.58 39.1574C225.541 39.1574 234.173 48.1219 233.011 67.213H194.663C195.161 43.9717 206.948 39.1574 215.58 39.1574ZM318.655 39.9874C316.829 41.1495 315.335 42.3116 313.011 42.3116C307.2 42.3116 298.568 32.185 293.754 32.185C291.928 32.185 282.963 42.6436 277.319 51.2761C274.995 33.6791 271.84 32.351 268.354 32.351C262.212 32.351 253.911 44.4697 246.275 51.7741L246.773 52.6041L264.868 42.6436V115.522L251.255 120.004V121H291.43V120.004L277.817 115.522V55.9243C280.971 49.948 285.453 43.6396 288.939 43.6396C294.75 43.6396 300.726 52.9362 306.536 52.9362C311.517 52.9362 316.165 44.1377 319.153 40.4855L318.655 39.9874ZM368.829 111.869V102.573L369.991 58.7465C370.655 45.7978 366.837 31.687 347.58 31.687C341.105 31.687 320.188 41.3155 308.235 72.5253L308.733 72.8573L324.504 65.7189C322.678 49.948 329.153 39.4894 341.437 39.4894C354.552 39.3234 356.378 51.4421 356.212 64.8888L343.927 72.3593C327.492 83.1499 311.058 95.2685 311.058 108.715C311.058 117.016 316.702 122.826 327.824 122.826C339.777 122.826 347.082 116.352 356.212 102.739C358.536 120.834 361.856 122.328 365.343 122.328C371.485 122.328 379.785 110.209 387.422 102.739L386.924 101.909L368.829 111.869ZM335.129 114.194C329.651 114.194 325.5 110.209 325.5 103.071C325.5 92.4464 334.963 82.1538 356.212 68.707L355.88 98.7547C348.41 109.545 340.939 114.194 335.129 114.194ZM423.176 122.826C428.156 122.826 437.453 116.518 447.911 107.719L447.247 106.723C441.935 109.711 437.619 112.7 430.813 112.7C409.563 112.7 395.453 93.9405 395.453 68.209C395.453 43.9717 407.571 39.1574 416.204 39.1574C427.326 39.1574 435.793 50.778 433.303 65.3869L433.967 65.7189L447.579 52.2721C447.413 44.9677 439.611 32.019 421.35 32.019C413.88 32.019 384.994 43.3076 384.994 80.1617C384.994 108.383 402.093 122.826 423.176 122.826ZM494.27 107.221C488.127 112.7 484.973 113.53 481.487 113.53C474.847 113.53 471.692 109.877 471.692 102.739V37.4973C481.155 38.4933 489.953 39.8214 493.772 39.8214V34.0111H471.692L472.024 14.256H471.194L459.408 34.0111H445.629V35.0071L458.744 37.8293L458.91 104.067C458.91 116.518 464.554 122.826 473.684 122.826C477.337 122.826 486.965 116.684 494.934 108.051L494.27 107.221ZM511.564 17.4102C516.545 17.4102 520.197 13.7579 520.197 8.61165C520.197 3.96339 516.545 0.145172 511.564 0.145172C506.418 0.145172 502.6 3.96339 502.6 8.61165C502.6 13.7579 506.418 17.4102 511.564 17.4102ZM505.588 115.522L491.975 120.004V121H532.15V120.004L518.537 115.522L518.703 39.8214V34.0111H491.975V35.0071L505.588 39.8214V115.522ZM567.316 122.826C574.787 122.826 600.85 111.869 600.85 74.0193C600.85 46.4618 584.747 32.351 565.822 32.351C558.352 32.351 532.288 43.4736 532.288 81.1577C532.288 108.715 548.391 122.826 567.316 122.826ZM573.459 115.024C557.19 115.522 545.071 98.9208 543.245 73.3553C541.585 47.2918 552.375 40.4855 559.68 40.1534C575.949 39.6554 588.067 56.2563 589.728 81.8218C591.554 107.885 580.763 114.692 573.459 115.024ZM676.737 60.5726C676.737 39.4894 665.449 32.517 651.836 32.517C648.516 32.517 640.049 38.1613 630.753 49.45C628.429 33.5131 625.274 32.351 621.954 32.351C615.812 32.351 607.511 44.4697 599.875 51.7741L600.373 52.6041L618.468 42.6436V115.522L604.855 120.004V121H645.029V120.004L631.417 115.522V53.4342C635.567 47.7899 641.211 42.3116 647.354 42.3116C655.82 42.3116 663.789 47.7899 663.789 60.9046V115.522L650.176 120.004V121H690.35V120.004L676.737 115.522V60.5726ZM42.3363 158.944H6.14629V159.94L19.095 166.082V263.862L6.14629 270.004V271H38.3521C84.1707 271 98.7795 239.956 98.7795 213.395C98.7795 177.703 77.8623 158.944 42.3363 158.944ZM33.0398 268.012V161.932H38.8501C70.7239 161.932 84.0047 182.185 84.0047 214.889C84.0047 249.585 70.8899 267.68 38.1861 268.012H33.0398ZM166.685 256.723C161.373 259.877 157.057 262.7 150.25 262.7C129.167 262.7 115.72 245.269 115.056 220.201H151.412C154.4 220.201 166.187 213.063 166.187 209.909C166.021 193.474 159.381 182.019 140.954 182.019C133.483 182.019 104.432 193.308 104.432 230.162C104.432 258.383 121.697 272.826 142.78 272.826C147.76 272.826 156.891 266.684 167.349 257.885L166.685 256.723ZM135.973 189.157C145.934 189.157 154.566 198.122 153.404 217.213H115.056C115.554 193.972 127.341 189.157 135.973 189.157ZM202.692 217.379C192.234 211.901 183.435 206.754 183.435 197.79C183.435 191.482 187.585 186.335 196.218 186.335C212.819 186.335 223.443 201.774 227.926 220.201H229.088L229.254 182.517H228.258L223.942 188.161C218.463 183.347 210.163 181.687 203.688 181.687C187.751 181.687 176.463 191.315 176.463 205.592C176.463 218.043 185.593 224.351 196.882 230.328L204.186 234.644C218.297 241.948 226.432 247.593 226.432 256.059C226.432 263.696 220.621 268.012 212.985 268.012C202.858 268.012 180.779 261.371 173.641 230.494H172.313L176.795 268.012C185.261 268.676 193.23 272.826 204.85 272.826C224.274 272.826 232.74 261.371 232.74 248.921C232.74 234.976 221.949 228.17 210.163 221.861L202.692 217.379ZM254.996 167.41C259.976 167.41 263.628 163.758 263.628 158.612C263.628 153.963 259.976 150.145 254.996 150.145C249.849 150.145 246.031 153.963 246.031 158.612C246.031 163.758 249.849 167.41 254.996 167.41ZM249.019 265.522L235.407 270.004V271H275.581V270.004L261.968 265.522L262.134 189.821V184.011H235.407V185.007L249.019 189.821V265.522ZM361.048 184.011H341.625C330.171 184.011 316.558 181.687 312.74 181.687C305.767 181.687 283.356 193.142 283.356 214.225C283.356 224.351 287.174 231.656 293.649 236.304C284.85 246.099 275.72 253.403 275.72 255.063C275.72 264.692 284.85 270.004 295.973 271.498C277.38 287.601 272.897 291.253 273.063 293.079C274.391 306.194 292.154 313.664 311.08 313.664C348.598 313.664 353.412 285.775 353.412 279.798C353.412 265.356 338.969 263.364 328.511 262.7L301.451 260.707C290.992 260.043 287.672 255.229 287.672 250.083C287.672 245.435 291.656 241.782 295.807 237.798C300.787 240.786 307.261 242.28 314.234 242.28C321.372 242.28 343.617 230.494 343.617 209.577C343.617 200.28 339.633 191.814 330.005 186.335L330.171 185.837C339.467 187.829 352.914 189.489 361.048 189.489V184.011ZM332.495 214.557C333.823 230.162 326.186 235.806 316.89 235.806C305.103 235.806 295.143 225.181 293.981 209.743C292.819 193.972 300.455 188.493 308.755 188.327C321.538 188.327 331.333 198.786 332.495 214.557ZM349.428 287.435C349.428 296.233 338.637 304.368 320.542 304.368C301.451 304.368 286.012 297.229 286.012 287.933C286.012 283.119 290.826 277.806 298.961 271.83L320.708 273.324C334.653 274.486 349.428 276.976 349.428 287.435ZM427.464 210.573C427.464 189.489 416.175 182.517 402.562 182.517C399.242 182.517 390.776 188.161 381.479 199.45C379.155 183.513 376.001 182.351 372.681 182.351C366.538 182.351 358.238 194.47 350.601 201.774L351.099 202.604L369.194 192.644V265.522L355.582 270.004V271H395.756V270.004L382.143 265.522V203.434C386.293 197.79 391.938 192.312 398.08 192.312C406.547 192.312 414.515 197.79 414.515 210.905V265.522L400.902 270.004V271H441.077V270.004L427.464 265.522V210.573ZM502.854 256.723C497.542 259.877 493.226 262.7 486.419 262.7C465.336 262.7 451.889 245.269 451.225 220.201H487.581C490.569 220.201 502.356 213.063 502.356 209.909C502.19 193.474 495.55 182.019 477.123 182.019C469.652 182.019 440.601 193.308 440.601 230.162C440.601 258.383 457.866 272.826 478.949 272.826C483.929 272.826 493.06 266.684 503.518 257.885L502.854 256.723ZM472.142 189.157C482.103 189.157 490.735 198.122 489.573 217.213H451.225C451.723 193.972 463.51 189.157 472.142 189.157ZM575.217 189.987C573.391 191.149 571.897 192.312 569.573 192.312C563.763 192.312 555.13 182.185 550.316 182.185C548.49 182.185 539.525 192.644 533.881 201.276C531.557 183.679 528.403 182.351 524.916 182.351C518.774 182.351 510.474 194.47 502.837 201.774L503.335 202.604L521.43 192.644V265.522L507.818 270.004V271H547.992V270.004L534.379 265.522V205.924C537.533 199.948 542.015 193.64 545.502 193.64C551.312 193.64 557.288 202.936 563.099 202.936C568.079 202.936 572.727 194.138 575.715 190.485L575.217 189.987Z" fill="#222222"/>
<path d="M92.1391 346.517L91.6411 347.015C90.313 358.304 84.8347 370.588 77.1983 381.047L44.8265 305.015H63.0875C83.0086 305.015 81.1825 314.477 82.6766 334.896L83.3407 335.56L91.6411 302.524L91.3091 302.026H29.8856V302.358L46.6526 342.367C34.3679 349.007 10.9606 360.794 5.15023 384.201C0.335962 403.956 12.2886 416.075 27.3955 416.075C40.6762 416.075 55.1191 406.778 68.3998 393.83L75.0402 409.767L63.0875 413.087L62.7555 414.083H90.8111V413.253L78.1944 383.371C89.317 370.422 99.1115 355.481 105.752 342.699L106.084 341.537L92.1391 346.517ZM37.8541 407.608C23.5773 407.608 13.1187 395.324 17.933 376.233C22.2492 358.802 38.0201 351.663 47.9807 345.521L67.7358 392.17C58.2732 401.466 47.6486 407.608 37.8541 407.608Z" fill="#222222"/>
<path d="M184.215 415.66C188.531 415.66 205.298 406.696 215.757 399.723L215.093 398.229C209.116 401.549 202.808 405.202 193.345 405.202C163.796 405.202 146.863 376.482 147.527 345.438C148.191 312.07 169.44 307.92 177.906 307.92C192.847 307.92 208.12 316.885 206.128 338.3H207.124L218.745 317.383C214.595 308.584 203.14 300.118 184.049 300.118C176.744 300.118 137.068 312.568 136.238 357.557C135.74 390.925 156.657 415.494 184.215 415.66ZM288.965 332.987C287.139 334.149 285.645 335.312 283.321 335.312C277.511 335.312 268.878 325.185 264.064 325.185C262.238 325.185 253.273 335.644 247.629 344.276C245.305 326.679 242.151 325.351 238.665 325.351C232.522 325.351 224.222 337.47 216.585 344.774L217.083 345.604L235.178 335.644V408.522L221.566 413.004V414H261.74V413.004L248.127 408.522V348.924C251.281 342.948 255.764 336.64 259.25 336.64C265.06 336.64 271.036 345.936 276.847 345.936C281.827 345.936 286.475 337.138 289.463 333.485L288.965 332.987ZM345.007 399.723C339.694 402.877 335.378 405.7 328.572 405.7C307.488 405.7 294.042 388.269 293.378 363.201H329.734C332.722 363.201 344.509 356.063 344.509 352.909C344.342 336.474 337.702 325.019 319.275 325.019C311.805 325.019 282.753 336.308 282.753 373.162C282.753 401.383 300.018 415.826 321.101 415.826C326.081 415.826 335.212 409.684 345.671 400.885L345.007 399.723ZM314.295 332.157C324.255 332.157 332.888 341.122 331.726 360.213H293.378C293.876 336.972 305.662 332.157 314.295 332.157ZM410.231 404.869V395.573L411.393 351.746C412.057 338.798 408.239 324.687 388.982 324.687C382.508 324.687 361.591 334.315 349.638 365.525L350.136 365.857L365.907 358.719C364.081 342.948 370.555 332.489 382.84 332.489C395.955 332.323 397.781 344.442 397.615 357.889L385.33 365.359C368.895 376.15 352.46 388.269 352.46 401.715C352.46 410.016 358.104 415.826 369.227 415.826C381.18 415.826 388.484 409.352 397.615 395.739C399.939 413.834 403.259 415.328 406.745 415.328C412.888 415.328 421.188 403.209 428.824 395.739L428.326 394.909L410.231 404.869ZM376.531 407.194C371.053 407.194 366.903 403.209 366.903 396.071C366.903 385.446 376.365 375.154 397.615 361.707L397.283 391.755C389.812 402.545 382.342 407.194 376.531 407.194ZM471.227 400.221C465.084 405.7 461.93 406.53 458.444 406.53C451.804 406.53 448.65 402.877 448.65 395.739V330.497C458.112 331.493 466.911 332.821 470.729 332.821V327.011H448.65L448.982 307.256H448.152L436.365 327.011H422.586V328.007L435.701 330.829L435.867 397.067C435.867 409.518 441.511 415.826 450.642 415.826C454.294 415.826 463.922 409.684 471.891 401.051L471.227 400.221ZM488.522 310.41C493.502 310.41 497.154 306.758 497.154 301.612C497.154 296.963 493.502 293.145 488.522 293.145C483.375 293.145 479.557 296.963 479.557 301.612C479.557 306.758 483.375 310.41 488.522 310.41ZM482.545 408.522L468.933 413.004V414H509.107V413.004L495.494 408.522L495.66 332.821V327.011H468.933V328.007L482.545 332.821V408.522ZM548.922 328.007C564.029 333.651 566.851 338.798 557.72 364.529L545.934 397.233H544.938L521.198 332.821L534.811 328.007V327.011H506.091V328.007L539.957 418.316H540.787L575.317 328.007V327.011H548.922V328.007ZM636.755 399.723C631.443 402.877 627.126 405.7 620.32 405.7C599.237 405.7 585.79 388.269 585.126 363.201H621.482C624.47 363.201 636.257 356.063 636.257 352.909C636.091 336.474 629.451 325.019 611.024 325.019C603.553 325.019 574.502 336.308 574.502 373.162C574.502 401.383 591.766 415.826 612.85 415.826C617.83 415.826 626.96 409.684 637.419 400.885L636.755 399.723ZM606.043 332.157C616.004 332.157 624.636 341.122 623.474 360.213H585.126C585.624 336.972 597.411 332.157 606.043 332.157Z" fill="#222222"/>
<path d="M42.3363 444.944H6.14629V445.94L19.095 452.082V549.862L6.14629 556.004V557H38.3521C84.1707 557 98.7795 525.956 98.7795 499.395C98.7795 463.703 77.8623 444.944 42.3363 444.944ZM33.0398 554.012V447.932H38.8501C70.7239 447.932 84.0047 468.185 84.0047 500.889C84.0047 535.585 70.8899 553.68 38.1861 554.012H33.0398ZM166.685 542.723C161.373 545.877 157.057 548.7 150.25 548.7C129.167 548.7 115.72 531.269 115.056 506.201H151.412C154.4 506.201 166.187 499.063 166.187 495.909C166.021 479.474 159.381 468.019 140.954 468.019C133.483 468.019 104.432 479.308 104.432 516.162C104.432 544.383 121.697 558.826 142.78 558.826C147.76 558.826 156.891 552.684 167.349 543.885L166.685 542.723ZM135.973 475.157C145.934 475.157 154.566 484.122 153.404 503.213H115.056C115.554 479.972 127.341 475.157 135.973 475.157ZM210.337 471.007C225.443 476.651 228.266 481.798 219.135 507.529L207.348 540.233H206.352L182.613 475.821L196.226 471.007V470.011H167.506V471.007L201.372 561.316H202.202L236.732 471.007V470.011H210.337V471.007ZM298.17 542.723C292.857 545.877 288.541 548.7 281.735 548.7C260.652 548.7 247.205 531.269 246.541 506.201H282.897C285.885 506.201 297.672 499.063 297.672 495.909C297.506 479.474 290.865 468.019 272.438 468.019C264.968 468.019 235.916 479.308 235.916 516.162C235.916 544.383 253.181 558.826 274.264 558.826C279.245 558.826 288.375 552.684 298.834 543.885L298.17 542.723ZM267.458 475.157C277.419 475.157 286.051 484.122 284.889 503.213H246.541C247.039 479.972 258.826 475.157 267.458 475.157ZM326.05 551.522V430.667H325.054L297.663 437.473V438.469L313.101 438.967V551.522L299.489 556.004V557H339.663V556.004L326.05 551.522ZM375.031 558.826C382.501 558.826 408.565 547.869 408.565 510.019C408.565 482.462 392.462 468.351 373.537 468.351C366.066 468.351 340.003 479.474 340.003 517.158C340.003 544.715 356.106 558.826 375.031 558.826ZM381.173 551.024C364.904 551.522 352.786 534.921 350.959 509.355C349.299 483.292 360.09 476.485 367.394 476.153C383.663 475.655 395.782 492.256 397.442 517.822C399.268 543.885 388.478 550.692 381.173 551.024ZM456.728 468.517C454.404 468.517 444.609 476.319 436.475 484.62C434.317 469.679 431.163 468.351 428.009 468.351C421.866 468.351 413.566 480.47 405.763 487.774L406.261 488.604L424.522 478.81V593.024L410.91 597.506V598.502H451.084V597.506L437.471 593.024V555.174C441.289 556.502 446.436 557.498 453.74 557.498C460.546 557.498 488.436 545.213 488.436 508.359C488.436 482.462 474.657 469.181 456.728 468.517ZM453.906 551.854C446.768 551.854 441.289 548.866 437.471 544.881V488.106C440.957 483.126 446.436 478.478 453.906 478.478C467.685 478.478 476.483 494.58 476.483 517.49C476.483 546.043 463.701 551.854 453.906 551.854ZM554.006 542.723C548.693 545.877 544.377 548.7 537.571 548.7C516.488 548.7 503.041 531.269 502.377 506.201H538.733C541.721 506.201 553.508 499.063 553.508 495.909C553.342 479.474 546.701 468.019 528.274 468.019C520.804 468.019 491.752 479.308 491.752 516.162C491.752 544.383 509.017 558.826 530.1 558.826C535.081 558.826 544.211 552.684 554.67 543.885L554.006 542.723ZM523.294 475.157C533.255 475.157 541.887 484.122 540.725 503.213H502.377C502.875 479.972 514.662 475.157 523.294 475.157ZM626.369 475.987C624.543 477.149 623.049 478.312 620.725 478.312C614.914 478.312 606.282 468.185 601.468 468.185C599.641 468.185 590.677 478.644 585.033 487.276C582.708 469.679 579.554 468.351 576.068 468.351C569.926 468.351 561.625 480.47 553.989 487.774L554.487 488.604L572.582 478.644V551.522L558.969 556.004V557H599.143V556.004L585.531 551.522V491.924C588.685 485.948 593.167 479.64 596.653 479.64C602.464 479.64 608.44 488.936 614.25 488.936C619.231 488.936 623.879 480.138 626.867 476.485L626.369 475.987Z" fill="#222222"/>
</svg>
