<svg width="1680" height="466" viewBox="0 0 1680 466" fill="none" xmlns="http://www.w3.org/2000/svg">
<path d="M24.9255 176.163L7.6819 183.707V185H60.706V183.707L43.4624 176.163V48.3445L60.706 40.8004V39.5071H7.6819V40.8004L24.9255 48.3445V176.163ZM161.499 106.542C161.499 79.1674 146.841 70.1145 129.167 70.1145C124.856 70.1145 113.863 77.443 101.793 92.1001C98.7749 71.4078 94.6796 69.899 90.3687 69.899C82.3935 69.899 71.6162 85.6338 61.7012 95.1177L62.3478 96.1955L85.8422 83.2628V177.887L68.1675 183.707V185H120.329V183.707L102.655 177.887V97.2732C108.043 89.9447 115.372 82.8317 123.347 82.8317C134.34 82.8317 144.686 89.9447 144.686 106.973V177.887L127.011 183.707V185H179.173V183.707L161.499 177.887V106.542ZM237.183 167.11C229.208 174.223 225.113 175.3 220.586 175.3C211.965 175.3 207.869 170.558 207.869 161.29V76.5809C220.155 77.8741 231.579 79.5985 236.537 79.5985V72.0544H207.869L208.3 46.4046H207.223L191.919 72.0544H174.029V73.3477L191.057 77.0119L191.272 163.014C191.272 179.18 198.601 187.371 210.456 187.371C215.198 187.371 227.699 179.396 238.046 168.187L237.183 167.11ZM319.485 166.463C312.587 170.558 306.983 174.223 298.146 174.223C270.771 174.223 253.312 151.591 252.45 119.043H299.654C303.534 119.043 318.838 109.775 318.838 105.679C318.622 84.3405 310.001 69.4679 286.075 69.4679C276.376 69.4679 238.655 84.1249 238.655 131.976C238.655 168.619 261.072 187.371 288.446 187.371C294.912 187.371 306.767 179.396 320.347 167.972L319.485 166.463ZM279.609 78.7363C292.541 78.7363 303.75 90.3757 302.241 115.163H252.45C253.097 84.9871 268.4 78.7363 279.609 78.7363ZM413.44 79.814C411.069 81.3228 409.129 82.8317 406.112 82.8317C398.568 82.8317 387.359 69.6834 381.109 69.6834C378.738 69.6834 367.098 83.2628 359.77 94.4711C356.752 71.6233 352.657 69.899 348.13 69.899C340.155 69.899 329.378 85.6338 319.463 95.1177L320.109 96.1955L343.604 83.2628V177.887L325.929 183.707V185H378.091V183.707L360.416 177.887V100.506C364.512 92.7467 370.331 84.556 374.858 84.556C382.402 84.556 390.161 96.6265 397.706 96.6265C404.172 96.6265 410.207 85.2027 414.087 80.4607L413.44 79.814ZM478.585 173.145V161.075L480.094 104.171C480.956 87.3581 475.999 69.0368 450.996 69.0368C442.589 69.0368 415.431 81.5384 399.911 122.061L400.558 122.492L421.035 113.224C418.664 92.7467 427.07 79.1674 443.02 79.1674C460.049 78.9519 462.42 94.6866 462.204 112.146L446.254 121.845C424.915 135.856 403.576 151.591 403.576 169.05C403.576 179.827 410.904 187.371 425.346 187.371C440.865 187.371 450.349 178.965 462.204 161.29C465.222 184.784 469.533 186.724 474.059 186.724C482.034 186.724 492.811 170.99 502.726 161.29L502.08 160.212L478.585 173.145ZM434.83 176.163C427.717 176.163 422.328 170.99 422.328 161.721C422.328 147.926 434.614 134.562 462.204 117.103L461.773 156.117C452.073 170.127 442.374 176.163 434.83 176.163ZM549.149 187.371C555.616 187.371 567.686 179.18 581.266 167.756L580.403 166.463C573.506 170.343 567.902 174.223 559.065 174.223C531.475 174.223 513.153 149.866 513.153 116.457C513.153 84.9871 528.888 78.7363 540.097 78.7363C554.538 78.7363 565.531 93.8245 562.298 112.792L563.16 113.224L580.835 95.7644C580.619 86.2804 570.488 69.4679 546.778 69.4679C537.079 69.4679 499.574 84.1249 499.574 131.976C499.574 168.619 521.775 187.371 549.149 187.371ZM641.457 167.11C633.481 174.223 629.386 175.3 624.86 175.3C616.238 175.3 612.142 170.558 612.142 161.29V76.5809C624.429 77.8741 635.852 79.5985 640.81 79.5985V72.0544H612.142L612.574 46.4046H611.496L596.192 72.0544H578.302V73.3477L595.33 77.0119L595.546 163.014C595.546 179.18 602.874 187.371 614.729 187.371C619.471 187.371 631.973 179.396 642.319 168.187L641.457 167.11ZM663.912 50.4999C670.378 50.4999 675.12 45.7579 675.12 39.076C675.12 33.0408 670.378 28.0832 663.912 28.0832C657.23 28.0832 652.273 33.0408 652.273 39.076C652.273 45.7579 657.23 50.4999 663.912 50.4999ZM656.152 177.887L638.478 183.707V185H690.64V183.707L672.965 177.887L673.18 79.5985V72.0544H638.478V73.3477L656.152 79.5985V177.887ZM736.3 187.371C745.999 187.371 779.84 173.145 779.84 124.001C779.84 88.2203 758.932 69.899 734.36 69.899C724.66 69.899 690.82 84.3405 690.82 133.269C690.82 169.05 711.728 187.371 736.3 187.371ZM744.275 177.24C723.152 177.887 707.417 156.333 705.046 123.139C702.89 89.298 716.901 80.4607 726.385 80.0296C747.508 79.3829 763.243 100.937 765.398 134.131C767.769 167.972 753.759 176.809 744.275 177.24ZM878.371 106.542C878.371 79.1674 863.714 70.1145 846.039 70.1145C841.728 70.1145 830.735 77.443 818.665 92.1001C815.647 71.4078 811.552 69.899 807.241 69.899C799.266 69.899 788.489 85.6338 778.574 95.1177L779.22 96.1955L802.715 83.2628V177.887L785.04 183.707V185H837.202V183.707L819.527 177.887V97.2732C824.916 89.9447 832.244 82.8317 840.219 82.8317C851.212 82.8317 861.558 89.9447 861.558 106.973V177.887L843.884 183.707V185H896.046V183.707L878.371 177.887V106.542ZM983.207 39.5071H936.218V40.8004L953.03 48.7756V175.732L936.218 183.707V185H978.033C1037.52 185 1056.49 144.693 1056.49 110.206C1056.49 63.8637 1029.33 39.5071 983.207 39.5071ZM971.136 181.12V43.3869H978.68C1020.06 43.3869 1037.31 69.6834 1037.31 112.146C1037.31 157.195 1020.28 180.689 977.818 181.12H971.136ZM1144.66 166.463C1137.76 170.558 1132.16 174.223 1123.32 174.223C1095.95 174.223 1078.49 151.591 1077.63 119.043H1124.83C1128.71 119.043 1144.01 109.775 1144.01 105.679C1143.8 84.3405 1135.18 69.4679 1111.25 69.4679C1101.55 69.4679 1063.83 84.1249 1063.83 131.976C1063.83 168.619 1086.25 187.371 1113.62 187.371C1120.09 187.371 1131.94 179.396 1145.52 167.972L1144.66 166.463ZM1104.78 78.7363C1117.72 78.7363 1128.93 90.3757 1127.42 115.163H1077.63C1078.27 84.9871 1093.58 78.7363 1104.78 78.7363ZM1191.41 115.379C1177.83 108.266 1166.41 101.584 1166.41 89.9447C1166.41 81.7539 1171.8 75.072 1183.01 75.072C1204.56 75.072 1218.35 95.1177 1224.17 119.043H1225.68L1225.9 70.1145H1224.61L1219 77.443C1211.89 71.1922 1201.11 69.0368 1192.7 69.0368C1172.01 69.0368 1157.36 81.5384 1157.36 100.075C1157.36 116.241 1169.21 124.432 1183.87 132.191L1193.35 137.796C1211.67 147.28 1222.23 154.608 1222.23 165.601C1222.23 175.516 1214.69 181.12 1204.78 181.12C1191.63 181.12 1162.96 172.498 1153.69 132.407H1151.97L1157.79 181.12C1168.78 181.982 1179.13 187.371 1194.21 187.371C1219.43 187.371 1230.42 172.498 1230.42 156.333C1230.42 138.227 1216.41 129.389 1201.11 121.199L1191.41 115.379ZM1259.32 50.4999C1265.79 50.4999 1270.53 45.7579 1270.53 39.076C1270.53 33.0408 1265.79 28.0832 1259.32 28.0832C1252.64 28.0832 1247.68 33.0408 1247.68 39.076C1247.68 45.7579 1252.64 50.4999 1259.32 50.4999ZM1251.56 177.887L1233.89 183.707V185H1286.05V183.707L1268.37 177.887L1268.59 79.5985V72.0544H1233.89V73.3477L1251.56 79.5985V177.887ZM1397.02 72.0544H1371.8C1356.93 72.0544 1339.25 69.0368 1334.3 69.0368C1325.24 69.0368 1296.14 83.9094 1296.14 111.284C1296.14 124.432 1301.1 133.916 1309.51 139.951C1298.08 152.668 1286.23 162.152 1286.23 164.308C1286.23 176.809 1298.08 183.707 1312.53 185.647C1288.38 206.555 1282.56 211.296 1282.78 213.667C1284.5 230.696 1307.57 240.395 1332.14 240.395C1380.85 240.395 1387.1 204.184 1387.1 196.424C1387.1 177.671 1368.35 175.085 1354.77 174.223L1319.64 171.636C1306.06 170.774 1301.75 164.523 1301.75 157.841C1301.75 151.806 1306.92 147.064 1312.31 141.891C1318.78 145.771 1327.18 147.711 1336.24 147.711C1345.5 147.711 1374.39 132.407 1374.39 105.248C1374.39 93.1778 1369.21 82.185 1356.71 75.072L1356.93 74.4254C1369 77.0119 1386.46 79.1674 1397.02 79.1674V72.0544ZM1359.95 111.715C1361.67 131.976 1351.75 139.304 1339.68 139.304C1324.38 139.304 1311.45 125.51 1309.94 105.464C1308.43 84.9871 1318.35 77.8741 1329.12 77.6586C1345.72 77.6586 1358.44 91.2379 1359.95 111.715ZM1381.93 206.339C1381.93 217.763 1367.92 228.325 1344.43 228.325C1319.64 228.325 1299.59 219.056 1299.59 206.986C1299.59 200.735 1305.84 193.837 1316.41 186.078L1344.64 188.018C1362.75 189.526 1381.93 192.76 1381.93 206.339ZM1483.25 106.542C1483.25 79.1674 1468.6 70.1145 1450.92 70.1145C1446.61 70.1145 1435.62 77.443 1423.55 92.1001C1420.53 71.4078 1416.43 69.899 1412.12 69.899C1404.15 69.899 1393.37 85.6338 1383.46 95.1177L1384.1 96.1955L1407.6 83.2628V177.887L1389.92 183.707V185H1442.08V183.707L1424.41 177.887V97.2732C1429.8 89.9447 1437.13 82.8317 1445.1 82.8317C1456.09 82.8317 1466.44 89.9447 1466.44 106.973V177.887L1448.77 183.707V185H1500.93V183.707L1483.25 177.887V106.542ZM1581.14 166.463C1574.24 170.558 1568.64 174.223 1559.8 174.223C1532.43 174.223 1514.97 151.591 1514.1 119.043H1561.31C1565.19 119.043 1580.49 109.775 1580.49 105.679C1580.28 84.3405 1571.65 69.4679 1547.73 69.4679C1538.03 69.4679 1500.31 84.1249 1500.31 131.976C1500.31 168.619 1522.73 187.371 1550.1 187.371C1556.57 187.371 1568.42 179.396 1582 167.972L1581.14 166.463ZM1541.26 78.7363C1554.2 78.7363 1565.4 90.3757 1563.89 115.163H1514.1C1514.75 84.9871 1530.05 78.7363 1541.26 78.7363ZM1675.09 79.814C1672.72 81.3228 1670.78 82.8317 1667.77 82.8317C1660.22 82.8317 1649.01 69.6834 1642.76 69.6834C1640.39 69.6834 1628.75 83.2628 1621.42 94.4711C1618.41 71.6233 1614.31 69.899 1609.78 69.899C1601.81 69.899 1591.03 85.6338 1581.12 95.1177L1581.76 96.1955L1605.26 83.2628V177.887L1587.58 183.707V185H1639.74V183.707L1622.07 177.887V100.506C1626.17 92.7467 1631.99 84.556 1636.51 84.556C1644.06 84.556 1651.82 96.6265 1659.36 96.6265C1665.83 96.6265 1671.86 85.2027 1675.74 80.4607L1675.09 79.814Z" fill="#222222"/>
<path d="M119.334 301.858L118.688 302.505C116.963 317.162 109.85 333.112 99.9352 346.692L57.9039 247.972H81.6138C107.479 247.972 105.108 260.258 107.048 286.77L107.91 287.632L118.688 244.739L118.256 244.092H38.5048V244.523L60.2749 296.47C44.3245 305.091 13.9327 320.395 6.38863 350.787C0.13782 376.437 15.6571 392.172 35.2717 392.172C52.5153 392.172 71.2677 380.101 88.5113 363.288L97.1331 383.981L81.6138 388.292L81.1827 389.585H117.61V388.507L101.228 349.709C115.67 332.897 128.387 313.498 137.009 296.901L137.44 295.392L119.334 301.858ZM48.851 381.179C30.3141 381.179 16.7348 365.228 22.9856 340.441C28.5898 317.808 49.0665 308.54 61.9992 300.565L87.6491 361.133C75.363 373.204 61.5681 381.179 48.851 381.179Z" fill="#222222"/>
<path d="M239.46 391.74C245.064 391.74 266.834 380.101 280.413 371.048L279.551 369.108C271.791 373.419 263.601 378.161 251.315 378.161C212.948 378.161 190.962 340.872 191.824 300.565C192.686 257.24 220.276 251.852 231.269 251.852C250.668 251.852 270.498 263.491 267.912 291.296H269.205L284.293 264.138C278.904 252.714 264.032 241.721 239.244 241.721C229.76 241.721 178.245 257.887 177.167 316.3C176.521 359.624 203.679 391.525 239.46 391.74ZM375.467 284.399C373.096 285.908 371.156 287.417 368.138 287.417C360.594 287.417 349.386 274.268 343.135 274.268C340.764 274.268 329.125 287.848 321.796 299.056C318.779 276.208 314.683 274.484 310.157 274.484C302.182 274.484 291.404 290.219 281.489 299.703L282.136 300.78L305.63 287.848V382.472L287.956 388.292V389.585H340.118V388.292L322.443 382.472V305.091C326.538 297.332 332.358 289.141 336.884 289.141C344.428 289.141 352.188 301.212 359.732 301.212C366.199 301.212 372.234 289.788 376.114 285.046L375.467 284.399ZM448.23 371.048C441.333 375.143 435.729 378.808 426.891 378.808C399.517 378.808 382.058 356.175 381.196 323.628H428.4C432.28 323.628 447.584 314.36 447.584 310.264C447.368 288.925 438.746 274.053 414.821 274.053C405.121 274.053 367.401 288.71 367.401 336.561C367.401 373.204 389.818 391.956 417.192 391.956C423.658 391.956 435.513 383.981 449.092 372.557L448.23 371.048ZM408.354 283.321C421.287 283.321 432.495 294.961 430.987 319.748H381.196C381.842 289.572 397.146 283.321 408.354 283.321ZM532.918 377.73V365.659L534.426 308.756C535.289 291.943 530.331 273.622 505.328 273.622C496.921 273.622 469.763 286.123 454.244 326.646L454.89 327.077L475.367 317.808C472.996 297.332 481.402 283.752 497.353 283.752C514.381 283.537 516.752 299.272 516.536 316.731L500.586 326.43C479.247 340.441 457.908 356.175 457.908 373.635C457.908 384.412 465.236 391.956 479.678 391.956C495.197 391.956 504.681 383.55 516.536 365.875C519.554 389.369 523.865 391.309 528.391 391.309C536.366 391.309 547.143 375.575 557.059 365.875L556.412 364.797L532.918 377.73ZM489.162 380.748C482.049 380.748 476.66 375.575 476.66 366.306C476.66 352.511 488.946 339.147 516.536 321.688L516.105 360.702C506.405 374.712 496.706 380.748 489.162 380.748ZM612.113 371.695C604.138 378.808 600.043 379.885 595.516 379.885C586.895 379.885 582.799 375.143 582.799 365.875V281.166C595.085 282.459 606.509 284.183 611.467 284.183V276.639H582.799L583.23 250.99H582.153L566.849 276.639H548.959V277.933L565.987 281.597L566.202 367.599C566.202 383.765 573.531 391.956 585.386 391.956C590.128 391.956 602.629 383.981 612.976 372.772L612.113 371.695ZM634.569 255.085C641.035 255.085 645.777 250.343 645.777 243.661C645.777 237.626 641.035 232.668 634.569 232.668C627.887 232.668 622.929 237.626 622.929 243.661C622.929 250.343 627.887 255.085 634.569 255.085ZM626.809 382.472L609.135 388.292V389.585H661.296V388.292L643.622 382.472L643.837 284.183V276.639H609.135V277.933L626.809 284.183V382.472ZM712.992 277.933C732.606 285.261 736.271 291.943 724.416 325.353L709.112 367.815H707.819L676.996 284.183L694.671 277.933V276.639H657.381V277.933L701.352 395.189H702.43L747.264 277.933V276.639H712.992V277.933ZM827.034 371.048C820.136 375.143 814.532 378.808 805.695 378.808C778.321 378.808 760.861 356.175 759.999 323.628H807.204C811.083 323.628 826.387 314.36 826.387 310.264C826.172 288.925 817.55 274.053 793.624 274.053C783.925 274.053 746.204 288.71 746.204 336.561C746.204 373.204 768.621 391.956 795.995 391.956C802.462 391.956 814.317 383.981 827.896 372.557L827.034 371.048ZM787.158 283.321C800.091 283.321 811.299 294.961 809.79 319.748H759.999C760.646 289.572 775.95 283.321 787.158 283.321ZM920.395 244.092H873.406V245.385L890.219 253.361V380.317L873.406 388.292V389.585H915.222C974.712 389.585 993.68 349.278 993.68 314.791C993.68 268.449 966.522 244.092 920.395 244.092ZM908.324 385.705V247.972H915.869C957.253 247.972 974.497 274.268 974.497 316.731C974.497 361.78 957.469 385.274 915.006 385.705H908.324ZM1081.85 371.048C1074.95 375.143 1069.35 378.808 1060.51 378.808C1033.14 378.808 1015.68 356.175 1014.81 323.628H1062.02C1065.9 323.628 1081.2 314.36 1081.2 310.264C1080.99 288.925 1072.36 274.053 1048.44 274.053C1038.74 274.053 1001.02 288.71 1001.02 336.561C1001.02 373.204 1023.44 391.956 1050.81 391.956C1057.28 391.956 1069.13 383.981 1082.71 372.557L1081.85 371.048ZM1041.97 283.321C1054.91 283.321 1066.11 294.961 1064.6 319.748H1014.81C1015.46 289.572 1030.76 283.321 1041.97 283.321ZM1138.52 277.933C1158.14 285.261 1161.8 291.943 1149.95 325.353L1134.65 367.815H1133.35L1102.53 284.183L1120.2 277.933V276.639H1082.91V277.933L1126.89 395.189H1127.96L1172.8 277.933V276.639H1138.52V277.933ZM1252.57 371.048C1245.67 375.143 1240.07 378.808 1231.23 378.808C1203.85 378.808 1186.39 356.175 1185.53 323.628H1232.74C1236.62 323.628 1251.92 314.36 1251.92 310.264C1251.7 288.925 1243.08 274.053 1219.16 274.053C1209.46 274.053 1171.74 288.71 1171.74 336.561C1171.74 373.204 1194.15 391.956 1221.53 391.956C1227.99 391.956 1239.85 383.981 1253.43 372.557L1252.57 371.048ZM1212.69 283.321C1225.62 283.321 1236.83 294.961 1235.32 319.748H1185.53C1186.18 289.572 1201.48 283.321 1212.69 283.321ZM1288.77 382.472V225.555H1287.47L1251.91 234.393V235.686L1271.95 236.332V382.472L1254.28 388.292V389.585H1306.44V388.292L1288.77 382.472ZM1352.36 391.956C1362.06 391.956 1395.9 377.73 1395.9 328.586C1395.9 292.805 1374.99 274.484 1350.42 274.484C1340.72 274.484 1306.88 288.925 1306.88 337.854C1306.88 373.635 1327.79 391.956 1352.36 391.956ZM1360.34 381.825C1339.21 382.472 1323.48 360.917 1321.11 327.724C1318.95 293.883 1332.96 285.046 1342.45 284.615C1363.57 283.968 1379.31 305.522 1381.46 338.716C1383.83 372.557 1369.82 381.394 1360.34 381.825ZM1458.44 274.699C1455.42 274.699 1442.7 284.83 1432.14 295.607C1429.34 276.208 1425.24 274.484 1421.15 274.484C1413.17 274.484 1402.4 290.219 1392.27 299.703L1392.91 300.78L1416.62 288.063V436.358L1398.95 442.178V443.471H1451.11V442.178L1433.43 436.358V387.214C1438.39 388.938 1445.07 390.232 1454.56 390.232C1463.39 390.232 1499.61 374.281 1499.61 326.43C1499.61 292.805 1481.72 275.562 1458.44 274.699ZM1454.77 382.903C1445.5 382.903 1438.39 379.023 1433.43 373.85V300.134C1437.96 293.667 1445.07 287.632 1454.77 287.632C1472.66 287.632 1484.09 308.54 1484.09 338.285C1484.09 375.359 1467.49 382.903 1454.77 382.903ZM1584.74 371.048C1577.84 375.143 1572.24 378.808 1563.4 378.808C1536.03 378.808 1518.57 356.175 1517.71 323.628H1564.91C1568.79 323.628 1584.1 314.36 1584.1 310.264C1583.88 288.925 1575.26 274.053 1551.33 274.053C1541.63 274.053 1503.91 288.71 1503.91 336.561C1503.91 373.204 1526.33 391.956 1553.7 391.956C1560.17 391.956 1572.02 383.981 1585.6 372.557L1584.74 371.048ZM1544.87 283.321C1557.8 283.321 1569.01 294.961 1567.5 319.748H1517.71C1518.35 289.572 1533.66 283.321 1544.87 283.321ZM1678.7 284.399C1676.33 285.908 1674.39 287.417 1671.37 287.417C1663.82 287.417 1652.62 274.268 1646.37 274.268C1643.99 274.268 1632.36 287.848 1625.03 299.056C1622.01 276.208 1617.91 274.484 1613.39 274.484C1605.41 274.484 1594.63 290.219 1584.72 299.703L1585.37 300.78L1608.86 287.848V382.472L1591.19 388.292V389.585H1643.35V388.292L1625.67 382.472V305.091C1629.77 297.332 1635.59 289.141 1640.11 289.141C1647.66 289.141 1655.42 301.212 1662.96 301.212C1669.43 301.212 1675.46 289.788 1679.34 285.046L1678.7 284.399Z" fill="#222222"/>
</svg>
