<svg width="45" height="51" viewBox="0 0 45 51" fill="none" xmlns="http://www.w3.org/2000/svg">
<path d="M38.6107 20.0051L38.3924 20.2234C37.8102 25.1725 35.4084 30.5582 32.0605 35.1434L17.8684 1.81004H25.8742C34.6078 1.81004 33.8073 5.95851 34.4623 14.9105L34.7534 15.2016L38.3924 0.718338L38.2468 0.5H11.3182V0.645559L18.669 18.1856C13.2832 21.0968 3.02123 26.2642 0.473927 36.5262C-1.6367 45.187 3.60348 50.5 10.2265 50.5C16.0489 50.5 22.3808 46.4243 28.2032 40.7475L31.1144 47.7344L25.8742 49.19L25.7287 49.6266H38.0285V49.2627L32.4972 36.1623C37.3735 30.4854 41.6675 23.9352 44.5787 18.3311L44.7243 17.8217L38.6107 20.0051ZM14.8116 46.7882C8.55253 46.7882 3.96738 41.4025 6.078 33.0327C7.97029 25.3908 14.8844 22.2613 19.2512 19.5684L27.9121 40.0197C23.7636 44.0953 19.1057 46.7882 14.8116 46.7882Z" fill="#111111"/>
</svg>
