<svg width="341" height="185" viewBox="0 0 341 185" fill="none" xmlns="http://www.w3.org/2000/svg">
<path d="M13.9883 37.1113C13.9883 41.4733 14.7858 45.5098 16.3809 49.2207C17.9759 52.8991 20.1732 56.0078 22.9727 58.5469C28.8971 63.918 36.498 66.6035 45.7754 66.6035C55.0527 66.6035 63.2233 63.0716 70.2871 56.0078C71.0684 55.2266 71.752 54.8359 72.3379 54.8359C72.9564 54.8359 73.526 55.0638 74.0469 55.5195C74.6003 55.9753 74.877 56.5286 74.877 57.1797C74.877 57.8307 74.6979 58.5632 74.3398 59.377H74.3887C71.9473 63.6738 67.862 67.2546 62.1328 70.1191C56.4362 72.9512 50.5931 74.3672 44.6035 74.3672C38.6139 74.3672 33.1615 73.6022 28.2461 72.0723C23.3307 70.5423 18.9688 68.3613 15.1602 65.5293C11.3841 62.6973 8.37305 59.084 6.12695 54.6895C3.88086 50.2624 2.75781 45.2982 2.75781 39.7969C2.75781 34.263 3.81576 29.2174 5.93164 24.6602C8.04753 20.0703 10.9609 16.278 14.6719 13.2832C22.2891 7.09831 32.0059 4.00586 43.8223 4.00586C50.1048 4.00586 56.0456 4.98242 61.6445 6.93555C64.5091 7.94466 66.8366 9.39323 68.627 11.2812C70.4499 13.1367 71.3613 15.2689 71.3613 17.6777C71.3613 20.0866 70.6126 21.877 69.1152 23.0488C67.6178 24.2207 65.86 24.8066 63.8418 24.8066C61.8236 24.8066 60.3424 24.6439 59.3984 24.3184C59.0404 19.2402 57.5755 15.4642 55.0039 12.9902C52.4323 10.5163 48.5586 9.2793 43.3828 9.2793C34.5612 9.2793 27.4486 11.8509 22.0449 16.9941C16.6738 22.1048 13.9883 28.8105 13.9883 37.1113Z" fill="#202020"/>
<path d="M100.707 74.2207C93.3503 74.2207 87.4258 71.9095 82.9336 67.2871C78.4414 62.6322 76.1953 56.7402 76.1953 49.6113C76.1953 44.8587 77.3835 40.627 79.7598 36.916C82.1361 33.2051 85.3424 30.373 89.3789 28.4199C93.4479 26.4342 97.9727 25.4414 102.953 25.4414C110.115 25.4414 116.023 27.6712 120.678 32.1309C125.333 36.5905 127.66 42.3522 127.66 49.416C127.66 54.2988 126.456 58.6445 124.047 62.4531C121.671 66.2292 118.448 69.1426 114.379 71.1934C110.31 73.2116 105.753 74.2207 100.707 74.2207ZM102.709 68.8008C107.559 68.8008 111.335 67.1569 114.037 63.8691C116.771 60.5814 118.139 56.2031 118.139 50.7344C118.139 45.2656 116.576 40.5456 113.451 36.5742C110.326 32.6029 106.306 30.6172 101.391 30.6172C96.5078 30.6172 92.748 32.2936 90.1113 35.6465C87.4746 38.9993 86.1562 43.3939 86.1562 48.8301C86.1562 54.2663 87.7025 58.9538 90.7949 62.8926C93.8874 66.8314 97.8587 68.8008 102.709 68.8008Z" fill="#202020"/>
<path d="M146.41 73L142.211 73.0488C137.947 73.0488 135.31 72.3978 134.301 71.0957C133.845 70.5098 133.617 69.8099 133.617 68.9961C133.617 68.1497 133.943 67.5638 134.594 67.2383C135.245 66.9128 135.961 66.7337 136.742 66.7012C137.556 66.6686 138.288 66.4245 138.939 65.9688C139.59 65.4805 139.916 64.7155 139.916 63.6738V39.5527C139.916 36.6556 139.558 34.8652 138.842 34.1816C138.158 33.498 137.572 33.0586 137.084 32.8633C136.628 32.668 135.896 32.4238 134.887 32.1309C133.878 31.8379 133.048 31.5449 132.396 31.252C131.778 30.959 131.469 30.5195 131.469 29.9336C131.469 27.3294 134.968 26.0273 141.967 26.0273C144.929 26.0273 146.801 26.5482 147.582 27.5898C148.396 28.599 148.803 30.959 148.803 34.6699C149.91 31.8704 151.732 29.6732 154.271 28.0781C156.843 26.4831 159.464 25.6855 162.133 25.6855C164.835 25.6855 167.048 26.2715 168.773 27.4434C170.531 28.5827 171.41 30.0475 171.41 31.8379C171.41 33.5957 170.84 35.0117 169.701 36.0859C168.562 37.1276 167.162 37.6484 165.502 37.6484C163.842 37.6484 162.41 37.209 161.205 36.3301C160.033 35.4512 159.268 34.3118 158.91 32.9121C158.064 32.7819 157.364 32.7168 156.811 32.7168C151.732 32.7168 149.193 38.5599 149.193 50.2461V63.6738C149.193 65.5618 150.235 66.571 152.318 66.7012C154.434 66.7988 155.492 67.6289 155.492 69.1914C155.492 70.9818 154.516 72.0885 152.562 72.5117C151.065 72.8372 149.014 73 146.41 73Z" fill="#202020"/>
<path d="M216.381 51.8574C216.381 48.5371 215.762 45.347 214.525 42.2871C213.288 39.1947 211.465 36.623 209.057 34.5723C206.68 32.5215 204.011 31.4961 201.049 31.4961C196.98 31.4961 193.22 33.0911 189.77 36.2812V63.1855C193.643 66.2454 197.81 67.7754 202.27 67.7754C206.729 67.7754 210.196 66.3105 212.67 63.3809C215.144 60.4512 216.381 56.61 216.381 51.8574ZM182.396 73.3906C181.127 73.3906 180.492 71.9095 180.492 68.9473V12.1113C180.492 9.14909 179.32 7.55404 176.977 7.32617C176.749 7.29362 176.456 7.26107 176.098 7.22852C175.74 7.19596 175.479 7.17969 175.316 7.17969C175.154 7.14714 174.942 7.11458 174.682 7.08203C174.454 7.01693 174.275 6.95182 174.145 6.88672C174.047 6.82161 173.949 6.74023 173.852 6.64258C173.624 6.44727 173.51 5.97526 173.51 5.22656C173.51 4.47786 174.014 3.69661 175.023 2.88281C176.846 1.38542 179.304 0.636719 182.396 0.636719C185.684 0.636719 187.605 0.832031 188.158 1.22266C189.265 2.00391 189.818 3.0293 189.818 4.29883V31.3008C194.669 27.1667 200.186 25.0996 206.371 25.0996C212.556 25.0996 217.52 27.2643 221.264 31.5938C225.04 35.8906 226.928 41.5221 226.928 48.4883C226.928 52.8503 225.967 56.9681 224.047 60.8418C222.159 64.7155 219.49 67.8568 216.039 70.2656C212.621 72.6745 208.861 73.8789 204.76 73.8789C198.9 73.8789 193.22 72.0397 187.719 68.3613C187.654 68.4264 187.214 69.0124 186.4 70.1191C184.805 72.3001 183.471 73.3906 182.396 73.3906Z" fill="#202020"/>
<path d="M238.891 67.6777C234.398 63.2507 232.152 57.375 232.152 50.0508C232.152 42.7266 234.415 36.7858 238.939 32.2285C243.497 27.6387 249.291 25.3438 256.322 25.3438C261.889 25.3438 266.576 27.1504 270.385 30.7637C274.226 34.3444 276.146 38.8529 276.146 44.2891C276.146 46.9258 274.063 48.2441 269.896 48.2441H241.625C241.69 53.5176 243.399 57.9609 246.752 61.5742C250.105 65.1875 254.337 66.9941 259.447 66.9941C262.833 66.9941 266.12 66.0013 269.311 64.0156C271.003 62.974 272.077 62.4531 272.533 62.4531C273.021 62.4531 273.559 62.6973 274.145 63.1855C274.763 63.6413 275.072 64.2109 275.072 64.8945C275.072 66.6849 273.917 68.3451 271.605 69.875C269.327 71.3724 266.804 72.4792 264.037 73.1953C261.27 73.944 258.845 74.3184 256.762 74.3184C249.372 74.3184 243.415 72.1048 238.891 67.6777ZM267.162 43.1172C267.097 39.3737 266.12 36.3301 264.232 33.9863C262.344 31.6426 259.577 30.4707 255.932 30.4707C252.318 30.4707 249.145 31.7728 246.41 34.377C243.708 36.9811 242.276 39.9596 242.113 43.3125H253.539C258.617 43.3125 263.158 43.2474 267.162 43.1172Z" fill="#202020"/>
<path d="M296.068 73L291.869 73.0488C287.605 73.0488 284.968 72.3978 283.959 71.0957C283.503 70.5098 283.275 69.8099 283.275 68.9961C283.275 68.1497 283.601 67.5638 284.252 67.2383C284.903 66.9128 285.619 66.7337 286.4 66.7012C287.214 66.6686 287.947 66.4245 288.598 65.9688C289.249 65.4805 289.574 64.7155 289.574 63.6738V35.793C289.574 33.9049 288.402 32.7656 286.059 32.375C284.431 32.1146 283.438 31.8379 283.08 31.5449C282.755 31.2194 282.592 30.666 282.592 29.8848C282.592 29.071 283.161 28.3385 284.301 27.6875C286.221 26.5156 288.63 25.9297 291.527 25.9297C294.457 25.9297 296.329 26.3529 297.143 27.1992C297.989 28.013 298.412 29.8522 298.412 32.7168C302.872 27.6712 309.008 25.1484 316.82 25.1484C323.168 25.1484 327.66 26.89 330.297 30.373C332.966 33.8236 334.301 39.0645 334.301 46.0957V63.6738C334.301 65.5618 335.342 66.571 337.426 66.7012C339.542 66.7988 340.6 67.6289 340.6 69.1914C340.6 70.9492 339.59 72.056 337.572 72.5117C336.075 72.8372 334.008 73 331.371 73L327.172 73.0488C322.908 73.0488 320.271 72.3978 319.262 71.0957C318.806 70.5098 318.578 69.8099 318.578 68.9961C318.578 68.1497 318.904 67.5638 319.555 67.2383C320.206 66.9128 320.922 66.7337 321.703 66.7012C322.517 66.6686 323.249 66.4245 323.9 65.9688C324.551 65.4805 324.877 64.7155 324.877 63.6738V49.4648C324.877 43.4102 324.177 38.9831 322.777 36.1836C321.215 33.026 318.074 31.4473 313.354 31.4473C307.657 31.4473 303.783 32.9609 301.732 35.9883C299.812 38.8529 298.852 43.4264 298.852 49.709V63.6738C298.852 65.5618 299.893 66.571 301.977 66.7012C304.092 66.7988 305.15 67.6289 305.15 69.1914C305.15 70.9818 304.158 72.0885 302.172 72.5117C300.74 72.8372 298.705 73 296.068 73Z" fill="#202020"/>
<path d="M72.875 178.654C72.875 180.152 71.9473 181.258 70.0918 181.975C68.2363 182.658 66.2018 183 63.9883 183H63.4023C59.1706 183 56.485 182.837 55.3457 182.512C54.2389 182.186 53.3275 181.861 52.6113 181.535C51.179 180.819 50.4629 179.663 50.4629 178.068C50.4629 177.352 51.3255 176.945 53.0508 176.848C54.8086 176.75 55.6875 176.197 55.6875 175.188C55.6875 174.829 55.3783 174.048 54.7598 172.844H54.8086L49.4375 160.051H20.6777C17.1947 169.23 15.4531 174.227 15.4531 175.041C15.4531 175.855 15.6647 176.327 16.0879 176.457L16.0391 176.408C16.2669 176.538 16.8203 176.717 17.6992 176.945C19.8802 177.466 20.9707 178.036 20.9707 178.654C20.9707 181.551 17.3086 183 9.98438 183C3.89714 183 0.853516 181.551 0.853516 178.654C0.853516 178.036 1.94401 177.417 4.125 176.799C6.33854 176.18 7.90104 174.65 8.8125 172.209L28.5879 120.5C28.2624 119.621 28.0996 118.856 28.0996 118.205C28.0996 115.699 30.6549 114.445 35.7656 114.445C39.8672 114.445 42.5202 116.008 43.7246 119.133L64.3301 171.867C65.502 174.667 67.2923 176.262 69.7012 176.652C71.2311 176.88 72.1426 177.141 72.4355 177.434C72.7285 177.694 72.875 178.101 72.875 178.654ZM22.582 155.363H47.4844L34.7891 120.5L22.582 155.363Z" fill="#202020"/>
<path d="M85.3262 152.043C84.1217 152.043 82.7546 151.571 81.2246 150.627C79.7272 149.65 78.9785 148.397 78.9785 146.867C78.9785 145.305 79.418 143.84 80.2969 142.473C81.1758 141.105 82.3151 139.999 83.7148 139.152C85.1146 138.273 86.7422 137.541 88.5977 136.955C91.9831 135.881 95.6289 135.344 99.5352 135.344C106.111 135.344 110.88 136.809 113.842 139.738C116.837 142.635 118.334 147.437 118.334 154.143L118.285 168.547C118.285 172.03 118.725 174.211 119.604 175.09C119.831 175.318 120.548 175.611 121.752 175.969C125.072 177.01 126.732 177.808 126.732 178.361C126.732 181.779 123.233 183.488 116.234 183.488C113.598 183.488 111.872 182.902 111.059 181.73C110.277 180.559 109.854 178.426 109.789 175.334C108.324 177.971 106.094 180.103 103.1 181.73C100.105 183.358 96.8984 184.172 93.4805 184.172C90.0625 184.172 87.1654 183.732 84.7891 182.854C82.4128 181.975 80.4759 180.559 78.9785 178.605C77.5137 176.62 76.7812 174.488 76.7812 172.209C76.7812 169.93 77.0417 168.107 77.5625 166.74C78.0833 165.34 78.7344 164.169 79.5156 163.225C80.2969 162.281 81.3548 161.434 82.6895 160.686C84.0566 159.937 85.3262 159.351 86.498 158.928C87.6699 158.472 89.1836 158.065 91.0391 157.707C93.7734 157.186 96.0684 156.828 97.9238 156.633C99.7793 156.405 100.74 156.275 100.805 156.242C101 156.21 102.107 156.096 104.125 155.9C106.176 155.673 107.787 155.233 108.959 154.582C108.959 148.397 108.129 144.361 106.469 142.473C105.004 140.845 102.595 140.031 99.2422 140.031C95.8893 140.031 93.3665 140.894 91.6738 142.619C90.0137 144.312 89.1836 147.014 89.1836 150.725L89.2324 151.799C87.8652 151.962 86.5632 152.043 85.3262 152.043ZM108.959 158.977C106.745 159.79 104.239 160.36 101.439 160.686C98.6725 160.979 96.4915 161.337 94.8965 161.76C93.3014 162.183 91.9668 162.704 90.8926 163.322C88.4186 164.755 87.1816 167.212 87.1816 170.695C87.1816 176.294 90.4368 179.094 96.9473 179.094C102.579 179.094 106.143 176.408 107.641 171.037C108.52 167.977 108.959 163.957 108.959 158.977Z" fill="#202020"/>
<path d="M158.715 113.273C161.091 112.818 163.012 112.59 164.477 112.59C165.941 112.59 166.885 112.915 167.309 113.566C167.764 114.217 167.992 115.503 167.992 117.424V174.357C167.992 175.301 169.18 176.018 171.557 176.506C171.687 176.538 171.785 176.571 171.85 176.604C171.947 176.604 172.143 176.636 172.436 176.701C172.761 176.766 172.989 176.815 173.119 176.848C173.282 176.848 173.493 176.896 173.754 176.994C174.047 177.059 174.258 177.124 174.389 177.189C174.519 177.255 174.682 177.352 174.877 177.482C175.105 177.613 175.251 177.743 175.316 177.873C175.577 178.264 175.707 178.622 175.707 178.947C175.707 180.673 174.535 181.828 172.191 182.414C170.694 182.805 167.52 183 162.67 183C157.852 183 154.792 182.837 153.49 182.512C150.886 181.861 149.584 180.559 149.584 178.605C149.584 177.824 150.235 177.271 151.537 176.945C152.872 176.62 154.19 176.311 155.492 176.018C156.794 175.692 157.445 175.139 157.445 174.357V122.795C157.445 121.916 156.111 121.281 153.441 120.891C150.805 120.5 149.486 119.995 149.486 119.377C149.486 116.545 152.562 114.51 158.715 113.273Z" fill="#202020"/>
<path d="M213.256 128.898C213.256 121.932 209.805 118.449 202.904 118.449C200.17 118.449 197.175 119.068 193.92 120.305C190.697 121.509 187.963 122.974 185.717 124.699C185.001 125.122 184.203 125.334 183.324 125.334C182.478 125.334 181.745 125.122 181.127 124.699C180.508 124.276 180.199 123.641 180.199 122.795C180.199 121.916 180.834 121.005 182.104 120.061C186.563 115.308 192.243 112.232 199.145 110.832C201.228 110.409 203.425 110.197 205.736 110.197C211.205 110.197 215.535 111.727 218.725 114.787C221.947 117.847 223.559 122.03 223.559 127.336C223.559 134.823 219.587 143.173 211.645 152.385C205.59 159.416 197.305 167.229 186.791 175.822H200.609C205.753 175.822 209.04 175.806 210.473 175.773L211.547 175.725C214.346 175.725 216.625 173.462 218.383 168.938C218.904 167.603 219.164 166.675 219.164 166.154V166.105C221.15 166.105 222.729 166.789 223.9 168.156C225.105 169.491 225.707 171.346 225.707 173.723C225.707 176.099 225.105 178.231 223.9 180.119C222.696 182.007 221.117 182.951 219.164 182.951H184.447C182.592 182.951 181.046 182.463 179.809 181.486C178.604 180.477 178.002 179.061 178.002 177.238C178.002 176.359 178.539 175.35 179.613 174.211C180.688 173.039 182.38 171.411 184.691 169.328C195.694 159.562 203.848 150.09 209.154 140.91C211.889 136.19 213.256 132.186 213.256 128.898Z" fill="#202020"/>
<path d="M276.146 125.041C276.146 131.128 271.394 136.141 261.889 140.08C267.715 140.764 272.549 142.88 276.391 146.428C280.232 149.976 282.152 154.566 282.152 160.197C282.152 167.717 279.483 173.592 274.145 177.824C268.839 182.056 262.344 184.172 254.662 184.172C250.658 184.172 246.182 183.26 241.234 181.438C233.422 178.54 229.516 175.415 229.516 172.062C229.516 170.793 230.362 170.158 232.055 170.158C232.966 170.158 234.008 170.614 235.18 171.525C236.352 172.404 237.165 173.007 237.621 173.332C241.82 176.327 246.801 177.824 252.562 177.824C255.818 177.824 258.471 177.45 260.521 176.701C262.572 175.952 264.46 174.732 266.186 173.039C269.538 169.816 271.215 165.829 271.215 161.076C271.215 156.291 269.701 152.45 266.674 149.553C263.646 146.656 259.561 145.207 254.418 145.207C251.586 145.207 248.721 145.858 245.824 147.16C245.596 147.258 245.271 147.307 244.848 147.307C244.457 147.307 244.05 147.014 243.627 146.428C243.204 145.809 242.992 145.174 242.992 144.523C242.992 143.872 243.334 143.352 244.018 142.961C244.734 142.538 246.02 141.936 247.875 141.154C249.763 140.373 251.277 139.722 252.416 139.201C253.555 138.648 254.792 137.964 256.127 137.15C257.462 136.337 258.878 135.311 260.375 134.074C263.5 131.438 265.062 128.345 265.062 124.797C265.062 122.486 264.053 120.533 262.035 118.938C260.049 117.342 257.803 116.545 255.297 116.545C250.87 116.545 246.199 117.961 241.283 120.793C239.493 121.802 237.654 123.202 235.766 124.992C235.44 125.318 235.017 125.48 234.496 125.48C234.008 125.48 233.487 125.22 232.934 124.699C232.413 124.146 232.152 123.641 232.152 123.186C232.152 122.697 232.25 122.307 232.445 122.014C236.221 116.35 242.276 112.639 250.609 110.881C252.986 110.36 255.362 110.1 257.738 110.1C263.109 110.1 267.52 111.418 270.971 114.055C274.421 116.659 276.146 120.321 276.146 125.041Z" fill="#202020"/>
</svg>
