<?xml version="1.0" encoding="utf-8"?>
<!-- Generator: Adobe Illustrator 24.0.1, SVG Export Plug-In . SVG Version: 6.00 Build 0)  -->
<svg version="1.1" id="Layer_1" xmlns="http://www.w3.org/2000/svg" xmlns:xlink="http://www.w3.org/1999/xlink" x="0px" y="0px"
	 viewBox="0 0 59.5 59.5" style="enable-background:new 0 0 59.5 59.5;" xml:space="preserve">
<style type="text/css">
	.st0{fill:#FFFFFF;}
</style>
<title>dribbble</title>
<g id="Layer_2_1_">
	<g id="Layer_1-2">
		<path class="st0" d="M0,29.7c0-5.2,1.3-10.4,4-14.9C6.6,10.3,10.3,6.6,14.8,4c4.5-2.7,9.7-4,14.9-4c5.3,0,10.4,1.4,15,4
			c4.5,2.6,8.2,6.3,10.8,10.8c2.7,4.5,4,9.7,4,14.9s-1.4,10.4-4,14.9s-6.3,8.2-10.8,10.8s-9.7,4-14.9,4s-10.4-1.3-14.9-4
			C10.3,52.9,6.6,49.2,4,44.7C1.4,40.1,0,35,0,29.7z M4.9,29.7c-0.1,6,2.2,11.9,6.2,16.4c2.2-4.1,5.3-7.8,9-10.6
			c3.5-3,7.6-5.2,12.1-6.4c-0.6-1.4-1.2-2.6-1.7-3.7c-7.1,2.2-14.6,3.3-22.1,3.3c-1.5,0-2.7,0-3.4-0.1c0,0.2,0,0.4,0,0.6
			S4.9,29.6,4.9,29.7z M5.7,23.6c0.9,0.1,2.2,0.1,3.9,0.1c6.4,0,12.7-0.9,18.9-2.7c-2.7-4.9-6-9.4-9.9-13.4
			c-3.1,1.6-5.9,3.8-8.1,6.6C8.2,17,6.6,20.2,5.7,23.6z M14.6,49.3c6.8,5.4,15.9,6.7,23.9,3.6c-0.8-6.7-2.3-13.3-4.6-19.7
			c-4.1,1-7.9,3.1-11,6C19.4,42,16.6,45.4,14.6,49.3z M23.7,5.8c3.8,4.1,7.1,8.6,9.7,13.5c5.4-2.3,9.5-5.1,12.2-8.6
			C41.2,7,35.6,4.9,29.8,5C27.7,4.9,25.6,5.2,23.7,5.8z M35.5,23.5c0.6,1.3,1.3,2.9,2,4.8c2.9-0.3,6.1-0.4,9.6-0.4
			c2.5,0,4.9,0.1,7.3,0.2c-0.3-5.3-2.3-10.4-5.8-14.4C46,17.5,41.6,20.8,35.5,23.5z M39,32.5c2,5.9,3.4,11.9,4.1,18.1
			c3.1-2,5.7-4.7,7.7-7.8s3.2-6.6,3.6-10.3c-2.9-0.2-5.5-0.3-7.9-0.3C44.3,32.2,41.8,32.3,39,32.5L39,32.5z"/>
	</g>
</g>
</svg>
