<?xml version="1.0" encoding="utf-8"?>
<!-- Generator: Adobe Illustrator 24.0.1, SVG Export Plug-In . SVG Version: 6.00 Build 0)  -->
<svg version="1.1" id="Layer_1" xmlns="http://www.w3.org/2000/svg" xmlns:xlink="http://www.w3.org/1999/xlink" x="0px" y="0px"
	 viewBox="0 0 50.6 50.6" style="enable-background:new 0 0 50.6 50.6;" xml:space="preserve">
<style type="text/css">
	.st0{fill:#FFFFFF;}
</style>
<title>instagram</title>
<g id="Layer_2_1_">
	<g id="Layer_1-2">
		<path class="st0" d="M50.5,14.9c0-2.1-0.4-4.2-1.2-6.1c-0.6-1.7-1.6-3.2-2.9-4.5c-1.3-1.3-2.8-2.3-4.5-3c-2-0.7-4-1.1-6.1-1.2
			C33,0,32.2,0,25.3,0s-7.7,0-10.4,0.2c-2.1,0-4.2,0.4-6.1,1.2C7,2,5.5,3,4.2,4.2C3,5.5,2,7,1.3,8.7c-0.7,2-1.1,4-1.2,6.1
			C0,17.6,0,18.4,0,25.3S0,33,0.2,35.8c0,2.1,0.4,4.2,1.2,6.1c1.3,3.4,4,6.1,7.4,7.4c2,0.7,4,1.1,6.1,1.2c2.7,0.1,3.6,0.1,10.4,0.1
			s7.7,0,10.4-0.1c2.1,0,4.2-0.4,6.1-1.2c3.4-1.3,6.1-4,7.4-7.4c0.7-2,1.1-4,1.2-6.1c0.1-2.7,0.1-3.6,0.1-10.4S50.6,17.6,50.5,14.9z
			 M45.9,35.5c0,1.6-0.3,3.2-0.9,4.7c-0.9,2.2-2.6,4-4.8,4.8c-1.5,0.6-3.1,0.8-4.7,0.9C32.8,46,32,46,25.3,46s-7.6,0-10.2-0.1
			c-1.6,0-3.2-0.3-4.7-0.9c-1.1-0.4-2.1-1.1-2.9-1.9c-0.8-0.8-1.5-1.8-1.9-2.9c-0.6-1.5-0.9-3.1-0.9-4.7C4.6,32.8,4.5,32,4.5,25.3
			s0-7.6,0.2-10.2c0-1.6,0.3-3.2,0.9-4.7C6,9.3,6.7,8.3,7.5,7.5S9.3,6,10.4,5.6c1.5-0.6,3.1-0.9,4.7-0.9c2.7-0.1,3.5-0.2,10.2-0.2
			s7.6,0,10.2,0.2c1.6,0,3.2,0.3,4.7,0.9c1.1,0.4,2.1,1,2.9,1.9c0.8,0.8,1.5,1.8,1.9,2.9c0.6,1.5,0.8,3.1,0.9,4.7
			c0.1,2.7,0.2,3.5,0.2,10.2S46,32.9,45.9,35.5z"/>
		<path class="st0" d="M25.3,12.3c-7.2,0-13,5.8-13,13s5.8,13,13,13s13-5.8,13-13S32.5,12.3,25.3,12.3L25.3,12.3z M25.3,33.8
			c-4.7,0-8.4-3.8-8.4-8.4c0-4.7,3.8-8.4,8.4-8.4c4.7,0,8.4,3.8,8.4,8.4l0,0C33.8,30,30,33.8,25.3,33.8L25.3,33.8z"/>
		<path class="st0" d="M41.9,11.8c0,1.7-1.3,3-3,3s-3-1.3-3-3s1.3-3,3-3S41.9,10.1,41.9,11.8z"/>
	</g>
</g>
</svg>
