<?xml version="1.0" encoding="utf-8"?>
<!-- Generator: Adobe Illustrator 24.0.1, SVG Export Plug-In . SVG Version: 6.00 Build 0)  -->
<svg version="1.1" id="Layer_1" xmlns="http://www.w3.org/2000/svg" xmlns:xlink="http://www.w3.org/1999/xlink" x="0px" y="0px"
	 viewBox="0 0 44.6 42.7" style="enable-background:new 0 0 44.6 42.7;" xml:space="preserve">
<style type="text/css">
	.st0{fill:#FFFFFF;}
</style>
<title>linkedin</title>
<g id="Layer_2_1_">
	<g id="Layer_1-2">
		<path class="st0" d="M5.4,0C2.1,0,0,2.2,0,5s2.2,5,5,5c0.1,0,0.2,0,0.3,0h0.1c3.3,0,5.4-2.2,5.4-5s-2.2-5-5-5C5.7,0,5.5,0,5.4,0z"
			/>
		<path class="st0" d="M0.6,13.9h9.6v28.8H0.6V13.9z"/>
		<path class="st0" d="M33.6,13.2C28.5,13.2,25,18,25,18v-4.2h-9.6v28.8H25v-16c0-0.8,0.1-1.6,0.3-2.3c0.7-2.1,2.7-3.5,4.9-3.5
			c3.5,0,4.9,2.6,4.9,6.5v15.4h9.6V26.2C44.6,17.3,39.9,13.2,33.6,13.2z"/>
	</g>
</g>
</svg>
