<svg xmlns="http://www.w3.org/2000/svg" viewBox="0 0 98.675 36.75">
  <path id="Path_197" data-name="Path 197" d="M18.925-3.825,7-15.75,18.925-27.675l3.25,3.25-8.85,8.675,8.85,8.675ZM34.975,0V-27h4.65v6.55l-.65-.85a10.166,10.166,0,0,1,1.3-2.388,7.369,7.369,0,0,1,1.85-1.788,8.109,8.109,0,0,1,2.287-1.162,10.534,10.534,0,0,1,2.588-.5A10.309,10.309,0,0,1,49.55-27v4.9a8.411,8.411,0,0,0-2.937-.2,6.469,6.469,0,0,0-2.962,1.025,6.493,6.493,0,0,0-2.013,2,8.326,8.326,0,0,0-1.062,2.613,13.742,13.742,0,0,0-.325,3.037V0Zm32,.75a10.844,10.844,0,0,1-6.5-1.887A11.7,11.7,0,0,1,56.5-6.25a18.681,18.681,0,0,1-1.35-7.275A18.835,18.835,0,0,1,56.487-20.8a11.481,11.481,0,0,1,3.95-5.087,10.8,10.8,0,0,1,6.438-1.862,11.459,11.459,0,0,1,6.563,1.862A12.2,12.2,0,0,1,77.7-20.812a17.029,17.029,0,0,1,1.5,7.287,17.259,17.259,0,0,1-1.487,7.288,12.234,12.234,0,0,1-4.225,5.113A11.242,11.242,0,0,1,66.975.75ZM54.275,0V-36h5.25v16.575h-.6V0ZM66.25-3.975A6.533,6.533,0,0,0,70.387-5.25a7.649,7.649,0,0,0,2.45-3.437,13.668,13.668,0,0,0,.812-4.838,13.49,13.49,0,0,0-.812-4.8A7.539,7.539,0,0,0,70.35-21.75a6.859,6.859,0,0,0-4.275-1.275,6.509,6.509,0,0,0-4.037,1.2,7,7,0,0,0-2.35,3.35,14.777,14.777,0,0,0-.763,4.95,15,15,0,0,0,.75,4.95A6.974,6.974,0,0,0,62.05-5.2,6.791,6.791,0,0,0,66.25-3.975Zm27.5.15L105.675-15.75,93.75-27.675l-3.25,3.25,8.85,8.675L90.5-7.075Z" transform="translate(-7 36)" fill="#fff"/>
</svg>
