<?xml version="1.0" encoding="utf-8"?>
<!-- Generator: Adobe Illustrator 24.0.1, SVG Export Plug-In . SVG Version: 6.00 Build 0)  -->
<svg version="1.1" id="Layer_1" xmlns="http://www.w3.org/2000/svg" xmlns:xlink="http://www.w3.org/1999/xlink" x="0px" y="0px"
	 viewBox="0 0 98.7 36.8" style="enable-background:new 0 0 98.7 36.8;" xml:space="preserve">
<path id="Path_197" d="M11.9,32.2L0,20.2L11.9,8.3l3.2,3.2l-8.9,8.7l8.9,8.7L11.9,32.2z M28,36V9h4.7v6.5L32,14.7
	c0.3-0.9,0.8-1.7,1.3-2.4c0.5-0.7,1.1-1.3,1.8-1.8c0.7-0.5,1.5-0.9,2.3-1.2c0.8-0.3,1.7-0.4,2.6-0.5c0.9-0.1,1.7,0,2.6,0.1v4.9
	c-1-0.2-2-0.3-2.9-0.2c-1.1,0.1-2.1,0.4-3,1c-0.8,0.5-1.5,1.2-2,2c-0.5,0.8-0.9,1.7-1.1,2.6c-0.2,1-0.3,2-0.3,3V36H28z M60,36.8
	c-2.3,0.1-4.6-0.6-6.5-1.9c-1.8-1.3-3.2-3.1-4-5.1c-0.9-2.3-1.4-4.8-1.3-7.3c0-2.5,0.4-5,1.3-7.3c0.8-2,2.2-3.8,4-5.1
	c1.9-1.3,4.1-1.9,6.4-1.9c2.3-0.1,4.6,0.6,6.6,1.9c1.9,1.3,3.3,3,4.3,5.1c1,2.3,1.5,4.8,1.5,7.3c0,2.5-0.5,5-1.5,7.3
	c-0.9,2.1-2.4,3.8-4.2,5.1C64.6,36.2,62.3,36.8,60,36.8z M47.3,36V0h5.2v16.6h-0.6V36H47.3z M59.2,32c1.5,0.1,2.9-0.4,4.1-1.3
	c1.1-0.9,2-2.1,2.4-3.4c0.6-1.6,0.8-3.2,0.8-4.8c0-1.6-0.3-3.3-0.8-4.8c-0.5-1.4-1.3-2.5-2.5-3.4c-1.2-0.9-2.7-1.3-4.3-1.3
	c-1.4-0.1-2.9,0.4-4,1.2c-1.1,0.9-1.9,2-2.3,3.4c-0.5,1.6-0.8,3.3-0.8,5c0,1.7,0.2,3.4,0.8,4.9c0.4,1.3,1.3,2.5,2.4,3.4
	C56.3,31.7,57.8,32.1,59.2,32z M86.8,32.2l11.9-11.9L86.8,8.3l-3.2,3.2l8.8,8.7l-8.8,8.7L86.8,32.2z"/>
</svg>
