<svg width="405" height="184" viewBox="0 0 405 184" fill="none" xmlns="http://www.w3.org/2000/svg">
<path d="M5 72V0H11.75L40.05 60.55L68.2 0H75.05V71.95H68.05V16.4L42.4 72H37.65L12.05 16.4V72H5Z" fill="#202020"/>
<path d="M104.532 73.5C100.465 73.5 97.0487 72.7667 94.282 71.3C91.5487 69.8333 89.4987 67.8833 88.132 65.45C86.7654 63.0167 86.082 60.3667 86.082 57.5C86.082 54.5667 86.6654 52.0667 87.832 50C89.032 47.9 90.6487 46.1833 92.682 44.85C94.7487 43.5167 97.132 42.5 99.832 41.8C102.565 41.1333 105.582 40.55 108.882 40.05C112.215 39.5167 115.465 39.0667 118.632 38.7C121.832 38.3 124.632 37.9167 127.032 37.55L124.432 39.15C124.532 33.8167 123.499 29.8667 121.332 27.3C119.165 24.7333 115.399 23.45 110.032 23.45C106.332 23.45 103.199 24.2833 100.632 25.95C98.0987 27.6167 96.3154 30.25 95.282 33.85L88.132 31.75C89.3654 26.9167 91.8487 23.1667 95.582 20.5C99.3154 17.8333 104.165 16.5 110.132 16.5C115.065 16.5 119.249 17.4333 122.682 19.3C126.149 21.1333 128.599 23.8 130.032 27.3C130.699 28.8667 131.132 30.6167 131.332 32.55C131.532 34.4833 131.632 36.45 131.632 38.45V72H125.082V58.45L126.982 59.25C125.149 63.8833 122.299 67.4167 118.432 69.85C114.565 72.2833 109.932 73.5 104.532 73.5ZM105.382 67.15C108.815 67.15 111.815 66.5333 114.382 65.3C116.949 64.0667 119.015 62.3833 120.582 60.25C122.149 58.0833 123.165 55.65 123.632 52.95C124.032 51.2167 124.249 49.3167 124.282 47.25C124.315 45.15 124.332 43.5833 124.332 42.55L127.132 44C124.632 44.3333 121.915 44.6667 118.982 45C116.082 45.3333 113.215 45.7167 110.382 46.15C107.582 46.5833 105.049 47.1 102.782 47.7C101.249 48.1333 99.7654 48.75 98.332 49.55C96.8987 50.3167 95.7154 51.35 94.782 52.65C93.882 53.95 93.432 55.5667 93.432 57.5C93.432 59.0667 93.8154 60.5833 94.582 62.05C95.382 63.5167 96.6487 64.7333 98.382 65.7C100.149 66.6667 102.482 67.15 105.382 67.15Z" fill="#202020"/>
<path d="M183.648 72V44.45C183.648 41.45 183.365 38.7 182.798 36.2C182.232 33.6667 181.315 31.4667 180.048 29.6C178.815 27.7 177.198 26.2333 175.198 25.2C173.232 24.1667 170.832 23.65 167.998 23.65C165.398 23.65 163.098 24.1 161.098 25C159.132 25.9 157.465 27.2 156.098 28.9C154.765 30.5667 153.748 32.6 153.048 35C152.348 37.4 151.998 40.1333 151.998 43.2L146.798 42.05C146.798 36.5167 147.765 31.8667 149.698 28.1C151.632 24.3333 154.298 21.4833 157.698 19.55C161.098 17.6167 164.998 16.65 169.398 16.65C172.632 16.65 175.448 17.15 177.848 18.15C180.282 19.15 182.332 20.5 183.998 22.2C185.698 23.9 187.065 25.85 188.098 28.05C189.132 30.2167 189.882 32.5333 190.348 35C190.815 37.4333 191.048 39.8667 191.048 42.3V72H183.648ZM144.598 72V18H151.248V31.3H151.998V72H144.598Z" fill="#202020"/>
<path d="M204.023 72V18H210.623V31L209.323 29.3C209.923 27.7 210.707 26.2333 211.673 24.9C212.64 23.5333 213.69 22.4167 214.823 21.55C216.223 20.3167 217.857 19.3833 219.723 18.75C221.59 18.0833 223.473 17.7 225.373 17.6C227.273 17.4667 229.007 17.6 230.573 18V24.9C228.607 24.4 226.457 24.2833 224.123 24.55C221.79 24.8167 219.64 25.75 217.673 27.35C215.873 28.75 214.523 30.4333 213.623 32.4C212.723 34.3333 212.123 36.4 211.823 38.6C211.523 40.7667 211.373 42.9167 211.373 45.05V72H204.023Z" fill="#202020"/>
<path d="M261.632 73.5C256.265 73.5 251.682 72.2833 247.882 69.85C244.082 67.4167 241.165 64.05 239.132 59.75C237.099 55.45 236.082 50.5167 236.082 44.95C236.082 39.2833 237.115 34.3167 239.182 30.05C241.249 25.7833 244.182 22.4667 247.982 20.1C251.815 17.7 256.365 16.5 261.632 16.5C267.032 16.5 271.632 17.7167 275.432 20.15C279.265 22.55 282.182 25.9 284.182 30.2C286.215 34.4667 287.232 39.3833 287.232 44.95C287.232 50.6167 286.215 55.6 284.182 59.9C282.149 64.1667 279.215 67.5 275.382 69.9C271.549 72.3 266.965 73.5 261.632 73.5ZM261.632 66.45C267.632 66.45 272.099 64.4667 275.032 60.5C277.965 56.5 279.432 51.3167 279.432 44.95C279.432 38.4167 277.949 33.2167 274.982 29.35C272.049 25.4833 267.599 23.55 261.632 23.55C257.599 23.55 254.265 24.4667 251.632 26.3C249.032 28.1 247.082 30.6167 245.782 33.85C244.515 37.05 243.882 40.75 243.882 44.95C243.882 51.45 245.382 56.6667 248.382 60.6C251.382 64.5 255.799 66.45 261.632 66.45Z" fill="#202020"/>
<path d="M322.512 73.5C317.545 73.5 313.345 72.25 309.912 69.75C306.478 67.2167 303.878 63.8 302.112 59.5C300.345 55.1667 299.462 50.3167 299.462 44.95C299.462 39.4833 300.345 34.6167 302.112 30.35C303.912 26.05 306.545 22.6667 310.012 20.2C313.478 17.7333 317.745 16.5 322.812 16.5C327.745 16.5 331.978 17.75 335.512 20.25C339.045 22.75 341.745 26.15 343.612 30.45C345.512 34.75 346.462 39.5833 346.462 44.95C346.462 50.35 345.512 55.2 343.612 59.5C341.712 63.8 338.978 67.2167 335.412 69.75C331.845 72.25 327.545 73.5 322.512 73.5ZM298.212 96V18H304.812V58.65H305.612V96H298.212ZM321.762 66.65C325.528 66.65 328.662 65.7 331.162 63.8C333.662 61.9 335.528 59.3167 336.762 56.05C338.028 52.75 338.662 49.05 338.662 44.95C338.662 40.8833 338.045 37.2167 336.812 33.95C335.578 30.6833 333.695 28.1 331.162 26.2C328.662 24.3 325.478 23.35 321.612 23.35C317.845 23.35 314.712 24.2667 312.212 26.1C309.745 27.9333 307.895 30.4833 306.662 33.75C305.428 36.9833 304.812 40.7167 304.812 44.95C304.812 49.1167 305.428 52.85 306.662 56.15C307.895 59.4167 309.762 61.9833 312.262 63.85C314.762 65.7167 317.928 66.65 321.762 66.65Z" fill="#202020"/>
<path d="M380.291 73.5C375.025 73.5 370.458 72.3333 366.591 70C362.758 67.6667 359.775 64.3833 357.641 60.15C355.508 55.9167 354.441 50.95 354.441 45.25C354.441 39.35 355.491 34.25 357.591 29.95C359.691 25.65 362.641 22.3333 366.441 20C370.275 17.6667 374.791 16.5 379.991 16.5C385.325 16.5 389.875 17.7333 393.641 20.2C397.408 22.6333 400.258 26.1333 402.191 30.7C404.125 35.2667 405.008 40.7167 404.841 47.05H397.341V44.45C397.208 37.45 395.691 32.1667 392.791 28.6C389.925 25.0333 385.725 23.25 380.191 23.25C374.391 23.25 369.941 25.1333 366.841 28.9C363.775 32.6667 362.241 38.0333 362.241 45C362.241 51.8 363.775 57.0833 366.841 60.85C369.941 64.5833 374.325 66.45 379.991 66.45C383.858 66.45 387.225 65.5667 390.091 63.8C392.991 62 395.275 59.4167 396.941 56.05L403.791 58.7C401.658 63.4 398.508 67.05 394.341 69.65C390.208 72.2167 385.525 73.5 380.291 73.5ZM359.641 47.05V40.9H400.891V47.05H359.641Z" fill="#202020"/>
<path d="M0 182L24.8 110H34.55L59.35 182H51.7L28.15 114.1H31.05L7.65 182H0ZM11.05 164.55V157.65H48.25V164.55H11.05Z" fill="#202020"/>
<path d="M83.8289 183.5C79.7622 183.5 76.3456 182.767 73.5789 181.3C70.8456 179.833 68.7956 177.883 67.4289 175.45C66.0622 173.017 65.3789 170.367 65.3789 167.5C65.3789 164.567 65.9622 162.067 67.1289 160C68.3289 157.9 69.9456 156.183 71.9789 154.85C74.0456 153.517 76.4289 152.5 79.1289 151.8C81.8622 151.133 84.8789 150.55 88.1789 150.05C91.5122 149.517 94.7622 149.067 97.9289 148.7C101.129 148.3 103.929 147.917 106.329 147.55L103.729 149.15C103.829 143.817 102.796 139.867 100.629 137.3C98.4622 134.733 94.6956 133.45 89.3289 133.45C85.6289 133.45 82.4956 134.283 79.9289 135.95C77.3956 137.617 75.6122 140.25 74.5789 143.85L67.4289 141.75C68.6622 136.917 71.1456 133.167 74.8789 130.5C78.6122 127.833 83.4622 126.5 89.4289 126.5C94.3622 126.5 98.5456 127.433 101.979 129.3C105.446 131.133 107.896 133.8 109.329 137.3C109.996 138.867 110.429 140.617 110.629 142.55C110.829 144.483 110.929 146.45 110.929 148.45V182H104.379V168.45L106.279 169.25C104.446 173.883 101.596 177.417 97.7289 179.85C93.8622 182.283 89.2289 183.5 83.8289 183.5ZM84.6789 177.15C88.1122 177.15 91.1122 176.533 93.6789 175.3C96.2456 174.067 98.3122 172.383 99.8789 170.25C101.446 168.083 102.462 165.65 102.929 162.95C103.329 161.217 103.546 159.317 103.579 157.25C103.612 155.15 103.629 153.583 103.629 152.55L106.429 154C103.929 154.333 101.212 154.667 98.2789 155C95.3789 155.333 92.5122 155.717 89.6789 156.15C86.8789 156.583 84.3456 157.1 82.0789 157.7C80.5456 158.133 79.0622 158.75 77.6289 159.55C76.1956 160.317 75.0122 161.35 74.0789 162.65C73.1789 163.95 72.7289 165.567 72.7289 167.5C72.7289 169.067 73.1122 170.583 73.8789 172.05C74.6789 173.517 75.9456 174.733 77.6789 175.7C79.4456 176.667 81.7789 177.15 84.6789 177.15Z" fill="#202020"/>
<path d="M156.515 182V118.2L142.965 126.35V118.1L156.515 110H163.965V182H156.515Z" fill="#202020"/>
<path d="M180.93 181.95L180.98 175.25L213.53 145.85C216.33 143.317 218.18 140.917 219.08 138.65C220.013 136.35 220.48 133.95 220.48 131.45C220.48 128.483 219.78 125.8 218.38 123.4C216.98 121 215.096 119.1 212.73 117.7C210.363 116.267 207.713 115.55 204.78 115.55C201.713 115.55 198.98 116.283 196.58 117.75C194.18 119.217 192.28 121.15 190.88 123.55C189.513 125.95 188.846 128.567 188.88 131.4H181.38C181.38 127.033 182.413 123.117 184.48 119.65C186.546 116.183 189.346 113.467 192.88 111.5C196.413 109.5 200.413 108.5 204.88 108.5C209.246 108.5 213.163 109.533 216.63 111.6C220.13 113.633 222.88 116.4 224.88 119.9C226.913 123.367 227.93 127.233 227.93 131.5C227.93 134.5 227.563 137.15 226.83 139.45C226.13 141.717 225.013 143.833 223.48 145.8C221.98 147.733 220.063 149.733 217.73 151.8L188.83 177.9L187.68 174.9H227.93V181.95H180.93Z" fill="#202020"/>
<path d="M259.311 183.45C255.744 183.45 252.461 182.817 249.461 181.55C246.461 180.283 243.878 178.483 241.711 176.15C239.544 173.783 237.961 170.967 236.961 167.7L243.961 165.6C245.161 169.167 247.128 171.867 249.861 173.7C252.628 175.533 255.744 176.417 259.211 176.35C262.411 176.283 265.161 175.567 267.461 174.2C269.794 172.833 271.578 170.933 272.811 168.5C274.044 166.067 274.661 163.25 274.661 160.05C274.661 155.15 273.228 151.217 270.361 148.25C267.528 145.25 263.778 143.75 259.111 143.75C257.811 143.75 256.444 143.933 255.011 144.3C253.578 144.633 252.244 145.117 251.011 145.75L247.311 139.9L275.311 114.05L276.511 117.05H239.811V110H281.411V117.15L257.011 140.45L256.911 137.55C261.911 136.917 266.311 137.483 270.111 139.25C273.911 141.017 276.878 143.717 279.011 147.35C281.178 150.95 282.261 155.183 282.261 160.05C282.261 164.65 281.261 168.717 279.261 172.25C277.294 175.75 274.578 178.5 271.111 180.5C267.644 182.467 263.711 183.45 259.311 183.45Z" fill="#202020"/>
</svg>
