<?xml version="1.0" encoding="utf-8"?>
<!-- Generator: Adobe Illustrator 24.0.1, SVG Export Plug-In . SVG Version: 6.00 Build 0)  -->
<svg version="1.1" id="Layer_1" xmlns="http://www.w3.org/2000/svg" xmlns:xlink="http://www.w3.org/1999/xlink" x="0px" y="0px"
	 viewBox="0 0 100 50" style="enable-background:new 0 0 100 50;" xml:space="preserve">
<style type="text/css">
	.st0{fill:#202020;}
</style>
<g>
	<path class="st0" d="M8.1,34.5c2-0.6,3.7-2.2,3.7-4.7c0-3.1-2.7-4.3-5.6-4.3H0.1c0.6,1.7,0.7,3,0.7,4.7v9.3c0,1.7-0.1,3-0.7,4.7
		h6.2c3.8,0,6.1-2.1,6.1-5.2C12.4,36.1,10.4,35,8.1,34.5z M4.8,26.5c2.6,0,3.8,1.3,3.8,4c0,2.3-1,3.7-3,3.7H3.9v-4
		c0-1.2,0-2.4,0.1-3.6C4.2,26.5,4.5,26.5,4.8,26.5z M5.6,43.1c-0.5,0-1.1,0-1.6-0.2c-0.1-1.1-0.1-2.4-0.1-3.4v-4.2
		c0.5-0.1,1.1-0.1,1.3-0.1c2.4,0,4,1.5,4,4.4C9.1,41.8,8.1,43.1,5.6,43.1z"/>
	<path class="st0" d="M24.7,44.1c-0.6-1.7-0.7-2.7-0.7-4.6V29.5c-1.2,0.5-2.4,1-3.6,1.4c0.5,1.3,0.6,3,0.6,4.7v5.6
		c-0.8,0.9-1.6,1.1-2.3,1.1c-1.8,0-1.9-1.5-1.9-2.5V29.5c-1.2,0.5-2.4,1-3.7,1.4c0.6,1.4,0.7,3,0.7,4.7v4.8c0,2.8,1.2,4,3.3,4
		c1.5,0,2.9-0.7,4-2.3c0.1,0.7,0.3,1.6,0.5,2.1H24.7z"/>
	<path class="st0" d="M43.9,39.4v-5.9c0-2.8-1.2-4-3.2-4c-1.6,0-3.1,0.8-4.2,2.8c-0.3-2-1.5-2.8-3.1-2.8c-1.5,0-3,0.7-4.1,2.6
		c0-0.9-0.2-2.1-0.5-2.7c-1,0.5-2,1-3.1,1.5c0.6,1.3,0.7,2.8,0.7,4.6v4.3c0,1.6-0.1,2.8-0.7,4.3H30c-0.6-1.6-0.7-2.8-0.7-4.3v-6.8
		c0.9-1.1,1.8-1.4,2.5-1.4c1.2,0,1.8,0.8,1.8,2.5v10.1h3.8c-0.6-1.7-0.8-3.1-0.8-4.7v-5.9c0-0.2,0-0.3,0-0.5
		c0.9-1.1,1.8-1.4,2.5-1.4c1.3,0,1.8,0.8,1.8,2.5v5.5c0,1.5,0.1,3.3,0.4,4.6h3.4C44.1,42.4,43.9,41,43.9,39.4z"/>
	<path class="st0" d="M56.6,44.1c-0.7-1.6-0.7-2.7-0.7-4.8V35c0-2.5-0.6-5.5-4.7-5.5c-3.6,0-5.1,2.3-5.1,4.5v0.9l3.4,0.2
		c-0.4-1-0.6-1.9-0.6-2.6c0-1.3,0.7-2,1.8-2c2,0,2.3,2.2,2.3,4.2v0.7c0,0.5-1,1-3,1.8c-1.8,0.7-4.4,1.6-4.4,4.1
		c0,1.8,1.3,3.1,3.4,3.1c1.6,0,3.2-0.8,4.1-2.2c0.1,0.7,0.3,1.5,0.5,2H56.6z M50.6,42.3c-1.4,0-2.2-0.9-2.2-2.2
		c0-1.6,0.8-2.4,3.4-2.4c0.9,0,1,0.1,1,0.7v3.1C52.2,42,51.4,42.3,50.6,42.3z"/>
	<path class="st0" d="M68.5,39.4v-5.9c0-2.8-1.2-4-3.2-4c-1.5,0-3,0.7-4.1,2.6c0-0.9-0.2-2.1-0.5-2.7c-1,0.5-2,1-3.1,1.5
		c0.6,1.3,0.7,2.8,0.7,4.6v4.3c0,1.6-0.1,2.8-0.7,4.3h4.3c-0.6-1.6-0.7-2.8-0.7-4.3v-6.8c0.9-1.1,1.8-1.4,2.5-1.4
		c1.2,0,1.8,0.8,1.8,2.5v5.5c0,1.7,0.1,3.3,0.4,4.6h3.4C68.6,42.4,68.5,41.2,68.5,39.4z"/>
	<path class="st0" d="M70,44.1h4.4c-0.6-1.6-0.7-2.8-0.7-4.3V23.7c-1.2,0.6-2.4,1.1-3.6,1.4c0.6,1.3,0.7,3,0.7,4.8v9.9
		C70.7,41.3,70.6,42.5,70,44.1z"/>
	<path class="st0" d="M86.4,44.1c-0.7-1.6-0.7-2.7-0.7-4.8V35c0-2.5-0.6-5.5-4.7-5.5c-3.6,0-5.1,2.3-5.1,4.5v0.9l3.4,0.2
		c-0.4-1-0.6-1.9-0.6-2.6c0-1.3,0.7-2,1.8-2c2,0,2.3,2.2,2.3,4.2v0.7c0,0.5-1,1-3,1.8c-1.8,0.7-4.4,1.6-4.4,4.1
		c0,1.8,1.3,3.1,3.4,3.1c1.6,0,3.2-0.8,4.1-2.2c0.1,0.7,0.3,1.5,0.5,2H86.4z M80.3,42.3c-1.4,0-2.2-0.9-2.2-2.2
		c0-1.6,0.8-2.4,3.4-2.4c0.9,0,1,0.1,1,0.7v3.1C82,42,81.2,42.3,80.3,42.3z"/>
	<path class="st0" d="M99,26.7c-1.4,0-2.6,0.7-3.3,3.5c-0.8-0.5-1.8-0.7-2.8-0.7c-3.2,0-5.6,2.3-5.6,5.3c0,2,1.1,3.5,2.6,4.3
		c-1.3,1-2.4,2.3-2.4,3.5c0,1.5,1.3,1.9,3.4,1.9h3.2c1.9,0,2.7,0.4,2.7,1.6c0,1.1-1,1.9-2.9,1.9c-1.8,0-3.8-0.6-5.6-2.6l-1.7,2.9
		c1.8,1.2,3.6,1.6,5.6,1.6c3.8,0,6.5-2.5,6.5-5.4c0-2.6-2.1-2.7-4.2-2.7h-2.9c-1,0-1.9,0-1.9-0.7c0-0.5,0.3-1,1.1-1.6
		c0.5,0.2,1.1,0.3,1.8,0.3c3.2,0,5.6-2.4,5.6-5.4c0-1.5-0.7-2.9-1.8-3.7c0.3-0.9,0.9-1.2,1.4-1.2c0.7,0,1.3,0.4,1.7,1.1l0.5-3.7
		C99.7,26.7,99.4,26.7,99,26.7z M92.9,38.7c-2.1,0-2.6-2.8-2.6-4.8c0-2.3,0.9-3.3,2.1-3.3c2,0,2.6,2.6,2.6,4.8
		C95,37.5,94.3,38.7,92.9,38.7z"/>
	<path class="st0" d="M11.9,17.7l-1.2-3.9c-0.4-1.2-0.7-1.8-1.6-2c1.6-0.8,3-2.4,3-4.8c0-4.2-3.2-5.1-6-5.1H0.1
		C0.7,3.6,0.8,5,0.8,6.6v9.3c0,1.6-0.1,3-0.7,4.7h4.6c-0.6-1.7-0.8-3.1-0.8-4.7v-3.2h2c0.6,0,1,0.3,1.4,1.6l2,6.3h4
		C12.7,19.6,12.2,18.8,11.9,17.7z M5,11.7H3.9V6.6c0-1.2,0-2.4,0.1-3.7c0.4,0,0.8,0,1.2,0c2.3,0,3.6,1.6,3.6,4.7
		C8.8,10.8,7.3,11.7,5,11.7z"/>
	<path class="st0" d="M19.1,20.9c3.6,0,5.9-3,5.9-7.6c0-4.3-2.2-7.5-5.7-7.5c-3.5,0-5.9,2.9-5.9,7.5C13.4,17.7,15.6,20.9,19.1,20.9z
		 M19.5,19.8c-2,0-2.8-3.5-2.8-7.3c0-3.5,0.8-5.5,2.3-5.5c2,0,2.8,3.6,2.8,7.4C21.8,17.9,21,19.8,19.5,19.8z"/>
	<path class="st0" d="M37.1,15.9V9.9c0-2.8-1.2-4-3.2-4c-1.5,0-3,0.7-4.1,2.6c0-0.9-0.2-2.1-0.5-2.7c-1,0.5-2,1-3.1,1.5
		c0.6,1.3,0.7,2.8,0.7,4.6v4.3c0,1.6-0.1,2.8-0.7,4.3h4.3c-0.6-1.6-0.7-2.8-0.7-4.3V9.4C30.8,8.3,31.7,8,32.3,8
		c1.2,0,1.8,0.8,1.8,2.5V16c0,1.7,0.1,3.3,0.4,4.6h3.4C37.3,18.9,37.1,17.6,37.1,15.9z"/>
	<path class="st0" d="M49.4,11.2c0-2.8-1.4-5.4-4.8-5.4c-4,0-5.9,3.6-5.9,7.7c0,4.5,2.4,7.4,6,7.4c2.8,0,4.4-1.9,4.7-3.8
		c-0.9,0.7-1.8,1-3.1,1c-3.1,0-4.3-1.9-4.5-4.9h7.8V11.2z M45.3,12.5h-3.6v-0.4c0-3.4,0.9-5.2,2.5-5.2c1.3,0,2.2,1.3,2.2,4.3
		C46.3,12.3,46.1,12.5,45.3,12.5z"/>
	<path class="st0" d="M52.6,4.6c1.2,0,2.2-0.9,2.2-2.1c0-1.2-0.9-2.1-2.2-2.1c-1.3,0-2.1,0.9-2.1,2.1C50.5,3.6,51.4,4.6,52.6,4.6z
		 M50.6,20.6h4.3c-0.6-1.7-0.7-2.7-0.7-4.3V5.9c-1.2,0.6-2.4,1-3.6,1.4c0.6,1.3,0.7,3,0.7,4.7v4.3C51.2,17.8,51.2,18.9,50.6,20.6z"
		/>
	<path class="st0" d="M55.9,20.6h4.4c-0.6-1.6-0.7-2.8-0.7-4.3V0.2c-1.2,0.6-2.4,1.1-3.6,1.4c0.6,1.3,0.7,3,0.7,4.8v9.9
		C56.6,17.8,56.5,19,55.9,20.6z"/>
	<path class="st0" d="M61.1,20.6h4.4c-0.6-1.6-0.7-2.8-0.7-4.3V0.2c-1.2,0.6-2.4,1.1-3.6,1.4c0.6,1.3,0.7,3,0.7,4.8v9.9
		C61.8,17.8,61.7,19,61.1,20.6z"/>
	<path class="st0" d="M77.6,20.6c-0.7-1.6-0.7-2.7-0.7-4.8v-4.4c0-2.5-0.6-5.5-4.7-5.5c-3.6,0-5.1,2.3-5.1,4.5v0.9l3.4,0.2
		c-0.4-1-0.6-1.9-0.6-2.6c0-1.3,0.7-2,1.8-2c2,0,2.3,2.2,2.3,4.2v0.7c0,0.5-1,1-3,1.8c-1.8,0.7-4.4,1.6-4.4,4.1
		c0,1.8,1.3,3.1,3.4,3.1c1.6,0,3.2-0.8,4.1-2.2c0.1,0.7,0.3,1.5,0.5,2H77.6z M71.5,18.7c-1.4,0-2.2-0.9-2.2-2.2
		c0-1.6,0.8-2.4,3.4-2.4c0.9,0,1,0.1,1,0.7v3.1C73.1,18.4,72.4,18.7,71.5,18.7z"/>
</g>
</svg>
