<?xml version="1.0" encoding="utf-8"?>
<!-- Generator: Adobe Illustrator 24.0.1, SVG Export Plug-In . SVG Version: 6.00 Build 0)  -->
<svg version="1.1" id="Layer_1" xmlns="http://www.w3.org/2000/svg" xmlns:xlink="http://www.w3.org/1999/xlink" x="0px" y="0px"
	 viewBox="0 0 225.8 224.9" style="enable-background:new 0 0 225.8 224.9;" xml:space="preserve">
<style type="text/css">
	.st0{fill:#202020;}
</style>
<title>Asset 2</title>
<g id="Layer_2_1_">
	<g id="Layer_1-2">
		<path class="st0" d="M121.2,15l3.8,0.7c0.1,3.6,1.7,5.3,5.3,5.9c3.2,0.6,5.3-0.6,5.8-3s-2.2-3.5-5.5-4.8c-3.8-1.5-7.7-3.5-6.8-8.1
			c0.8-4.1,4.7-6.4,9.5-5.5c5.3,1,8.2,4.2,8,9.6l-3.8-0.7c0.1-3.5-1.6-5.2-4.8-5.8c-2.9-0.5-5,0.6-5.4,2.9c-0.5,2.4,2.5,3.5,5.7,4.7
			c3.7,1.5,7.5,3.4,6.6,8c-0.8,4.3-4.5,6.7-9.8,5.7C123.9,23.6,121.2,20.2,121.2,15z"/>
		<path class="st0" d="M155.9,7.2l3.9,1.7l-1.4,25.4l-3.5-1.5l0.5-7.4l-8.6-3.7l-5.1,5.4l-3.4-1.5L155.9,7.2z M149,19.2l6.6,2.8
			l0.7-10.4L149,19.2z"/>
		<path class="st0" d="M185.6,24.5l-14.5,5.8l-6.2,9l-3-2l6.2-9.1l0.2-15.5l3.4,2.3l-0.3,11.6l10.8-4.4L185.6,24.5z"/>
		<path class="st0" d="M189.2,64.4l-2.2-2.8l8.3-6.5l-7.5-9.5l-8.3,6.5l-2.2-2.8l18.8-14.8l2.2,2.8l-8,6.3l7.5,9.5l8-6.3l2.2,2.8
			L189.2,64.4z"/>
		<path class="st0" d="M205.5,73.6l-3.7-7.9l-6.9,3.2l5.8,12.4l-2.9,1.3L190.5,67l21.7-10.1l7,15.1l-2.9,1.3l-5.5-11.9l-6,2.8
			l3.7,7.9L205.5,73.6z"/>
		<path class="st0" d="M202.2,87.3l2.6,11l-3.2,0.7l-3.4-14.5l23.3-5.4l0.8,3.5L202.2,87.3z"/>
		<path class="st0" d="M205.2,104.6l0.4,11.3l-3.2,0.1l-0.6-14.9l23.9-0.9l0.1,3.6L205.2,104.6z"/>
		<path class="st0" d="M214.6,117.3c7.3,1.2,11.4,6.7,10.2,13.6s-6.9,10.5-14.1,9.3s-11.4-6.6-10.2-13.6S207.3,116.1,214.6,117.3z
			 M211.3,136.5h0.2c5.5,0.9,9.4-1.4,10.2-6.2s-2-8.4-7.6-9.3h-0.2c-5.5-0.9-9.4,1.4-10.3,6.2S205.7,135.6,211.3,136.5z"/>
		<path class="st0" d="M197.4,155.5l3.2-6.7l6.8,3.2l-3.2,6.7L197.4,155.5z"/>
		<path class="st0" d="M194.2,165.2l-2.5,3c-3.2-1.7-5.4-1.1-7.7,1.8c-2,2.5-2,4.9-0.1,6.5s4.1-0.3,6.8-2.6c3.1-2.6,6.8-5,10.4-2.1
			c3.2,2.6,3.4,7.2,0.3,11c-3.4,4.2-7.6,5.2-12.2,2.4l2.4-3c3,1.8,5.3,1.1,7.4-1.4c1.9-2.3,1.9-4.7,0.1-6.1c-2-1.6-4.4,0.5-7,2.7
			c-3.1,2.6-6.6,4.9-10.2,2c-3.4-2.8-3.7-7.1-0.3-11.3C185.4,163.4,189.6,162.7,194.2,165.2z"/>
		<path class="st0" d="M184.4,199.4l-3.3,2.6l-21.6-13.4l3-2.4l6.2,3.9l7.4-5.8l-2.3-7.1l2.9-2.3L184.4,199.4z M177.2,187.5
			l-5.6,4.4l8.9,5.6L177.2,187.5z"/>
		<path class="st0" d="M155.1,217.1l1.8-15.5l-5-9.8l3.2-1.6l5,9.8l13.5,7.6l-3.6,1.9l-10-5.8l-1.3,11.6L155.1,217.1z"/>
		<path class="st0" d="M118.2,201.1l3.6-0.6l1.7,10.5l11.9-2l-1.7-10.4l3.6-0.6l3.9,23.6l-3.6,0.6l-1.7-10l-11.9,2l1.7,10l-3.6,0.6
			L118.2,201.1z"/>
		<path class="st0" d="M102.4,211.1l8.7,0.6l0.5-7.6L98,203.2l0.2-3.2l17.2,1.1l-1.6,23.9l-16.6-1.1l0.2-3.2l13.1,0.9l0.4-6.6
			l-8.7-0.6L102.4,211.1z"/>
		<path class="st0" d="M91.9,201.6l-10.9-3l0.9-3.1l14.3,4l-6.3,23l-3.5-1L91.9,201.6z"/>
		<path class="st0" d="M75.3,196l-10.1-5l1.4-2.9l13.4,6.5l-10.7,21.4l-3.2-1.6L75.3,196z"/>
		<path class="st0" d="M59.6,198.1c-4.6,5.8-11.3,6.8-16.9,2.4s-5.9-11.1-1.3-16.9s11.3-6.8,16.9-2.4S64.2,192.3,59.6,198.1z
			 M44.4,186l-0.1,0.1c-3.5,4.3-3.3,8.9,0.5,11.9s8.3,2.3,11.8-2.2l0.1-0.1c3.5-4.4,3.3-9-0.5-12S47.9,181.5,44.4,186z"/>
		<path class="st0" d="M34.4,164.7l4.4,6l-6,4.4l-4.4-6L34.4,164.7z"/>
		<path class="st0" d="M27.4,157.3l-1.5-3.6c3-2,3.5-4.2,2.1-7.6c-1.2-3-3.3-4.1-5.7-3.2s-1.7,3.8-1,7.2c0.8,4,1.2,8.4-3.1,10.1
			c-3.8,1.6-7.9-0.5-9.8-5c-2-5-0.9-9.2,3.8-11.9l1.5,3.6c-3,1.8-3.5,4.1-2.3,7.2c1.1,2.7,3.2,3.9,5.4,3c2.4-1,1.6-4.1,0.9-7.5
			c-0.8-3.9-1.2-8.1,3.1-9.9c4-1.6,8,0.2,10.1,5.2C33.2,150.4,31.8,154.4,27.4,157.3z"/>
		<path class="st0" d="M2.1,132.2l-0.7-4.2l22.2-12.5l0.6,3.8l-6.5,3.6l1.5,9.2l7.3,1.4l0.6,3.7L2.1,132.2z M16,131.6l-1.2-7.1
			l-9.1,5.1L16,131.6z"/>
		<path class="st0" d="M0.6,98l12.7,9l10.9,0.3l-0.1,3.6l-11-0.3L0,118.8l0.1-4.1l9.9-6l-9.5-6.7L0.6,98z"/>
		<path class="st0" d="M32.2,73.4l-1.2,3.4l-10-3.5l-4,11.4l10,3.5l-1.2,3.4L3.3,83.8l1.2-3.4l9.6,3.3l4-11.4l-9.6-3.3l1.2-3.4
			L32.2,73.4z"/>
		<path class="st0" d="M31.1,54.7L26.4,62l6.4,4.1l7.3-11.5l2.7,1.7l-9.2,14.5L13.5,58l9-14.1l2.7,1.7l-7,11.1l5.6,3.6l4.6-7.3
			L31.1,54.7z"/>
		<path class="st0" d="M44.5,50.1l7.8-8.1l2.3,2.2L44.3,54.9L27.1,38.3l2.5-2.6L44.5,50.1z"/>
		<path class="st0" d="M57.4,38.2l9.2-6.5l1.9,2.6l-12.2,8.5L42.6,23.3l3-2.1L57.4,38.2z"/>
		<path class="st0" d="M63,23.3c-2.9-6.8-0.6-13.2,5.9-16s12.6,0.1,15.4,6.9s0.6,13.2-5.9,16S65.9,30.1,63,23.3z M81,15.8l-0.1-0.2
			c-2.2-5.1-6.3-7.2-10.7-5.3s-6,6.2-3.8,11.4l0.1,0.2c2.2,5.2,6.3,7.2,10.7,5.3S83.2,21,81,15.8z"/>
		<path class="st0" d="M104.4,17.2l-7.3,1l-1-7.4l7.3-1L104.4,17.2z"/>
	</g>
</g>
</svg>
