<svg width="325" height="325" viewBox="0 0 325 325" fill="none" xmlns="http://www.w3.org/2000/svg">
<path d="M63.3186 206.6H60.3986C59.525 206.647 58.6502 206.532 57.8186 206.26C57.5515 206.144 57.3286 205.946 57.1828 205.693C57.037 205.441 56.9759 205.149 57.0086 204.86C57.0122 204.48 57.097 204.104 57.2574 203.759C57.4178 203.415 57.65 203.108 57.9386 202.86C58.5547 202.274 59.2778 201.812 60.0686 201.5C62.2686 200.613 63.5819 199.857 64.0086 199.23C64.7726 197.925 65.4217 196.557 65.9486 195.14C68.0886 189.88 69.8752 187.25 71.3086 187.25C72.0352 187.25 72.4552 188.04 72.5686 189.62C72.6786 191.2 72.7486 192.4 72.7586 193.23C72.7686 194.06 72.7586 195.29 72.7586 196.93C72.7586 198.57 72.7086 199.71 72.7086 200.35L84.0886 200.4C85.095 200.365 86.0852 200.66 86.9086 201.24C87.274 201.497 87.5672 201.843 87.7598 202.246C87.9525 202.649 88.0382 203.094 88.0086 203.54C88.0244 203.965 87.9295 204.386 87.7331 204.763C87.5368 205.14 87.2457 205.46 86.8886 205.69C86.0555 206.226 85.0786 206.495 84.0886 206.46H72.6886V230.89C72.6886 237.81 74.4286 241.27 77.9086 241.27C79.3594 241.17 80.7896 240.871 82.1586 240.38C83.3472 239.946 84.5821 239.65 85.8386 239.5C87.1486 239.5 87.8386 240.25 87.8386 241.74C87.8386 242.92 86.3086 244.1 83.2286 245.28C80.2082 246.449 76.9974 247.05 73.7586 247.05C72.2769 247.104 70.8052 246.787 69.4777 246.127C68.1502 245.467 67.0091 244.484 66.1586 243.27C64.3319 240.763 63.4152 237.45 63.4086 233.33L63.3186 206.6Z" fill="#124787"/>
<path d="M110.699 246.19H106.589C102.419 246.19 99.8285 245.55 98.8485 244.28C98.394 243.684 98.1576 242.949 98.1785 242.2C98.1493 241.854 98.2242 241.507 98.3934 241.205C98.5627 240.902 98.8187 240.656 99.1285 240.5C99.7922 240.172 100.519 239.991 101.259 239.97C102.027 239.943 102.769 239.685 103.389 239.23C103.719 238.968 103.978 238.628 104.144 238.24C104.31 237.852 104.377 237.43 104.339 237.01V211.33C104.339 208.43 103.209 206.87 100.949 206.65C100.729 206.65 100.439 206.58 100.089 206.55L99.3185 206.48L98.7285 206.38C98.5446 206.355 98.3657 206.301 98.1985 206.22L97.8385 205.98C97.6185 205.82 97.5085 205.37 97.5085 204.62C97.5634 204.152 97.7199 203.702 97.9669 203.302C98.2139 202.901 98.5455 202.559 98.9385 202.3C101.032 200.744 103.603 199.966 106.209 200.1C107.866 199.999 109.529 200.11 111.159 200.43C111.603 200.63 112.028 200.871 112.429 201.15C112.793 201.455 113.075 201.846 113.25 202.288C113.425 202.73 113.486 203.208 113.429 203.68V237.06C113.429 238.913 114.455 239.893 116.509 240C118.562 240.107 119.592 240.927 119.599 242.46C119.599 244.21 118.599 245.3 116.729 245.71C114.74 246.075 112.72 246.235 110.699 246.19ZM100.699 186.19C100.731 185.428 100.926 184.683 101.271 184.003C101.616 183.323 102.103 182.725 102.699 182.25C103.892 181.089 105.484 180.431 107.149 180.41C108.834 180.412 110.481 180.917 111.879 181.86C112.568 182.256 113.141 182.827 113.54 183.515C113.939 184.203 114.149 184.985 114.149 185.78C114.157 186.561 113.988 187.333 113.656 188.04C113.323 188.746 112.835 189.369 112.229 189.86C110.927 190.971 109.259 191.559 107.549 191.51C105.82 191.549 104.127 191.01 102.739 189.98C102.118 189.558 101.609 188.992 101.256 188.33C100.902 187.668 100.714 186.93 100.709 186.18L100.699 186.19Z" fill="#124787"/>
<path d="M138.579 265.79H134.469C130.289 265.79 127.705 265.153 126.719 263.88C126.261 263.306 126.011 262.594 126.009 261.86C125.982 261.508 126.064 261.157 126.243 260.853C126.421 260.55 126.689 260.308 127.009 260.16C127.673 259.836 128.399 259.655 129.139 259.63C129.905 259.609 130.646 259.35 131.259 258.89C131.597 258.633 131.866 258.295 132.041 257.907C132.215 257.519 132.29 257.094 132.259 256.67V213.53C132.342 211.93 132.173 210.327 131.759 208.78C131.548 208.302 131.236 207.875 130.844 207.53C130.452 207.185 129.989 206.929 129.489 206.78C129.362 206.72 128.722 206.56 127.569 206.3C125.179 205.73 123.989 204.93 123.989 203.91C123.989 201.43 127.192 200.187 133.599 200.18C136.312 200.18 138.209 200.513 139.289 201.18C140.369 201.847 140.909 203.217 140.909 205.29C140.909 205.93 140.909 206.41 140.909 206.73C143.079 204.537 145.579 202.698 148.319 201.28C151.301 199.928 154.556 199.288 157.829 199.41C161.679 199.405 165.446 200.536 168.659 202.66C171.953 204.752 174.596 207.724 176.289 211.24C178.042 214.955 178.924 219.022 178.869 223.13C178.869 230.043 176.605 235.747 172.079 240.24C167.552 244.733 161.799 246.98 154.819 246.98C150.899 246.98 146.419 245.69 141.379 243.11V256.66C141.379 258.507 142.409 259.487 144.469 259.6C146.519 259.71 147.549 260.53 147.549 262.06C147.549 263.82 146.579 264.903 144.639 265.31C142.641 265.685 140.61 265.846 138.579 265.79ZM169.419 224.15C169.419 216.777 167.282 211.42 163.009 208.08C160.713 206.335 157.891 205.425 155.009 205.5C145.862 205.5 141.285 210.65 141.279 220.95V236.68C143.865 240.013 148.312 241.68 154.619 241.68C156.691 241.764 158.753 241.355 160.636 240.485C162.519 239.616 164.168 238.312 165.449 236.68C168.095 233.427 169.419 229.25 169.419 224.15Z" fill="#124787"/>
<path d="M195.008 265.79H190.898C186.718 265.79 184.135 265.153 183.148 263.88C182.693 263.284 182.456 262.55 182.479 261.8C182.452 261.448 182.534 261.097 182.713 260.793C182.891 260.49 183.158 260.248 183.479 260.1C184.143 259.776 184.869 259.595 185.609 259.57C186.375 259.549 187.116 259.29 187.729 258.83C188.067 258.573 188.336 258.235 188.511 257.847C188.685 257.459 188.76 257.034 188.729 256.61V213.53C188.812 211.93 188.643 210.327 188.229 208.78C188.018 208.302 187.706 207.875 187.314 207.53C186.922 207.185 186.459 206.929 185.958 206.78C185.825 206.72 185.185 206.56 184.038 206.3C181.648 205.73 180.458 204.93 180.458 203.91C180.458 201.43 183.662 200.187 190.068 200.18C192.782 200.18 194.678 200.513 195.758 201.18C196.838 201.847 197.378 203.217 197.378 205.29C197.378 205.93 197.378 206.41 197.378 206.73C199.549 204.537 202.049 202.698 204.788 201.28C207.771 199.928 211.026 199.288 214.298 199.41C218.106 199.42 221.827 200.539 225.008 202.63C228.303 204.722 230.946 207.694 232.639 211.21C234.392 214.925 235.274 218.992 235.219 223.1C235.219 230.013 232.955 235.717 228.428 240.21C223.902 244.703 218.149 246.95 211.169 246.95C207.249 246.95 202.769 245.66 197.729 243.08V256.66C197.729 258.507 198.758 259.487 200.818 259.6C202.818 259.71 203.898 260.53 203.898 262.06C203.898 263.82 202.928 264.903 200.988 265.31C199.018 265.679 197.013 265.84 195.008 265.79ZM225.848 224.15C225.848 216.777 223.712 211.42 219.438 208.08C217.143 206.335 214.321 205.425 211.438 205.5C202.285 205.5 197.708 210.65 197.708 220.95V236.68C200.302 240.013 204.748 241.68 211.048 241.68C213.121 241.764 215.183 241.355 217.066 240.485C218.949 239.616 220.598 238.312 221.878 236.68C224.518 233.427 225.839 229.25 225.839 224.15H225.848Z" fill="#124787"/>
<path d="M243.529 206.6H240.609C239.735 206.647 238.86 206.532 238.029 206.26C237.76 206.144 237.536 205.943 237.39 205.689C237.244 205.435 237.184 205.141 237.219 204.85C237.222 204.47 237.307 204.094 237.467 203.749C237.628 203.405 237.86 203.098 238.149 202.85C238.765 202.264 239.488 201.802 240.279 201.49C242.479 200.603 243.792 199.847 244.219 199.22C244.983 197.915 245.632 196.547 246.159 195.13C248.285 189.87 250.069 187.24 251.509 187.24C252.249 187.24 252.669 188.03 252.779 189.61C252.889 191.19 252.959 192.39 252.969 193.22C252.979 194.05 252.969 195.28 252.969 196.92C252.969 198.56 252.919 199.7 252.919 200.34L264.299 200.39C265.305 200.355 266.295 200.65 267.119 201.23C267.481 201.474 267.777 201.805 267.978 202.193C268.179 202.581 268.279 203.013 268.269 203.45C268.283 203.874 268.187 204.295 267.991 204.672C267.794 205.048 267.504 205.368 267.149 205.6C266.315 206.135 265.338 206.403 264.349 206.37H252.899V230.8C252.899 237.72 254.635 241.18 258.109 241.18C259.563 241.081 260.997 240.782 262.369 240.29C263.557 239.856 264.792 239.56 266.049 239.41C267.359 239.41 268.049 240.16 268.049 241.65C268.049 242.83 266.512 244.01 263.439 245.19C260.418 246.359 257.208 246.959 253.969 246.96C252.487 247.015 251.015 246.698 249.687 246.038C248.359 245.378 247.219 244.395 246.369 243.18C244.529 240.673 243.612 237.36 243.619 233.24L243.529 206.6Z" fill="#124787"/>
<path d="M113.985 150.22C112.453 149.132 111.415 147.48 111.1 145.628C110.785 143.775 111.219 141.873 112.305 140.34C113.815 138.23 139.185 108.8 143.825 103.14C142.621 101.735 141.885 99.9898 141.721 98.1471C141.556 96.3044 141.97 94.4561 142.905 92.8599L156.045 74.3499C157.275 72.6099 158.775 70.9899 160.525 72.1899C160.924 72.5158 161.227 72.9433 161.403 73.4273C161.579 73.9114 161.622 74.434 161.525 74.9399C161.488 75.178 161.396 75.4041 161.255 75.5999L150.795 90.6899C149.955 91.8799 150.395 92.3399 150.875 92.6899C151.145 92.8799 151.595 93.1999 152.505 91.9199L163.055 76.8599C163.465 76.3703 164.044 76.053 164.678 75.9713C165.311 75.8895 165.952 76.0493 166.472 76.4187C166.993 76.7882 167.356 77.3403 167.488 77.965C167.62 78.5897 167.512 79.2413 167.185 79.7899L156.635 94.8599C155.835 95.9999 156.205 96.4099 156.735 96.7799C157.055 97.0099 157.395 97.2499 158.245 96.0499L168.895 81.0499C169.078 80.7894 169.312 80.5693 169.584 80.4032C169.855 80.2372 170.158 80.1287 170.473 80.0847C170.788 80.0406 171.109 80.0618 171.416 80.147C171.722 80.2322 172.008 80.3796 172.255 80.5799C173.585 81.5199 173.415 83.1999 171.745 85.5799L158.595 104.04C157.392 105.441 155.783 106.432 153.991 106.876C152.199 107.321 150.313 107.196 148.595 106.52C144.775 112.77 125.365 146.43 123.855 148.52C122.77 150.052 121.122 151.092 119.272 151.411C117.421 151.729 115.52 151.301 113.985 150.22ZM159.545 73.6199C159.365 73.4899 158.925 73.1899 157.395 75.3399L144.295 93.8599C143.544 95.1854 143.236 96.7161 143.416 98.2289C143.596 99.7417 144.254 101.158 145.295 102.27L146.105 103.04L145.605 103.65C145.215 104.12 115.215 139.17 113.675 141.34C113.267 141.915 112.976 142.565 112.818 143.253C112.661 143.94 112.641 144.652 112.759 145.348C112.877 146.043 113.131 146.709 113.506 147.306C113.881 147.904 114.37 148.422 114.945 148.83C115.52 149.238 116.17 149.529 116.858 149.687C117.546 149.844 118.258 149.864 118.953 149.746C119.649 149.628 120.314 149.374 120.912 148.999C121.509 148.624 122.027 148.135 122.435 147.56C123.985 145.39 147.175 105.56 147.495 104.99L147.905 104.31L148.905 104.82C150.289 105.448 151.838 105.616 153.325 105.299C154.811 104.982 156.157 104.198 157.165 103.06L170.345 84.5399C171.345 83.1999 171.645 82.2099 171.265 81.9399C171.197 81.8736 171.117 81.8224 171.028 81.7897C170.939 81.757 170.844 81.7435 170.749 81.7501C170.655 81.7567 170.563 81.7833 170.479 81.8281C170.396 81.8728 170.323 81.9348 170.265 82.0099L159.625 97.0099C158.095 99.1499 156.625 98.8099 155.725 98.1499C154.825 97.4899 153.605 96.1499 155.225 93.8499L165.785 78.7899C165.995 78.4899 165.865 78.0799 165.475 77.7899C165.341 77.6604 165.162 77.588 164.975 77.588C164.789 77.588 164.609 77.6604 164.475 77.7899L153.905 92.8599C152.185 95.2899 150.525 94.4999 149.905 94.0499C148.385 92.9699 148.215 91.3799 149.425 89.6699L159.945 74.6699C159.974 74.4753 159.952 74.2766 159.882 74.0927C159.812 73.9089 159.696 73.7461 159.545 73.6199Z" fill="#124787" stroke="#124787" stroke-width="0.25" stroke-miterlimit="10"/>
<path d="M161.445 151.08C160.573 150.757 159.773 150.265 159.091 149.633C158.409 149.001 157.858 148.241 157.47 147.396C157.082 146.551 156.864 145.637 156.829 144.708C156.794 143.779 156.942 142.852 157.265 141.98C158.165 139.56 175.155 104.14 178.035 97.7499C172.715 93.7499 171.435 87.7499 174.145 79.6499C175.718 75.6644 178.225 72.1149 181.455 69.2999C185.335 65.9699 189.335 64.8299 192.715 66.0799C196.095 67.3299 198.345 70.7499 199.235 75.7799C199.978 80.0418 199.676 84.4203 198.355 88.5399C195.355 96.7299 190.355 100.54 183.585 99.8599C181.585 106.69 171.445 144.48 170.585 146.86C170.265 147.739 169.774 148.547 169.141 149.236C168.507 149.925 167.744 150.481 166.894 150.874C166.044 151.266 165.125 151.486 164.19 151.522C163.255 151.557 162.322 151.407 161.445 151.08ZM192.115 67.6799C189.345 66.6799 185.955 67.6799 182.575 70.5999C179.564 73.2116 177.228 76.5118 175.765 80.2199C173.285 87.6699 174.445 93.0299 179.335 96.5899L180.145 97.2299L179.865 97.8399C179.625 98.3899 159.785 140.09 158.865 142.58C158.37 143.917 158.427 145.395 159.022 146.69C159.618 147.985 160.703 148.99 162.04 149.485C163.377 149.98 164.855 149.923 166.15 149.327C167.445 148.732 168.45 147.647 168.945 146.31C169.865 143.82 181.945 99.3099 182.135 98.6999L182.335 98.0399L183.465 98.1299C189.465 98.8499 193.975 95.4299 196.745 87.9599C199.055 81.3499 198.135 69.9099 192.115 67.6799Z" fill="#124787" stroke="#124787" stroke-width="0.25" stroke-miterlimit="10"/>
<path d="M206.235 151.53C204.356 151.527 202.556 150.779 201.228 149.45C199.901 148.121 199.155 146.319 199.155 144.44C199.155 141.93 204.085 115.08 205.005 108.63H200.065C199.863 108.637 199.661 108.604 199.472 108.532C199.284 108.459 199.111 108.35 198.965 108.21C198.812 108.066 198.689 107.893 198.605 107.7C198.521 107.508 198.477 107.3 198.475 107.09C198.475 105.89 198.475 94.83 200.265 74C201.485 59.87 205.915 59 208.015 59C208.997 59.0589 209.918 59.492 210.59 60.2102C211.261 60.9283 211.632 61.8767 211.625 62.86C211.705 66.74 213.315 141.96 213.315 144.4C213.319 145.333 213.139 146.258 212.785 147.122C212.431 147.985 211.911 148.771 211.253 149.433C210.596 150.095 209.814 150.621 208.953 150.981C208.092 151.341 207.168 151.527 206.235 151.53ZM200.185 106.92H206.975L206.835 107.92C204.775 122.3 200.835 142.39 200.835 144.46C200.835 145.884 201.401 147.25 202.408 148.257C203.415 149.264 204.781 149.83 206.205 149.83C207.629 149.83 208.995 149.264 210.002 148.257C211.009 147.25 211.575 145.884 211.575 144.46C211.575 142.03 209.905 63.87 209.885 62.94C209.885 62.37 209.415 60.73 207.985 60.73C204.115 60.73 202.435 68.42 201.985 74.17C200.305 94.15 200.195 105.09 200.185 106.92Z" fill="#124787" stroke="#124787" stroke-width="0.25" stroke-miterlimit="10"/>
</svg>
