<svg xmlns="http://www.w3.org/2000/svg" viewBox="0 0 1680 1050"><defs><style>.cls-1{fill:#dbf2fe;}</style></defs><title>Asset 17</title><g id="Layer_2" data-name="Layer 2"><g id="Layer_2-2" data-name="Layer 2"><path class="cls-1" d="M1680,0V308.91a537.49,537.49,0,0,0-87.94-45.22c-152.39-61.44-191,21.23-377.12-28.86-175.14-47.14-195.36-135-368.54-150.29-34.35-3-115.87-10.22-212,19.77-130,40.59-151.77,112.08-250.69,113.51-93.68,1.36-110.62-50.85-207.64-62.77C120.57,148.23,57.52,158.23,0,181.32V0Z"/><path class="cls-1" d="M1680,836.18V1050H0V685.92c41.37,32.53,85.29,59.75,126.49,79.21,94.45,44.61,143.27,33.6,293.84,55.21,369.84,53.09,422,216.84,606.14,176.7,154.63-33.69,141.9-139.77,320.48-174C1506.65,792.34,1588.21,863.47,1680,836.18Z"/></g></g></svg>