<svg id="Layer_1" data-name="Layer 1" xmlns="http://www.w3.org/2000/svg" xmlns:xlink="http://www.w3.org/1999/xlink" viewBox="0 0 531.01 371.53"><defs><style>.cls-1,.cls-33,.cls-39,.cls-42,.cls-54{fill:none;}.cls-2{clip-path:url(#clip-path);}.cls-3{clip-path:url(#clip-path-2);}.cls-4{fill:#f4f3d9;}.cls-5{fill:#fff;}.cls-6{fill:#bababa;}.cls-7{fill:#aef2d5;}.cls-8{fill:#b1d6c9;}.cls-9{fill:#a7cea2;}.cls-10{fill:#c0ebac;}.cls-11{fill:#e7e5ea;}.cls-12{fill:#c4c7c4;}.cls-13{fill:#b0cccc;}.cls-14{fill:#d7ffde;}.cls-15{fill:#589c96;}.cls-16{fill:#9acebb;}.cls-17{fill:#6bb4dc;}.cls-18{fill:#9cc7fa;}.cls-19{fill:#9cc7ff;}.cls-20{fill:#497ebe;}.cls-21{fill:#80a896;}.cls-22{fill:#80c396;}.cls-23{fill:#688faa;}.cls-24{fill:#486d65;}.cls-25{fill:#7daab9;}.cls-26{fill:#6b96dc;}.cls-27{fill:#4478b6;}.cls-28{fill:#486d7d;}.cls-29{fill:#598eb4;}.cls-30{fill:#9cc7df;}.cls-31{fill:#a9d5cc;}.cls-32{fill:#3e6591;}.cls-33{stroke:#526982;opacity:0.48;}.cls-33,.cls-39,.cls-42{stroke-miterlimit:10;}.cls-33,.cls-39{stroke-width:2.25px;}.cls-34{fill:#75a7aa;}.cls-35{fill:#91a5d4;}.cls-36{fill:#7582a7;}.cls-37{fill:#e8ffdc;}.cls-38{fill:#93b6ff;}.cls-39{stroke:#3f7083;}.cls-40{fill:#687884;}.cls-41{fill:#848689;stroke-width:1.12px;}.cls-41,.cls-54{stroke:#939598;stroke-linecap:round;stroke-linejoin:round;}.cls-42{stroke:#bfedff;stroke-width:3px;}.cls-43{fill:#656668;}.cls-44{fill:#547d89;}.cls-45{fill:#8e4f66;}.cls-46{fill:#aa607a;}.cls-47{fill:#969697;}.cls-48{fill:#bd818b;}.cls-49{fill:#e2db81;}.cls-50{fill:#4d6770;}.cls-51{fill:#bdd8fa;}.cls-52{fill:#a9abae;}.cls-53{fill:#7e9097;}.cls-54{stroke-width:1.12px;}.cls-55{fill:#1aabae;}.cls-56{fill:#1a90ae;}.cls-57{fill:#baa986;}.cls-58{fill:#6fb0a9;}.cls-59{fill:#e2c4b0;}.cls-60{fill:#97a9ae;}.cls-61{fill:#bab0a9;}.cls-62{fill:#727981;}.cls-63{fill:#7279a6;}.cls-64{fill:#684f47;}.cls-65{fill:#684f5c;}.cls-66{fill:#136038;}.cls-67{fill:#136074;}.cls-68{fill:#131d38;}</style><clipPath id="clip-path" transform="translate(-15.99 -129.47)"><path class="cls-1" d="M425.39,462.39c-42.84,23.55-99.85,13.28-153.55,11.14s-104.3,3.87-137.7-18.36-78.3-68.55-64.81-105.28,59.47-73,91.77-114,31.5-86.79,93.6-100.53S351,158.43,394.91,198.16s87.3,82.91,94.69,133.15S468.23,438.83,425.39,462.39Z"/></clipPath><clipPath id="clip-path-2" transform="translate(-15.99 -129.47)"><rect class="cls-1" x="-296.53" y="-13.78" width="845.38" height="3059.8"/></clipPath></defs><title>house</title><g class="cls-2"><g class="cls-3"><rect class="cls-4" x="47.94" width="429.73" height="351.07"/></g></g><polygon class="cls-5" points="59.27 156.2 62.07 154.55 62.07 174.08 59.28 175.69 59.27 156.2"/><polygon class="cls-6" points="62.07 174.08 60.67 173.44 59.28 174.08 59.28 175.69 62.07 174.08"/><polygon class="cls-6" points="60.67 155.36 60.67 173.44 62.07 174.08 62.07 154.55 60.67 155.36"/><polygon class="cls-5" points="51.14 160.96 53.94 159.31 53.94 178.84 51.15 180.45 51.14 160.96"/><polygon class="cls-6" points="53.94 178.84 52.54 178.2 51.15 178.84 51.15 180.45 53.94 178.84"/><polygon class="cls-6" points="52.54 160.11 52.54 178.2 53.94 178.84 53.94 159.31 52.54 160.11"/><polygon class="cls-5" points="55.24 158.56 58.03 156.91 58.04 176.45 55.25 178.06 55.24 158.56"/><polygon class="cls-6" points="58.03 176.45 56.63 175.81 55.24 176.45 55.25 178.06 58.03 176.45"/><polygon class="cls-6" points="56.64 157.72 56.63 175.81 58.03 176.45 58.03 156.91 56.64 157.72"/><polygon class="cls-5" points="62.96 154.13 65.75 152.48 65.75 172.02 62.97 173.63 62.96 154.13"/><polygon class="cls-6" points="65.75 172.02 64.35 171.38 62.96 172.02 62.96 173.63 65.75 172.02"/><polygon class="cls-6" points="64.36 153.29 64.35 171.38 65.75 172.02 65.75 152.48 64.36 153.29"/><polygon class="cls-5" points="66.81 152.1 69.61 150.45 69.61 169.98 66.82 171.59 66.81 152.1"/><polygon class="cls-6" points="69.61 169.98 68.21 169.34 66.82 169.98 66.82 171.59 69.61 169.98"/><polygon class="cls-6" points="68.21 151.25 68.21 169.34 69.61 169.98 69.61 150.45 68.21 151.25"/><polygon class="cls-5" points="71.19 149.4 73.98 147.75 73.99 167.28 71.2 168.89 71.19 149.4"/><polygon class="cls-6" points="73.98 167.28 72.59 166.64 71.2 167.28 71.2 168.89 73.98 167.28"/><polygon class="cls-6" points="72.59 148.55 72.59 166.64 73.98 167.28 73.98 147.75 72.59 148.55"/><polygon class="cls-5" points="75.11 147.15 77.9 145.5 77.9 165.03 75.12 166.64 75.11 147.15"/><polygon class="cls-6" points="77.9 165.03 76.5 164.39 75.11 165.03 75.11 166.64 77.9 165.03"/><polygon class="cls-6" points="76.51 146.3 76.5 164.39 77.9 165.03 77.9 145.5 76.51 146.3"/><polygon class="cls-5" points="78.96 144.9 81.75 143.25 81.75 162.78 78.97 164.39 78.96 144.9"/><polygon class="cls-6" points="81.75 162.78 80.35 162.14 78.96 162.78 78.96 164.39 81.75 162.78"/><polygon class="cls-6" points="80.35 144.06 80.35 162.14 81.75 162.78 81.75 143.25 80.35 144.06"/><polygon class="cls-5" points="82.97 142.65 85.77 141 85.77 160.53 82.98 162.14 82.97 142.65"/><polygon class="cls-6" points="85.77 160.53 84.37 159.89 82.98 160.53 82.98 162.14 85.77 160.53"/><polygon class="cls-6" points="84.37 141.81 84.37 159.89 85.77 160.53 85.77 141 84.37 141.81"/><polygon class="cls-5" points="87.13 140.22 89.92 138.57 89.92 158.11 87.14 159.72 87.13 140.22"/><polygon class="cls-6" points="89.92 158.11 88.52 157.47 87.13 158.11 87.13 159.72 89.92 158.11"/><polygon class="cls-6" points="88.53 139.38 88.52 157.47 89.92 158.11 89.92 138.57 88.53 139.38"/><polygon class="cls-5" points="91.4 137.97 94.19 136.32 94.19 155.86 91.41 157.47 91.4 137.97"/><polygon class="cls-6" points="94.19 155.86 92.79 155.22 91.4 155.86 91.4 157.47 94.19 155.86"/><polygon class="cls-6" points="92.8 137.13 92.79 155.22 94.19 155.86 94.19 136.32 92.8 137.13"/><polygon class="cls-5" points="95.65 135.72 98.44 134.07 98.44 153.61 95.66 155.22 95.65 135.72"/><polygon class="cls-6" points="98.44 153.61 97.04 152.97 95.65 153.61 95.65 155.22 98.44 153.61"/><polygon class="cls-6" points="97.05 134.88 97.04 152.97 98.44 153.61 98.44 134.07 97.05 134.88"/><polygon class="cls-5" points="99.38 133.48 102.17 131.83 102.17 151.36 99.39 152.97 99.38 133.48"/><polygon class="cls-6" points="102.17 151.36 100.77 150.72 99.38 151.36 99.38 152.97 102.17 151.36"/><polygon class="cls-6" points="100.78 132.63 100.77 150.72 102.17 151.36 102.17 131.83 100.78 132.63"/><polygon class="cls-5" points="103.22 131.29 106.01 129.64 106.02 149.17 103.23 150.78 103.22 131.29"/><polygon class="cls-6" points="106.01 149.17 104.61 148.53 103.22 149.17 103.22 150.78 106.01 149.17"/><polygon class="cls-6" points="104.62 130.44 104.61 148.53 106.01 149.17 106.01 129.64 104.62 130.44"/><polygon class="cls-5" points="115.63 123.92 118.43 122.28 118.43 141.81 115.64 143.42 115.63 123.92"/><polygon class="cls-6" points="118.43 141.81 117.03 141.17 115.64 141.81 115.64 143.42 118.43 141.81"/><polygon class="cls-6" points="117.03 123.08 117.03 141.17 118.43 141.81 118.43 122.28 117.03 123.08"/><polygon class="cls-5" points="107.5 128.68 110.29 127.03 110.3 146.57 107.51 148.18 107.5 128.68"/><polygon class="cls-6" points="110.29 146.57 108.9 145.93 107.51 146.57 107.51 148.18 110.29 146.57"/><polygon class="cls-6" points="108.9 127.84 108.9 145.93 110.29 146.57 110.29 127.03 108.9 127.84"/><polygon class="cls-5" points="111.6 126.29 114.39 124.64 114.39 144.17 111.61 145.78 111.6 126.29"/><polygon class="cls-6" points="114.39 144.17 112.99 143.53 111.6 144.17 111.6 145.78 114.39 144.17"/><polygon class="cls-6" points="113 125.44 112.99 143.53 114.39 144.17 114.39 124.64 113 125.44"/><polygon class="cls-5" points="119.32 121.86 122.11 120.21 122.11 139.74 119.33 141.35 119.32 121.86"/><polygon class="cls-6" points="122.11 139.74 120.71 139.1 119.32 139.74 119.32 141.35 122.11 139.74"/><polygon class="cls-6" points="120.72 121.01 120.71 139.1 122.11 139.74 122.11 120.21 120.72 121.01"/><polygon class="cls-5" points="123.17 119.82 125.97 118.17 125.97 137.71 123.18 139.31 123.17 119.82"/><polygon class="cls-6" points="125.97 137.71 124.57 137.07 123.18 137.71 123.18 139.31 125.97 137.71"/><polygon class="cls-6" points="124.57 118.98 124.57 137.07 125.97 137.71 125.97 118.17 124.57 118.98"/><polygon class="cls-5" points="127.55 117.12 130.34 115.47 130.35 135 127.56 136.61 127.55 117.12"/><polygon class="cls-6" points="130.34 135 128.94 134.37 127.55 135 127.56 136.61 130.34 135"/><polygon class="cls-6" points="128.95 116.28 128.94 134.37 130.34 135 130.34 115.47 128.95 116.28"/><polygon class="cls-5" points="131.47 114.87 134.26 113.22 134.26 132.76 131.48 134.37 131.47 114.87"/><polygon class="cls-6" points="134.26 132.76 132.86 132.12 131.47 132.76 131.47 134.37 134.26 132.76"/><polygon class="cls-6" points="132.87 114.03 132.86 132.12 134.26 132.76 134.26 113.22 132.87 114.03"/><polygon class="cls-5" points="135.31 112.62 138.11 110.97 138.11 130.51 135.32 132.12 135.31 112.62"/><polygon class="cls-6" points="138.11 130.51 136.71 129.87 135.32 130.51 135.32 132.12 138.11 130.51"/><polygon class="cls-6" points="136.71 111.78 136.71 129.87 138.11 130.51 138.11 110.97 136.71 111.78"/><polygon class="cls-5" points="139.33 110.37 142.13 108.72 142.13 128.26 139.34 129.87 139.33 110.37"/><polygon class="cls-6" points="142.13 128.26 140.73 127.62 139.34 128.26 139.34 129.87 142.13 128.26"/><polygon class="cls-6" points="140.73 109.53 140.73 127.62 142.13 128.26 142.13 108.72 140.73 109.53"/><polygon class="cls-5" points="143.49 107.95 146.28 106.3 146.28 125.83 143.5 127.44 143.49 107.95"/><polygon class="cls-6" points="146.28 125.83 144.88 125.19 143.49 125.83 143.49 127.44 146.28 125.83"/><polygon class="cls-6" points="144.89 107.1 144.88 125.19 146.28 125.83 146.28 106.3 144.89 107.1"/><polygon class="cls-5" points="147.76 105.7 150.55 104.05 150.55 123.58 147.76 125.19 147.76 105.7"/><polygon class="cls-6" points="150.55 123.58 149.15 122.94 147.76 123.58 147.76 125.19 150.55 123.58"/><polygon class="cls-6" points="149.16 104.85 149.15 122.94 150.55 123.58 150.55 104.05 149.16 104.85"/><polygon class="cls-5" points="152.01 103.45 154.8 101.8 154.8 121.33 152.01 122.94 152.01 103.45"/><polygon class="cls-6" points="154.8 121.33 153.4 120.69 152.01 121.33 152.01 122.94 154.8 121.33"/><polygon class="cls-6" points="153.4 102.6 153.4 120.69 154.8 121.33 154.8 101.8 153.4 102.6"/><polygon class="cls-5" points="155.74 101.2 158.53 99.55 158.53 119.08 155.74 120.69 155.74 101.2"/><polygon class="cls-6" points="158.53 119.08 157.13 118.44 155.74 119.08 155.74 120.69 158.53 119.08"/><polygon class="cls-6" points="157.13 100.36 157.13 118.44 158.53 119.08 158.53 99.55 157.13 100.36"/><polygon class="cls-5" points="159.58 99.01 162.37 97.36 162.38 116.9 159.59 118.51 159.58 99.01"/><polygon class="cls-6" points="162.37 116.9 160.97 116.26 159.58 116.9 159.58 118.51 162.37 116.9"/><polygon class="cls-6" points="160.98 98.17 160.97 116.26 162.37 116.9 162.37 97.36 160.98 98.17"/><polygon class="cls-5" points="171.53 92 174.32 90.35 174.33 109.88 171.54 111.49 171.53 92"/><polygon class="cls-6" points="174.32 109.88 172.93 109.24 171.54 109.88 171.54 111.49 174.32 109.88"/><polygon class="cls-6" points="172.93 91.15 172.93 109.24 174.32 109.88 174.32 90.35 172.93 91.15"/><polygon class="cls-5" points="163.4 96.75 166.19 95.11 166.2 114.64 163.41 116.25 163.4 96.75"/><polygon class="cls-6" points="166.19 114.64 164.8 114 163.41 114.64 163.41 116.25 166.19 114.64"/><polygon class="cls-6" points="164.8 95.91 164.8 114 166.19 114.64 166.19 95.11 164.8 95.91"/><polygon class="cls-5" points="167.5 94.36 170.29 92.71 170.29 112.24 167.51 113.85 167.5 94.36"/><polygon class="cls-6" points="170.29 112.24 168.89 111.6 167.5 112.24 167.5 113.85 170.29 112.24"/><polygon class="cls-6" points="168.9 93.52 168.89 111.6 170.29 112.24 170.29 92.71 168.9 93.52"/><polygon class="cls-5" points="175.22 89.93 178.01 88.28 178.01 107.81 175.23 109.42 175.22 89.93"/><polygon class="cls-6" points="178.01 107.81 176.61 107.17 175.22 107.81 175.22 109.42 178.01 107.81"/><polygon class="cls-6" points="176.62 89.08 176.61 107.17 178.01 107.81 178.01 88.28 176.62 89.08"/><polygon class="cls-5" points="179.07 87.89 181.87 86.25 181.87 105.78 179.08 107.39 179.07 87.89"/><polygon class="cls-6" points="181.87 105.78 180.47 105.14 179.08 105.78 179.08 107.39 181.87 105.78"/><polygon class="cls-6" points="180.47 87.05 180.47 105.14 181.87 105.78 181.87 86.25 180.47 87.05"/><polygon class="cls-5" points="183.45 85.19 186.24 83.55 186.25 103.08 183.46 104.69 183.45 85.19"/><polygon class="cls-6" points="186.24 103.08 184.84 102.44 183.45 103.08 183.46 104.69 186.24 103.08"/><polygon class="cls-6" points="184.85 84.35 184.84 102.44 186.24 103.08 186.24 83.55 184.85 84.35"/><polygon class="cls-5" points="187.37 82.94 190.16 81.3 190.16 100.83 187.38 102.44 187.37 82.94"/><polygon class="cls-6" points="190.16 100.83 188.76 100.19 187.37 100.83 187.37 102.44 190.16 100.83"/><polygon class="cls-6" points="188.76 82.1 188.76 100.19 190.16 100.83 190.16 81.3 188.76 82.1"/><polygon class="cls-5" points="191.22 80.7 194.01 79.05 194.01 98.58 191.22 100.19 191.22 80.7"/><polygon class="cls-6" points="194.01 98.58 192.61 97.94 191.22 98.58 191.22 100.19 194.01 98.58"/><polygon class="cls-6" points="192.61 79.85 192.61 97.94 194.01 98.58 194.01 79.05 192.61 79.85"/><polygon class="cls-5" points="195.23 78.45 198.03 76.8 198.03 96.33 195.24 97.94 195.23 78.45"/><polygon class="cls-6" points="198.03 96.33 196.63 95.69 195.24 96.33 195.24 97.94 198.03 96.33"/><polygon class="cls-6" points="196.63 77.6 196.63 95.69 198.03 96.33 198.03 76.8 196.63 77.6"/><polygon class="cls-5" points="199.39 76.02 202.18 74.37 202.18 93.9 199.4 95.51 199.39 76.02"/><polygon class="cls-6" points="202.18 93.9 200.78 93.26 199.39 93.9 199.39 95.51 202.18 93.9"/><polygon class="cls-6" points="200.79 75.17 200.78 93.26 202.18 93.9 202.18 74.37 200.79 75.17"/><polygon class="cls-5" points="203.66 73.77 206.45 72.12 206.45 91.66 203.66 93.26 203.66 73.77"/><polygon class="cls-6" points="206.45 91.66 205.05 91.02 203.66 91.66 203.66 93.26 206.45 91.66"/><polygon class="cls-6" points="205.06 72.93 205.05 91.02 206.45 91.66 206.45 72.12 205.06 72.93"/><polygon class="cls-5" points="207.91 71.52 210.7 69.87 210.7 89.41 207.91 91.02 207.91 71.52"/><polygon class="cls-6" points="210.7 89.41 209.3 88.77 207.91 89.41 207.91 91.02 210.7 89.41"/><polygon class="cls-6" points="209.3 70.68 209.3 88.77 210.7 89.41 210.7 69.87 209.3 70.68"/><polygon class="cls-5" points="211.64 69.27 214.43 67.62 214.43 87.16 211.64 88.77 211.64 69.27"/><polygon class="cls-6" points="214.43 87.16 213.03 86.52 211.64 87.16 211.64 88.77 214.43 87.16"/><polygon class="cls-6" points="213.03 68.43 213.03 86.52 214.43 87.16 214.43 67.62 213.03 68.43"/><polygon class="cls-5" points="215.48 67.09 218.27 65.44 218.28 84.97 215.49 86.58 215.48 67.09"/><polygon class="cls-6" points="218.27 84.97 216.87 84.33 215.48 84.97 215.48 86.58 218.27 84.97"/><polygon class="cls-6" points="216.88 66.24 216.87 84.33 218.27 84.97 218.27 65.44 216.88 66.24"/><polygon class="cls-5" points="227.27 60.35 230.06 58.71 230.07 78.24 227.28 79.85 227.27 60.35"/><polygon class="cls-6" points="230.06 78.24 228.66 77.6 227.28 78.24 227.28 79.85 230.06 78.24"/><polygon class="cls-6" points="228.67 59.51 228.66 77.6 230.06 78.24 230.06 58.71 228.67 59.51"/><polygon class="cls-5" points="219.14 65.11 221.93 63.46 221.94 83 219.15 84.61 219.14 65.11"/><polygon class="cls-6" points="221.93 83 220.53 82.36 219.14 83 219.14 84.61 221.93 83"/><polygon class="cls-6" points="220.54 64.27 220.53 82.36 221.93 83 221.93 63.46 220.54 64.27"/><polygon class="cls-5" points="223.24 62.72 226.03 61.07 226.03 80.6 223.25 82.21 223.24 62.72"/><polygon class="cls-6" points="226.03 80.6 224.63 79.96 223.24 80.6 223.24 82.21 226.03 80.6"/><polygon class="cls-6" points="224.63 61.87 224.63 79.96 226.03 80.6 226.03 61.07 224.63 61.87"/><polygon class="cls-5" points="230.96 58.29 233.75 56.64 233.75 76.17 230.96 77.78 230.96 58.29"/><polygon class="cls-6" points="233.75 76.17 232.35 75.53 230.96 76.17 230.96 77.78 233.75 76.17"/><polygon class="cls-6" points="232.35 57.44 232.35 75.53 233.75 76.17 233.75 56.64 232.35 57.44"/><polygon class="cls-5" points="234.81 56.25 237.6 54.6 237.61 74.14 234.82 75.75 234.81 56.25"/><polygon class="cls-6" points="237.6 74.14 236.21 73.5 234.81 74.14 234.82 75.75 237.6 74.14"/><polygon class="cls-6" points="236.21 55.41 236.21 73.5 237.6 74.14 237.6 54.6 236.21 55.41"/><polygon class="cls-5" points="239.19 53.55 241.98 51.9 241.98 71.44 239.2 73.05 239.19 53.55"/><polygon class="cls-6" points="241.98 71.44 240.58 70.8 239.19 71.44 239.19 73.05 241.98 71.44"/><polygon class="cls-6" points="240.59 52.71 240.58 70.8 241.98 71.44 241.98 51.9 240.59 52.71"/><polygon class="cls-5" points="243.1 51.3 245.9 49.65 245.9 69.19 243.11 70.8 243.1 51.3"/><polygon class="cls-6" points="245.9 69.19 244.5 68.55 243.11 69.19 243.11 70.8 245.9 69.19"/><polygon class="cls-6" points="244.5 50.46 244.5 68.55 245.9 69.19 245.9 49.65 244.5 50.46"/><polygon class="cls-5" points="246.95 49.05 249.74 47.4 249.75 66.94 246.96 68.55 246.95 49.05"/><polygon class="cls-6" points="249.74 66.94 248.35 66.3 246.96 66.94 246.96 68.55 249.74 66.94"/><polygon class="cls-6" points="248.35 48.21 248.35 66.3 249.74 66.94 249.74 47.4 248.35 48.21"/><polygon class="cls-5" points="250.97 46.8 253.76 45.16 253.77 64.69 250.98 66.3 250.97 46.8"/><polygon class="cls-6" points="253.76 64.69 252.37 64.05 250.97 64.69 250.98 66.3 253.76 64.69"/><polygon class="cls-6" points="252.37 45.96 252.37 64.05 253.76 64.69 253.76 45.16 252.37 45.96"/><line class="cls-1" x1="308.54" y1="220.82" x2="296.12" y2="227.99"/><polyline class="cls-7" points="53.33 186.84 152.34 129.66 263.29 65.14 432.36 162.29 431.99 262.68 313.8 337.64 53.33 186.84"/><polygon class="cls-8" points="49.84 185.24 55.43 185.63 313.73 334.03 313.8 337.64 49.84 185.24"/><polygon class="cls-9" points="264.12 36.46 263.29 65.14 527.68 217.1 529.39 189.2 264.12 36.46"/><polygon class="cls-9" points="53.33 187.27 152.34 129.66 152.4 100.96 53.33 158.16 53.33 187.27"/><polygon class="cls-9" points="264.12 36.46 152.4 100.96 152.34 129.66 263.29 65.14 264.12 36.46"/><polygon class="cls-5" points="62.76 158.23 65.55 156.58 65.56 176.12 62.77 177.72 62.76 158.23"/><polygon class="cls-10" points="65.55 176.12 64.16 175.47 62.77 176.12 62.77 177.72 65.55 176.12"/><polygon class="cls-10" points="64.16 157.39 64.16 175.47 65.55 176.12 65.55 156.58 64.16 157.39"/><polygon class="cls-5" points="54.63 162.99 57.42 161.34 57.42 180.87 54.64 182.48 54.63 162.99"/><polygon class="cls-10" points="57.42 180.87 56.02 180.23 54.63 180.87 54.63 182.48 57.42 180.87"/><polygon class="cls-10" points="56.03 162.14 56.02 180.23 57.42 180.87 57.42 161.34 56.03 162.14"/><polygon class="cls-5" points="58.73 160.59 61.52 158.94 61.52 178.48 58.73 180.09 58.73 160.59"/><polygon class="cls-10" points="61.52 178.48 60.12 177.84 58.73 178.48 58.73 180.09 61.52 178.48"/><polygon class="cls-10" points="60.13 159.75 60.12 177.84 61.52 178.48 61.52 158.94 60.13 159.75"/><polygon class="cls-5" points="66.45 156.16 69.24 154.51 69.24 174.05 66.45 175.66 66.45 156.16"/><polygon class="cls-10" points="69.24 174.05 67.84 173.41 66.45 174.05 66.45 175.66 69.24 174.05"/><polygon class="cls-10" points="67.84 155.32 67.84 173.41 69.24 174.05 69.24 154.51 67.84 155.32"/><polygon class="cls-5" points="70.3 154.13 73.09 152.48 73.1 172.01 70.31 173.62 70.3 154.13"/><polygon class="cls-10" points="73.09 172.01 71.69 171.37 70.31 172.01 70.31 173.62 73.09 172.01"/><polygon class="cls-10" points="71.7 153.28 71.69 171.37 73.09 172.01 73.09 152.48 71.7 153.28"/><polygon class="cls-5" points="74.68 151.43 77.47 149.78 77.47 169.31 74.69 170.92 74.68 151.43"/><polygon class="cls-10" points="77.47 169.31 76.07 168.67 74.68 169.31 74.68 170.92 77.47 169.31"/><polygon class="cls-10" points="76.08 150.58 76.07 168.67 77.47 169.31 77.47 149.78 76.08 150.58"/><polygon class="cls-5" points="78.59 149.18 81.39 147.53 81.39 167.06 78.6 168.67 78.59 149.18"/><polygon class="cls-10" points="81.39 167.06 79.99 166.42 78.6 167.06 78.6 168.67 81.39 167.06"/><polygon class="cls-10" points="79.99 148.33 79.99 166.42 81.39 167.06 81.39 147.53 79.99 148.33"/><polygon class="cls-5" points="82.44 146.93 85.23 145.28 85.24 164.81 82.45 166.42 82.44 146.93"/><polygon class="cls-10" points="85.23 164.81 83.84 164.17 82.45 164.81 82.45 166.42 85.23 164.81"/><polygon class="cls-10" points="83.84 146.09 83.84 164.17 85.23 164.81 85.23 145.28 83.84 146.09"/><polygon class="cls-5" points="86.46 144.68 89.25 143.03 89.26 162.56 86.47 164.17 86.46 144.68"/><polygon class="cls-10" points="89.25 162.56 87.86 161.93 86.47 162.56 86.47 164.17 89.25 162.56"/><polygon class="cls-10" points="87.86 143.84 87.86 161.93 89.25 162.56 89.25 143.03 87.86 143.84"/><polygon class="cls-5" points="90.62 142.25 93.41 140.6 93.41 160.14 90.62 161.75 90.62 142.25"/><polygon class="cls-10" points="93.41 160.14 92.01 159.5 90.62 160.14 90.62 161.75 93.41 160.14"/><polygon class="cls-10" points="92.01 141.41 92.01 159.5 93.41 160.14 93.41 140.6 92.01 141.41"/><polygon class="cls-5" points="94.89 140 97.68 138.35 97.68 157.89 94.89 159.5 94.89 140"/><polygon class="cls-10" points="97.68 157.89 96.28 157.25 94.89 157.89 94.89 159.5 97.68 157.89"/><polygon class="cls-10" points="96.28 139.16 96.28 157.25 97.68 157.89 97.68 138.35 96.28 139.16"/><polygon class="cls-5" points="99.13 137.76 101.92 136.11 101.93 155.64 99.14 157.25 99.13 137.76"/><polygon class="cls-10" points="101.92 155.64 100.53 155 99.14 155.64 99.14 157.25 101.92 155.64"/><polygon class="cls-10" points="100.53 136.91 100.53 155 101.92 155.64 101.92 136.11 100.53 136.91"/><polygon class="cls-5" points="102.86 135.51 105.66 133.86 105.66 153.39 102.87 155 102.86 135.51"/><polygon class="cls-10" points="105.66 153.39 104.26 152.75 102.87 153.39 102.87 155 105.66 153.39"/><polygon class="cls-10" points="104.26 134.66 104.26 152.75 105.66 153.39 105.66 133.86 104.26 134.66"/><polygon class="cls-5" points="106.71 133.32 109.5 131.67 109.5 151.2 106.72 152.81 106.71 133.32"/><polygon class="cls-10" points="109.5 151.2 108.1 150.56 106.71 151.2 106.71 152.81 109.5 151.2"/><polygon class="cls-10" points="108.11 132.48 108.1 150.56 109.5 151.2 109.5 131.67 108.11 132.48"/><polygon class="cls-5" points="119.12 125.95 121.91 124.31 121.92 143.84 119.13 145.45 119.12 125.95"/><polygon class="cls-10" points="121.91 143.84 120.51 143.2 119.12 143.84 119.12 145.45 121.91 143.84"/><polygon class="cls-10" points="120.52 125.11 120.51 143.2 121.91 143.84 121.91 124.31 120.52 125.11"/><polygon class="cls-5" points="110.99 130.71 113.78 129.06 113.78 148.6 111 150.21 110.99 130.71"/><polygon class="cls-10" points="113.78 148.6 112.38 147.96 110.99 148.6 110.99 150.21 113.78 148.6"/><polygon class="cls-10" points="112.39 129.87 112.38 147.96 113.78 148.6 113.78 129.06 112.39 129.87"/><polygon class="cls-5" points="115.09 128.32 117.88 126.67 117.88 146.2 115.09 147.81 115.09 128.32"/><polygon class="cls-10" points="117.88 146.2 116.48 145.56 115.09 146.2 115.09 147.81 117.88 146.2"/><polygon class="cls-10" points="116.48 127.47 116.48 145.56 117.88 146.2 117.88 126.67 116.48 127.47"/><polygon class="cls-5" points="122.8 123.89 125.6 122.24 125.6 141.77 122.81 143.38 122.8 123.89"/><polygon class="cls-10" points="125.6 141.77 124.2 141.13 122.81 141.77 122.81 143.38 125.6 141.77"/><polygon class="cls-10" points="124.2 123.04 124.2 141.13 125.6 141.77 125.6 122.24 124.2 123.04"/><polygon class="cls-5" points="126.66 121.85 129.45 120.2 129.46 139.74 126.67 141.34 126.66 121.85"/><polygon class="cls-10" points="129.45 139.74 128.05 139.1 126.66 139.74 126.66 141.34 129.45 139.74"/><polygon class="cls-10" points="128.06 121.01 128.05 139.1 129.45 139.74 129.45 120.2 128.06 121.01"/><polygon class="cls-5" points="131.04 119.15 133.83 117.5 133.83 137.04 131.04 138.65 131.04 119.15"/><polygon class="cls-10" points="133.83 137.04 132.43 136.4 131.04 137.04 131.04 138.65 133.83 137.04"/><polygon class="cls-10" points="132.43 118.31 132.43 136.4 133.83 137.04 133.83 117.5 132.43 118.31"/><polygon class="cls-5" points="134.95 116.9 137.75 115.25 137.75 134.79 134.96 136.4 134.95 116.9"/><polygon class="cls-10" points="137.75 134.79 136.35 134.15 134.96 134.79 134.96 136.4 137.75 134.79"/><polygon class="cls-10" points="136.35 116.06 136.35 134.15 137.75 134.79 137.75 115.25 136.35 116.06"/><polygon class="cls-5" points="138.8 114.65 141.59 113 141.6 132.54 138.81 134.15 138.8 114.65"/><polygon class="cls-10" points="141.59 132.54 140.19 131.9 138.81 132.54 138.81 134.15 141.59 132.54"/><polygon class="cls-10" points="140.2 113.81 140.19 131.9 141.59 132.54 141.59 113 140.2 113.81"/><polygon class="cls-5" points="142.82 112.41 145.61 110.75 145.62 130.29 142.83 131.9 142.82 112.41"/><polygon class="cls-10" points="145.61 130.29 144.21 129.65 142.82 130.29 142.82 131.9 145.61 130.29"/><polygon class="cls-10" points="144.22 111.56 144.21 129.65 145.61 130.29 145.61 110.75 144.22 111.56"/><polygon class="cls-5" points="146.97 109.98 149.77 108.33 149.77 127.86 146.98 129.47 146.97 109.98"/><polygon class="cls-10" points="149.77 127.86 148.37 127.22 146.98 127.86 146.98 129.47 149.77 127.86"/><polygon class="cls-10" points="148.37 109.13 148.37 127.22 149.77 127.86 149.77 108.33 148.37 109.13"/><polygon class="cls-5" points="151.24 107.73 154.03 106.08 154.04 125.61 151.25 127.22 151.24 107.73"/><polygon class="cls-10" points="154.03 125.61 152.64 124.97 151.25 125.61 151.25 127.22 154.03 125.61"/><polygon class="cls-10" points="152.64 106.88 152.64 124.97 154.03 125.61 154.03 106.08 152.64 106.88"/><polygon class="cls-5" points="155.49 105.48 158.28 103.83 158.29 123.36 155.5 124.97 155.49 105.48"/><polygon class="cls-10" points="158.28 123.36 156.89 122.72 155.5 123.36 155.5 124.97 158.28 123.36"/><polygon class="cls-10" points="156.89 104.64 156.89 122.72 158.28 123.36 158.28 103.83 156.89 104.64"/><polygon class="cls-5" points="159.22 103.23 162.01 101.58 162.02 121.11 159.23 122.72 159.22 103.23"/><polygon class="cls-10" points="162.01 121.11 160.62 120.47 159.23 121.11 159.23 122.72 162.01 121.11"/><polygon class="cls-10" points="160.62 102.39 160.62 120.47 162.01 121.11 162.01 101.58 160.62 102.39"/><polygon class="cls-5" points="163.07 101.05 165.86 99.39 165.86 118.93 163.07 120.54 163.07 101.05"/><polygon class="cls-10" points="165.86 118.93 164.46 118.29 163.07 118.93 163.07 120.54 165.86 118.93"/><polygon class="cls-10" points="164.46 100.2 164.46 118.29 165.86 118.93 165.86 99.39 164.46 100.2"/><polygon class="cls-5" points="175.02 94.03 177.81 92.38 177.81 111.91 175.03 113.52 175.02 94.03"/><polygon class="cls-10" points="177.81 111.91 176.41 111.27 175.02 111.91 175.02 113.52 177.81 111.91"/><polygon class="cls-10" points="176.42 93.18 176.41 111.27 177.81 111.91 177.81 92.38 176.42 93.18"/><polygon class="cls-5" points="166.89 98.79 169.68 97.14 169.68 116.67 166.9 118.28 166.89 98.79"/><polygon class="cls-10" points="169.68 116.67 168.28 116.03 166.89 116.67 166.89 118.28 169.68 116.67"/><polygon class="cls-10" points="168.29 97.94 168.28 116.03 169.68 116.67 169.68 97.14 168.29 97.94"/><polygon class="cls-5" points="170.99 96.39 173.78 94.74 173.78 114.27 170.99 115.88 170.99 96.39"/><polygon class="cls-10" points="173.78 114.27 172.38 113.63 170.99 114.27 170.99 115.88 173.78 114.27"/><polygon class="cls-10" points="172.38 95.55 172.38 113.63 173.78 114.27 173.78 94.74 172.38 95.55"/><polygon class="cls-5" points="178.7 91.96 181.5 90.31 181.5 109.84 178.71 111.45 178.7 91.96"/><polygon class="cls-10" points="181.5 109.84 180.1 109.2 178.71 109.84 178.71 111.45 181.5 109.84"/><polygon class="cls-10" points="180.1 91.12 180.1 109.2 181.5 109.84 181.5 90.31 180.1 91.12"/><polygon class="cls-5" points="182.56 89.93 185.35 88.28 185.35 107.81 182.57 109.42 182.56 89.93"/><polygon class="cls-10" points="185.35 107.81 183.95 107.17 182.56 107.81 182.56 109.42 185.35 107.81"/><polygon class="cls-10" points="183.96 89.08 183.95 107.17 185.35 107.81 185.35 88.28 183.96 89.08"/><polygon class="cls-5" points="186.94 87.22 189.73 85.58 189.73 105.11 186.94 106.72 186.94 87.22"/><polygon class="cls-10" points="189.73 105.11 188.33 104.47 186.94 105.11 186.94 106.72 189.73 105.11"/><polygon class="cls-10" points="188.33 86.38 188.33 104.47 189.73 105.11 189.73 85.58 188.33 86.38"/><polygon class="cls-5" points="190.85 84.98 193.65 83.33 193.65 102.86 190.86 104.47 190.85 84.98"/><polygon class="cls-10" points="193.65 102.86 192.25 102.22 190.86 102.86 190.86 104.47 193.65 102.86"/><polygon class="cls-10" points="192.25 84.13 192.25 102.22 193.65 102.86 193.65 83.33 192.25 84.13"/><polygon class="cls-5" points="194.7 82.73 197.49 81.08 197.5 100.61 194.71 102.22 194.7 82.73"/><polygon class="cls-10" points="197.49 100.61 196.09 99.97 194.71 100.61 194.71 102.22 197.49 100.61"/><polygon class="cls-10" points="196.1 81.88 196.09 99.97 197.49 100.61 197.49 81.08 196.1 81.88"/><polygon class="cls-5" points="198.72 80.48 201.51 78.83 201.51 98.36 198.73 99.97 198.72 80.48"/><polygon class="cls-10" points="201.51 98.36 200.11 97.72 198.72 98.36 198.72 99.97 201.51 98.36"/><polygon class="cls-10" points="200.12 79.63 200.11 97.72 201.51 98.36 201.51 78.83 200.12 79.63"/><polygon class="cls-5" points="202.87 78.05 205.67 76.4 205.67 95.93 202.88 97.54 202.87 78.05"/><polygon class="cls-10" points="205.67 95.93 204.27 95.29 202.88 95.93 202.88 97.54 205.67 95.93"/><polygon class="cls-10" points="204.27 77.21 204.27 95.29 205.67 95.93 205.67 76.4 204.27 77.21"/><polygon class="cls-5" points="207.14 75.8 209.93 74.15 209.94 93.69 207.15 95.29 207.14 75.8"/><polygon class="cls-10" points="209.93 93.69 208.54 93.05 207.15 93.69 207.15 95.29 209.93 93.69"/><polygon class="cls-10" points="208.54 74.96 208.54 93.05 209.93 93.69 209.93 74.15 208.54 74.96"/><polygon class="cls-5" points="211.39 73.55 214.18 71.9 214.19 91.44 211.4 93.05 211.39 73.55"/><polygon class="cls-10" points="214.18 91.44 212.79 90.8 211.4 91.44 211.4 93.05 214.18 91.44"/><polygon class="cls-10" points="212.79 72.71 212.79 90.8 214.18 91.44 214.18 71.9 212.79 72.71"/><polygon class="cls-5" points="215.12 71.3 217.91 69.65 217.92 89.19 215.13 90.8 215.12 71.3"/><polygon class="cls-10" points="217.91 89.19 216.52 88.55 215.13 89.19 215.13 90.8 217.91 89.19"/><polygon class="cls-10" points="216.52 70.46 216.52 88.55 217.91 89.19 217.91 69.65 216.52 70.46"/><polygon class="cls-5" points="218.97 69.12 221.76 67.47 221.76 87 218.97 88.61 218.97 69.12"/><polygon class="cls-10" points="221.76 87 220.36 86.36 218.97 87 218.97 88.61 221.76 87"/><polygon class="cls-10" points="220.36 68.27 220.36 86.36 221.76 87 221.76 67.47 220.36 68.27"/><polygon class="cls-5" points="230.76 62.39 233.55 60.74 233.55 80.27 230.76 81.88 230.76 62.39"/><polygon class="cls-10" points="233.55 80.27 232.15 79.63 230.76 80.27 230.76 81.88 233.55 80.27"/><polygon class="cls-10" points="232.16 61.54 232.15 79.63 233.55 80.27 233.55 60.74 232.16 61.54"/><polygon class="cls-5" points="222.63 67.14 225.42 65.49 225.42 85.03 222.63 86.64 222.63 67.14"/><polygon class="cls-10" points="225.42 85.03 224.02 84.39 222.63 85.03 222.63 86.64 225.42 85.03"/><polygon class="cls-10" points="224.02 66.3 224.02 84.39 225.42 85.03 225.42 65.49 224.02 66.3"/><polygon class="cls-5" points="226.72 64.75 229.51 63.1 229.52 82.63 226.73 84.24 226.72 64.75"/><polygon class="cls-10" points="229.51 82.63 228.12 81.99 226.73 82.63 226.73 84.24 229.51 82.63"/><polygon class="cls-10" points="228.12 63.9 228.12 81.99 229.51 82.63 229.51 63.1 228.12 63.9"/><polygon class="cls-5" points="234.44 60.32 237.23 58.67 237.24 78.2 234.45 79.81 234.44 60.32"/><polygon class="cls-10" points="237.23 78.2 235.84 77.56 234.44 78.2 234.45 79.81 237.23 78.2"/><polygon class="cls-10" points="235.84 59.47 235.84 77.56 237.23 78.2 237.23 58.67 235.84 59.47"/><polygon class="cls-5" points="238.3 58.28 241.09 56.63 241.09 76.17 238.31 77.78 238.3 58.28"/><polygon class="cls-10" points="241.09 76.17 239.69 75.53 238.3 76.17 238.3 77.78 241.09 76.17"/><polygon class="cls-10" points="239.69 57.44 239.69 75.53 241.09 76.17 241.09 56.63 239.69 57.44"/><polygon class="cls-5" points="242.67 55.58 245.47 53.93 245.47 73.47 242.68 75.08 242.67 55.58"/><polygon class="cls-10" points="245.47 73.47 244.07 72.83 242.68 73.47 242.68 75.08 245.47 73.47"/><polygon class="cls-10" points="244.07 54.74 244.07 72.83 245.47 73.47 245.47 53.93 244.07 54.74"/><polygon class="cls-5" points="246.59 53.33 249.38 51.68 249.39 71.22 246.6 72.83 246.59 53.33"/><polygon class="cls-10" points="249.38 71.22 247.99 70.58 246.59 71.22 246.59 72.83 249.38 71.22"/><polygon class="cls-10" points="247.99 52.49 247.99 70.58 249.38 71.22 249.38 51.68 247.99 52.49"/><polygon class="cls-5" points="250.44 51.09 253.23 49.44 253.23 68.97 250.45 70.58 250.44 51.09"/><polygon class="cls-10" points="253.23 68.97 251.83 68.33 250.44 68.97 250.44 70.58 253.23 68.97"/><polygon class="cls-10" points="251.84 50.24 251.83 68.33 253.23 68.97 253.23 49.44 251.84 50.24"/><polygon class="cls-5" points="254.46 48.84 257.25 47.19 257.25 66.72 254.47 68.33 254.46 48.84"/><polygon class="cls-10" points="257.25 66.72 255.85 66.08 254.46 66.72 254.46 68.33 257.25 66.72"/><polygon class="cls-10" points="255.85 47.99 255.85 66.08 257.25 66.72 257.25 47.19 255.85 47.99"/><polygon class="cls-11" points="91.52 177.73 78.98 185.05 91.48 192.07 103.82 185 91.52 177.73"/><polygon class="cls-12" points="78.94 187.19 91.4 194.07 91.48 192.07 78.98 185.05 78.94 187.19"/><polygon class="cls-13" points="91.4 192.16 103.82 185 103.86 187.15 91.4 194.07 91.4 192.16"/><polygon class="cls-11" points="103.21 162.94 90.67 170.25 103.17 177.28 115.51 170.21 103.21 162.94"/><polygon class="cls-12" points="90.63 172.4 103.09 179.28 103.17 177.28 90.67 170.25 90.63 172.4"/><polygon class="cls-13" points="103.09 177.36 115.51 170.21 115.55 172.35 103.09 179.28 103.09 177.36"/><polygon class="cls-11" points="130.08 160.54 117.54 167.85 130.03 174.88 142.37 167.81 130.08 160.54"/><polygon class="cls-12" points="117.5 170 129.96 176.88 130.03 174.88 117.54 167.85 117.5 170"/><polygon class="cls-13" points="129.96 174.96 142.37 167.81 142.41 169.95 129.96 176.88 129.96 174.96"/><polygon class="cls-14" points="152.64 187.05 145.56 182.41 145.6 125.78 152.34 129.66 152.64 187.05"/><polygon class="cls-15" points="138.7 166.01 144.2 168.9 144.2 165.63 151.53 169.88 151.55 172.89 157.35 176.09 157.35 172.81 166.47 177.85 166.47 181.76 169.81 183.47 169.81 180 176.29 183.47 176.29 187.32 181.61 190.08 181.68 198.56 187.07 202.19 187.07 209.42 176.57 215.57 163.73 208.91 151.86 201.79 127.1 187.21 126.56 173.02 133.35 176.76 133.35 169.1 138.7 166.01"/><polygon class="cls-16" points="139.09 171.69 133.35 169.1 138.7 166.01 144.2 168.9 139.09 171.69"/><polygon class="cls-16" points="144.2 165.63 140.1 167.8 147.65 172.29 151.53 169.88 144.2 165.63"/><polygon class="cls-16" points="134.93 177.68 141.5 181.58 139.09 183.28 132.61 179.1 134.93 177.68"/><polygon class="cls-16" points="157.35 172.81 152.84 175.5 162.53 180.48 166.47 177.85 157.35 172.81"/><polygon class="cls-16" points="169.81 180 166.47 181.76 173.42 185.53 176.29 183.47 169.81 180"/><polygon class="cls-16" points="167.2 188.04 163.61 191.1 176.57 197.74 179.82 194.44 167.2 188.04"/><polygon class="cls-16" points="126.56 173.02 133.35 169.1 133.35 176.76 126.56 173.02"/><polygon class="cls-17" points="147.48 189.68 151.53 192.36 151.53 196.51 147.48 194.05 147.48 189.68"/><polygon class="cls-17" points="159.92 193.09 163.97 195.78 163.97 199.93 159.92 197.47 159.92 193.09"/><polygon class="cls-17" points="147.48 177.86 151.53 180.54 151.53 184.69 147.48 182.23 147.48 177.86"/><polygon class="cls-17" points="172.52 203.52 176.57 206.2 176.57 210.35 172.52 207.89 172.52 203.52"/><polygon class="cls-17" points="167.73 203.52 171.78 206.2 171.78 210.35 167.73 207.89 167.73 203.52"/><polygon class="cls-17" points="135.03 171.89 139.08 174.57 139.08 178.72 135.03 176.26 135.03 171.89"/><polygon class="cls-17" points="129.26 181.3 133.3 183.98 133.3 188.13 129.26 185.67 129.26 181.3"/><polygon class="cls-1" points="152.43 115.32 251.83 172.54 338.64 122.42 239.28 65.05 152.43 115.32"/><polygon class="cls-14" points="152.4 215.68 152.43 115.32 251.83 172.54 251.83 273.08 152.4 215.68"/><polygon class="cls-18" points="338.64 122.42 338.64 222.81 251.83 273.08 251.83 172.54 338.64 122.42"/><polygon class="cls-14" points="301.38 172.69 301.38 244.4 363.49 280.25 363.49 222.89 301.38 172.69"/><polygon class="cls-19" points="400.75 201.37 363.49 222.89 363.49 280.25 400.75 258.74 400.75 201.37"/><polygon class="cls-20" points="301.38 172.69 366.78 225.55 403.72 203.77 338.64 151.18 301.38 172.69"/><polygon class="cls-21" points="301.38 172.69 301.38 188.62 363.49 222.89 301.38 172.69"/><polygon class="cls-22" points="152.43 115.32 152.34 129.66 251.7 187.03 251.83 172.54 152.43 115.32"/><polygon class="cls-23" points="338.64 122.42 251.83 172.54 251.7 187.03 338.64 136.83 338.64 122.42"/><polygon class="cls-24" points="202.02 187.03 226.86 201.3 226.86 258.67 202.02 244.32 202.02 187.03"/><polygon class="cls-25" points="165.26 165.63 164.76 194.2 189.6 208.54 190 179.94 165.26 165.63"/><polygon class="cls-26" points="264.12 208.54 264.12 194.2 288.86 179.71 288.86 208.48 264.12 222.89 264.12 208.54"/><polygon class="cls-24" points="313.93 251.5 313.8 208.54 351 230.02 351 273.05 313.93 251.5"/><line class="cls-1" x1="313.93" y1="222.81" x2="351" y2="244.44"/><line class="cls-1" x1="313.75" y1="237.23" x2="350.94" y2="258.67"/><line class="cls-1" x1="276.49" y1="187.06" x2="276.54" y2="215.65"/><line class="cls-1" x1="288.86" y1="194.14" x2="264.12" y2="208.54"/><path class="cls-1" d="M230.43,237.62" transform="translate(-15.99 -129.47)"/><line class="cls-1" x1="177.18" y1="172.39" x2="177.3" y2="201.3"/><line class="cls-1" x1="164.51" y1="179.71" x2="189.6" y2="194.2"/><polygon class="cls-27" points="201.99 86.64 259.24 191.44 351.39 138.13 275.15 44.38 201.99 86.64"/><polygon class="cls-15" points="142.16 123.85 259.24 191.44 201.99 86.64 142.16 123.85"/><polygon class="cls-28" points="205.16 189.32 205.16 242.61 202.02 244.32 202.02 187.03 205.16 189.32"/><polygon class="cls-29" points="226.67 254.97 205.16 242.61 202.02 244.32 226.86 258.67 226.67 254.97"/><polygon class="cls-17" points="165.26 165.63 164.76 194.2 166.97 192.94 167.54 166.95 165.26 165.63"/><polygon class="cls-17" points="189.6 208.54 164.76 194.2 166.97 192.94 189.6 205.89 189.6 208.54"/><polygon class="cls-17" points="288.86 179.71 288.86 207.7 288.86 208.48 285.94 206.67 285.94 181.43 288.86 179.71"/><polygon class="cls-17" points="264.12 222.89 288.86 208.48 285.94 206.67 264.12 218.71 264.12 222.89"/><polygon class="cls-30" points="202.02 187.03 199.04 182.72 229.22 200.03 226.86 201.3 202.02 187.03"/><polygon class="cls-30" points="226.86 258.67 229.22 260.03 229.22 200.03 226.77 198.51 226.86 258.67"/><polygon class="cls-30" points="202.02 244.32 199.04 242.61 199.04 182.72 201.99 184.66 202.02 244.32"/><polygon class="cls-31" points="229.22 200.03 230.01 199.42 230.01 258.67 229.22 260.03 229.22 200.03"/><polygon class="cls-31" points="199.04 182.72 229.22 200.03 230.01 199.42 199.85 181.94 199.04 182.72"/><polygon class="cls-32" points="144.91 125.37 200.81 90.8 254.41 188.55 144.91 125.37"/><line class="cls-33" x1="208.23" y1="97.41" x2="282.42" y2="53.93"/><line class="cls-33" x1="214.44" y1="108.15" x2="290.07" y2="64.5"/><line class="cls-33" x1="220.64" y1="118.79" x2="298.19" y2="74.15"/><line class="cls-33" x1="227.17" y1="129.5" x2="306.12" y2="83.92"/><line class="cls-33" x1="233.09" y1="140.25" x2="313.67" y2="93.9"/><line class="cls-33" x1="239.4" y1="151.12" x2="321.32" y2="103.83"/><line class="cls-33" x1="245.54" y1="161.7" x2="328.36" y2="113.52"/><line class="cls-33" x1="311.75" y1="181.07" x2="349.01" y2="159.55"/><line class="cls-33" x1="321.83" y1="189.21" x2="359.36" y2="167.92"/><line class="cls-33" x1="332.47" y1="197.81" x2="369.71" y2="176.28"/><line class="cls-33" x1="342.8" y1="206.16" x2="380.06" y2="184.65"/><line class="cls-33" x1="353.15" y1="214.53" x2="390.41" y2="193.02"/><line class="cls-33" x1="400.75" y1="201.37" x2="363.49" y2="222.89"/><line class="cls-33" x1="366.07" y1="224.27" x2="402.8" y2="202.58"/><polygon class="cls-15" points="313.93 251.5 239.28 294.61 236.38 292.94 310.73 249.92 313.93 251.5"/><polygon class="cls-34" points="276.54 316.13 281.28 318.86 354.54 275.09 351 273.05 276.54 316.13"/><polygon class="cls-10" points="50.57 156.98 50.57 185.66 53.33 187.27 53.33 158.16 50.57 156.98"/><polygon class="cls-10" points="264.12 36.46 261.43 34.91 50.57 156.98 53.33 158.16 264.12 36.46"/><path class="cls-10" d="M280.11,162.81l-2.68,1.56,268,154.29,1.61-.93c-4.25-2.58-29.71-17-29.72-17Z" transform="translate(-15.99 -129.47)"/><polygon class="cls-9" points="313.8 337.64 313.8 308.96 518.55 191.48 518.74 221.85 316.75 339.34 313.8 337.64"/><polygon class="cls-35" points="316.75 310.62 316.75 339.34 531.01 215.17 531.01 188.27 316.75 310.62"/><polygon class="cls-36" points="234.41 220 245.67 226.47 245.67 233.56 234.41 226.78 234.41 221.3 234.41 220"/><polygon class="cls-28" points="313.8 208.54 316.75 210.26 316.75 249.89 313.93 251.5 313.8 208.54"/><polygon class="cls-28" points="384.44 253.84 388.33 251.24 388.48 265.93 384.44 268.16 384.44 253.84"/><polygon class="cls-28" points="234.41 224.14 245.54 230.02 245.67 233.56 234.41 226.78 234.41 224.14"/><polygon class="cls-28" points="208.32 197.75 222.73 205.55 222.73 213.35 208.23 204.98 208.32 197.75"/><polygon class="cls-17" points="208.23 204.98 210.33 203.77 222.73 210.68 222.73 213.35 208.23 204.98"/><polygon class="cls-25" points="188.93 107.72 211.3 120.67 210.72 140.89 188.93 127.89 188.93 107.72"/><polygon class="cls-17" points="189.18 107.72 189.18 127.89 190.92 126.44 190.92 108.77 189.18 107.72"/><polygon class="cls-17" points="210.97 140.89 189.18 127.89 190.92 126.44 211.04 138.52 210.97 140.89"/><polygon class="cls-37" points="152.34 129.66 155.14 131.28 155.14 217.26 152.4 215.68 152.34 129.66"/><polygon class="cls-38" points="251.7 187.03 254.41 188.55 253.87 271.85 251.83 273.08 251.7 187.03"/><polygon class="cls-38" points="336.31 148.83 338.64 147.48 338.64 151.18 336.31 152.31 336.31 148.83"/><path class="cls-39" d="M416.74,335" transform="translate(-15.99 -129.47)"/><polygon class="cls-38" points="400.75 258.74 400.75 205.53 397.57 207.4 397.57 260.69 400.75 258.74"/><polygon class="cls-38" points="363.49 280.25 363.49 224.14 366.78 225.55 366.78 278.43 363.49 280.25"/><polygon class="cls-37" points="249.5 185.78 251.7 187.03 251.83 273.08 249.5 270.49 249.5 185.78"/><polygon class="cls-40" points="202.02 244.32 177.6 258.61 202.44 273.34 226.86 258.67 202.02 244.32"/><polygon class="cls-41" points="313.71 251.48 239.06 294.6 276.32 316.11 350.78 273.03 313.71 251.48"/><polygon class="cls-15" points="152.34 201.68 157.83 204.57 157.83 201.3 165.16 205.55 165.18 208.56 170.99 211.77 170.99 208.48 180.1 213.52 180.1 217.43 183.44 219.15 183.44 215.68 189.93 219.15 189.93 223 195.24 225.75 195.31 234.23 200.7 237.87 200.7 245.1 190.2 251.24 177.36 244.59 165.5 237.47 140.73 222.89 140.19 208.69 146.98 212.44 146.98 204.78 152.34 201.68"/><polygon class="cls-16" points="152.73 207.37 146.98 204.78 152.34 201.68 157.83 204.57 152.73 207.37"/><polygon class="cls-16" points="157.83 201.3 153.74 203.48 161.28 207.96 165.16 205.55 157.83 201.3"/><polygon class="cls-16" points="148.56 213.35 155.14 217.26 152.73 218.96 146.24 214.78 148.56 213.35"/><polygon class="cls-16" points="170.99 208.48 166.47 211.17 176.16 216.15 180.1 213.52 170.99 208.48"/><polygon class="cls-16" points="183.44 215.68 180.1 217.43 187.05 221.2 189.93 219.15 183.44 215.68"/><polygon class="cls-16" points="180.83 223.71 177.24 226.78 190.2 233.42 193.45 230.11 180.83 223.71"/><polygon class="cls-16" points="140.19 208.69 146.98 204.78 146.98 212.44 140.19 208.69"/><polygon class="cls-17" points="161.11 225.35 165.16 228.03 165.16 232.19 161.11 229.72 161.11 225.35"/><polygon class="cls-17" points="173.56 228.77 177.6 231.45 177.6 235.6 173.56 233.14 173.56 228.77"/><polygon class="cls-17" points="161.11 213.53 165.16 216.21 165.16 220.36 161.11 217.9 161.11 213.53"/><polygon class="cls-17" points="186.16 239.19 190.2 241.87 190.2 246.02 186.16 243.56 186.16 239.19"/><polygon class="cls-17" points="181.37 239.19 185.41 241.87 185.41 246.02 181.37 243.56 181.37 239.19"/><polygon class="cls-17" points="148.67 207.57 152.71 210.25 152.71 214.4 148.67 211.94 148.67 207.57"/><polygon class="cls-17" points="142.89 216.98 146.94 219.66 146.94 223.81 142.89 221.35 142.89 216.98"/><polygon class="cls-11" points="164.76 194.2 161.67 196.29 186.24 210.86 189.6 208.54 164.76 194.2"/><polygon class="cls-18" points="161.67 196.29 161.67 200.03 186.25 214.4 186.24 210.86 161.67 196.29"/><polygon class="cls-18" points="189.6 208.54 189.6 212.13 186.25 214.4 186.24 210.86 189.6 208.54"/><line class="cls-42" x1="164.97" y1="180" x2="192.21" y2="195.35"/><line class="cls-42" x1="264.27" y1="208.48" x2="287.34" y2="195.41"/><polygon class="cls-7" points="159.48 162.98 166.79 166.89 166 192.94 159.48 189 159.48 162.98"/><polygon class="cls-15" points="164.81 191.44 162.38 192.94 163.41 196.29 166.89 198.51 168.89 197.79 168.89 199.42 177.6 204.53 180.1 205.55 182.56 207.37 183.96 208.6 186.16 209.36 188.18 207.57 187.82 204.78 164.81 191.44"/><polygon class="cls-7" points="190 179.94 196.05 183.42 196.05 212.09 189.6 208.54 190 179.94"/><polygon class="cls-43" points="210.68 199.03 210.33 203.77 222.73 210.68 222.73 205.55 210.68 199.03"/><polygon class="cls-31" points="196.05 183.42 196.44 184.37 196.44 210.98 196.05 212.09 196.05 183.42"/><polygon class="cls-31" points="160.51 165.63 165.52 168.11 165.52 168.98 160.51 166.38 160.51 165.63"/><polygon class="cls-31" points="160.51 166.97 165.52 169.44 165.52 170.31 160.51 167.72 160.51 166.97"/><polygon class="cls-31" points="160.51 168.64 165.52 171.12 165.52 171.98 160.51 169.39 160.51 168.64"/><polygon class="cls-31" points="160.51 170.03 165.52 172.51 165.52 173.37 160.51 170.78 160.51 170.03"/><polygon class="cls-31" points="160.51 171.54 165.52 174.02 165.52 174.88 160.51 172.29 160.51 171.54"/><polygon class="cls-31" points="160.51 173.16 165.52 175.64 165.52 176.5 160.51 173.91 160.51 173.16"/><polygon class="cls-31" points="160.51 178.95 165.52 181.43 165.52 182.29 160.51 179.7 160.51 178.95"/><polygon class="cls-31" points="160.51 180.28 165.52 182.76 165.52 183.62 160.51 181.03 160.51 180.28"/><polygon class="cls-31" points="160.51 181.95 165.52 184.43 165.52 185.3 160.51 182.7 160.51 181.95"/><polygon class="cls-31" points="160.51 183.34 165.52 185.82 165.52 186.69 160.51 184.09 160.51 183.34"/><polygon class="cls-31" points="160.51 184.85 165.52 187.34 165.52 188.2 160.51 185.6 160.51 184.85"/><polygon class="cls-31" points="160.51 186.47 165.52 188.95 165.52 189.82 160.51 187.22 160.51 186.47"/><polygon class="cls-31" points="190.31 182.29 195.33 184.77 195.33 185.64 190.31 183.04 190.31 182.29"/><polygon class="cls-31" points="190.31 183.62 195.33 186.1 195.33 186.97 190.31 184.38 190.31 183.62"/><polygon class="cls-31" points="190.31 185.3 195.33 187.78 195.33 188.64 190.31 186.05 190.31 185.3"/><polygon class="cls-31" points="190.31 186.69 195.33 189.17 195.33 190.03 190.31 187.44 190.31 186.69"/><polygon class="cls-31" points="190.31 188.2 195.33 190.68 195.33 191.54 190.31 188.95 190.31 188.2"/><polygon class="cls-31" points="190.31 189.82 195.33 192.3 195.33 193.16 190.31 190.57 190.31 189.82"/><polygon class="cls-31" points="190.52 199.09 195.53 201.57 195.53 202.44 190.52 199.84 190.52 199.09"/><polygon class="cls-31" points="190.52 200.42 195.53 202.9 195.53 203.77 190.52 201.17 190.52 200.42"/><polygon class="cls-31" points="190.52 202.09 195.53 204.57 195.53 205.44 190.52 202.84 190.52 202.09"/><polygon class="cls-31" points="190.52 203.49 195.53 205.97 195.53 206.83 190.52 204.24 190.52 203.49"/><polygon class="cls-31" points="190.52 205 195.53 207.48 195.53 208.34 190.52 205.75 190.52 205"/><polygon class="cls-31" points="190.52 206.62 195.53 209.09 195.53 209.96 190.52 207.37 190.52 206.62"/><polygon class="cls-44" points="278.07 260.03 271.18 270.33 293.82 283.43 299.76 272.35 278.07 260.03"/><polygon class="cls-45" points="271.31 271.27 271.74 271.27 279.13 260.06 278.63 260.02 271.31 271.27"/><polygon class="cls-46" points="258.69 276.93 282.02 290.93 294.92 283.51 270.89 269.68 258.69 276.93"/><polygon class="cls-45" points="282.46 290.61 282.46 300.86 329.58 273.75 329.58 263.77 282.46 290.61"/><polygon class="cls-46" points="270.44 270.18 271.47 271.03 278.63 260.02 277.46 259.68 270.44 270.18"/><polygon class="cls-46" points="293.82 282.99 294.92 283.51 300.28 272.26 299.12 271.6 293.82 282.99"/><polygon class="cls-46" points="277.46 259.68 299.76 272.35 314.46 264.57 291.97 251.48 277.46 259.68"/><polygon class="cls-46" points="293.05 257.24 317.12 271.03 329.58 263.91 305.32 250.25 293.05 257.24"/><polygon class="cls-44" points="320.53 269.06 313.44 265.11 299.96 271.98 294.92 283.51 320.53 269.06"/><polygon class="cls-45" points="299.96 271.98 300.71 271.6 295.82 283 294.92 283.51 299.96 271.98"/><polygon class="cls-45" points="314.05 264.36 321.39 268.59 320.29 269.06 313.03 264.9 314.05 264.36"/><polygon class="cls-45" points="314.2 264.66 313.41 264.05 300.61 271.4 299.74 273.05 314.2 264.66"/><polygon class="cls-47" points="258.41 286.49 258.69 276.93 282.46 290.61 282.46 300.86 258.41 286.49"/><polygon class="cls-48" points="275.08 273.2 272.94 272.83 264.5 278.12 265.16 279.37 259.95 276.38 270.28 270.43 275.08 273.2"/><polygon class="cls-48" points="277.46 259.68 291.97 251.48 304.54 258.79 291.85 252.97 279.51 259.68 284.82 263.25 277.46 259.68"/><polygon class="cls-49" points="258.69 276.93 264.53 280.25 264.5 283.95 258.58 280.75 258.69 276.93"/><polygon class="cls-49" points="276.27 287.12 282.1 290.44 282.08 294.14 276.16 290.94 276.27 287.12"/><polygon class="cls-40" points="292.42 292.88 292.37 302.07 301.73 296.8 301.78 287.55 292.42 292.88"/><polygon class="cls-50" points="289.36 296.88 289.36 300.33 292.37 302.07 292.37 295.15 289.36 296.88"/><polygon class="cls-40" points="315.59 279.37 315.54 288.56 324.91 283.29 324.95 274.04 315.59 279.37"/><polygon class="cls-50" points="312.54 283.37 312.54 286.82 315.54 288.56 315.54 281.64 312.54 283.37"/><polygon class="cls-36" points="264.12 222.89 289.36 208.6 291.71 209.96 289.28 218.06 266.95 231.01 264.12 222.89"/><polygon class="cls-11" points="264.12 222.89 264.12 229.72 267.04 231.09 267.04 224.41 264.12 222.89"/><polygon class="cls-51" points="267.04 224.41 267.04 231.09 291 217.05 291.71 209.96 267.04 224.41"/><polygon class="cls-17" points="346.27 141.09 425.85 187.03 400.75 201.37 338.64 151.18 339.04 145.28 346.27 141.09"/><polygon class="cls-14" points="425.85 187.03 432.36 190.99 432.36 197.74 400.75 216.18 400.75 205.53 403.72 203.77 400.75 201.37 425.85 187.03"/><polygon class="cls-14" points="348.72 139.67 432.13 188.2 432.36 190.99 346.27 141.09 348.72 139.67"/><line class="cls-42" x1="189.73" y1="117.93" x2="211.3" y2="130.08"/><polygon class="cls-51" points="388.76 151.33 386.17 152.63 388.72 154.08 391.35 152.8 388.76 151.33"/><polygon class="cls-51" points="401.03 158.42 398.63 159.8 401.13 161.11 403.62 159.91 401.03 158.42"/><polygon class="cls-11" points="386.17 152.63 376.41 172.69 378.74 174.16 388.72 154.08 386.17 152.63"/><polygon class="cls-11" points="398.52 159.76 388.76 179.83 391.09 181.3 401.07 161.22 398.52 159.76"/><polygon class="cls-51" points="391.35 152.8 391.35 154.33 389.31 155.43 380.54 172.76 378.74 174.16 388.72 154.08 391.35 152.8"/><polygon class="cls-51" points="403.72 159.87 403.72 161.41 401.69 162.5 392.91 179.83 391.11 181.24 401.09 161.15 403.72 159.87"/><polygon class="cls-11" points="387.91 156.56 387.05 158.42 396.52 163.89 397.42 162.03 387.91 156.56"/><polygon class="cls-11" points="386.13 160.22 385.26 162.08 394.73 167.55 395.63 165.7 386.13 160.22"/><polygon class="cls-11" points="384.39 163.71 383.52 165.57 392.99 171.04 393.89 169.19 384.39 163.71"/><polygon class="cls-11" points="382.98 167.12 382.12 168.98 391.58 174.45 392.49 172.6 382.98 167.12"/><polygon class="cls-11" points="140.38 197.43 135.11 200.21 140.19 202.87 145.28 200.21 140.38 197.43"/><polygon class="cls-12" points="135.11 204.94 140.19 207.96 140.19 202.87 135.11 200.21 135.11 204.94"/><polygon class="cls-13" points="140.19 202.87 145.28 200.21 145.28 204.94 140.19 207.96 140.19 202.87"/><polygon class="cls-11" points="140.46 194.2 137.32 196.01 140.34 197.74 143.37 196.01 140.46 194.2"/><polygon class="cls-12" points="137.32 199.09 140.34 201.06 140.34 197.74 137.32 196.01 137.32 199.09"/><polygon class="cls-13" points="140.34 197.74 143.37 196.01 143.37 199.09 140.34 201.06 140.34 197.74"/><polygon class="cls-52" points="49.84 185.24 318.59 340.24 269.06 368.84 0 213.85 49.84 185.24"/><polyline class="cls-53" points="46.73 240.81 269.11 368.84 269.11 371.53 43.34 242.61 0 217.28 0 213.86 46.73 240.81 46.73 240.81 46.73 240.81 46.73 240.81"/><line class="cls-54" x1="15.7" y1="222.91" x2="65.18" y2="194.1"/><line class="cls-54" x1="65.31" y1="251.59" x2="115.07" y2="224.14"/><line class="cls-54" x1="115.04" y1="280.25" x2="163.7" y2="252.2"/><line class="cls-54" x1="164.76" y1="308.96" x2="214.68" y2="280.25"/><line class="cls-54" x1="212.99" y1="336.8" x2="264.26" y2="308.96"/><line class="cls-54" x1="265.5" y1="366.32" x2="313.8" y2="337.64"/><polyline class="cls-55" points="219.63 290.63 224.44 293.63 224.63 306.72 219.63 303.6 219.63 290.63 224.44 293.63 219.63 290.63"/><polyline class="cls-56" points="231.5 289.11 231.5 302.57 224.63 306.72 224.44 293.63 231.5 289.11"/><polygon class="cls-57" points="226.77 273.15 219.63 277.27 224.44 280.18 231.5 275.72 226.77 273.15"/><polygon class="cls-58" points="219.63 290.63 226.77 286.51 231.5 289.11 224.44 293.63 219.63 290.63"/><polygon class="cls-59" points="219.63 285.27 224.63 288.29 224.44 280.18 219.63 277.27 219.63 285.27"/><polygon class="cls-60" points="224.63 288.29 231.5 283.81 231.5 275.72 224.44 280.18 224.63 288.29"/><polygon class="cls-61" points="223.23 287.44 223.23 290.07 224.44 290.81 228.24 288.29 227.9 286.16 224.63 288.29 223.23 287.44"/><polygon class="cls-57" points="222.13 278.78 222.13 282.78 224.44 283.81 224.44 280.18 222.13 278.78"/><polygon class="cls-62" points="221.34 304.67 221.34 316.13 225.37 318.86 230.01 316.13 230.01 304.67 230.01 303.6 224.63 306.72 221.34 304.67"/><polygon class="cls-58" points="220.45 291.14 218.13 292.54 222.13 294.61 224.44 293.63 220.45 291.14"/><polygon class="cls-55" points="218.13 292.54 218.13 298.67 216.4 303.6 219.63 305.96 221.28 301.24 221.28 294.17 218.13 292.54"/><polygon class="cls-56" points="221.28 294.17 223.28 292.91 223.23 300.66 221.34 304.67 219.63 305.96 221.28 301.24 221.28 294.17"/><polygon class="cls-59" points="216.4 303.6 215.82 305.96 218.13 307.93 219.63 305.96 216.4 303.6"/><polygon class="cls-61" points="219.63 305.96 221.34 304.67 220.49 306.72 218.13 307.93 219.63 305.96"/><polygon class="cls-58" points="227.97 287.17 230.01 286.56 231.8 287.35 230.45 288.53 227.97 287.17"/><polygon class="cls-56" points="231.8 287.35 232.42 295.95 231.5 296.51 231.5 289.11 230.45 288.53 231.8 287.35"/><polygon class="cls-63" points="225.11 307.93 225.37 318.86 230.01 316.13 230.01 303.6 225.11 306.72 225.11 307.93"/><polygon class="cls-59" points="190.98 305.33 191.14 313.45 196.76 316.69 196.76 308.58 190.98 305.33"/><polygon class="cls-61" points="196.76 308.58 200.37 306.6 200.37 314.71 196.76 316.69 196.76 308.58"/><polygon class="cls-64" points="190.98 305.33 196.76 311.65 196.76 308.58 200.37 311.01 200.37 306.6 200.37 304.44 197.94 302.92 195.06 301.12 190.98 302.92 190.98 305.33"/><polygon class="cls-64" points="200.37 300.86 197.28 302.5 200.37 304.44 200.37 312.67 203.84 310.53 203.84 302.92 200.37 300.86"/><polygon class="cls-65" points="196.76 305.5 196.76 308.58 196.76 311.65 197.84 309.31 200.56 311.65 200.37 304.44 196.76 305.5"/><polygon class="cls-65" points="203.84 302.92 200.37 304.44 200.37 312.67 203.84 310.53 203.84 302.92"/><polygon class="cls-61" points="194.44 315.35 194.44 317.01 196.5 318.3 198.66 316.69 198.56 315.7 196.76 316.69 194.44 315.35"/><polygon class="cls-66" points="193.34 315.35 190.98 317.01 191.2 317.14 198.66 321.76 200.56 319.97 201.41 318.86 198.66 316.69 196.5 318.3 194.44 317.01 194.44 315.35 193.34 315.35"/><polygon class="cls-67" points="201.41 318.86 205.68 323.74 205.28 328.59 201.41 330.47 201.41 324.89 198.66 321.76 201.41 318.86"/><polygon class="cls-62" points="191.2 317.14 196.19 322.22 195.19 326.14 201.41 330.47 201.41 324.89 198.66 321.76 191.2 317.14"/><polygon class="cls-62" points="193.34 315.35 191.84 314.61 188.96 316.13 191.2 317.14 193.34 315.35"/><polygon class="cls-59" points="192.04 321.76 188.65 323.85 196.24 328.33 199.08 326.33 192.04 321.76"/><polygon class="cls-59" points="188.5 333.52 188.65 323.85 196.24 328.33 196.32 337.47 188.5 333.52"/><polygon class="cls-61" points="196.24 328.33 196.32 337.47 201.41 334.08 201.41 324.89 196.24 328.33"/><polygon class="cls-66" points="188.96 316.13 189.72 320.95 189.72 322.88 191.15 322.31 191.2 317.14 188.96 316.13"/><polygon class="cls-67" points="194.44 320.95 193.87 322.88 192.04 321.76 191.15 322.31 191.2 317.14 194.44 320.95"/><polygon class="cls-66" points="198.66 321.76 201.41 323.35 204.26 320.95 201.41 318.86 198.66 321.76"/><polygon class="cls-68" points="188.65 331.88 196.3 335.48 199.08 333.68 199.31 335.48 196.32 337.47 188.5 333.52 188.65 331.88"/><polygon class="cls-68" points="190.2 322.9 197.8 327.15 199.31 335.48 202.02 333.41 201.41 324.89 198.03 324.89 192.04 321.76 190.2 322.9"/><polygon class="cls-67" points="201.41 323.35 202.17 326.92 198.56 329.92 198.82 332.77 203.59 328.62 204.26 327.26 204.26 320.95 201.41 323.35"/><polygon class="cls-7" points="432.17 240.76 501.28 201.94 432.36 162.29 432.17 240.76"/><polygon class="cls-14" points="432.13 188.2 432.36 197.74 440.73 192.97 432.13 188.2"/><polygon class="cls-53" points="269.11 371.53 269.11 368.84 318.59 340.24 318.59 342.97 269.11 371.53"/></svg>